<svg xmlns="http://www.w3.org/2000/svg" viewBox="0 0 207.39 68.15"><defs><style>.cls-1{font-size:38.32px;font-family:Poppins-Medium, Poppins;letter-spacing:-0.04em;}.cls-1,.cls-2,.cls-3{fill:#ed1c24;}.cls-3{fill-rule:evenodd;}</style></defs><title>botao-login-com-google</title><g id="Layer_2" data-name="Layer 2"><g id="Layer_1-2" data-name="Layer 1"><text class="cls-1" transform="translate(78.39 43.88)">Google</text><path class="cls-2" d="M34.07,0A34.07,34.07,0,1,1,10,10,34,34,0,0,1,34.07,0ZM56.28,11.87a31.4,31.4,0,1,0,9.21,22.2,31.32,31.32,0,0,0-9.21-22.2Z"/><path class="cls-3" d="M37.55,31.7c-2.51,0-5,0-7.53,0-.72,0-1.45,0-2.15,0-.15,0-.38.17-.38.27,0,1.45,0,2.9,0,4.41H33.6a3,3,0,0,1-.2.74c-.93,2.79-3.82,4.17-6.93,3.66a6.75,6.75,0,0,1-5.53-8,7.39,7.39,0,0,1,.46-1.56,6.77,6.77,0,0,1,7.54-3.8,6.3,6.3,0,0,1,2.89,1.49l3.38-3.37a1.61,1.61,0,0,1-.29-.25,11.05,11.05,0,0,0-9.32-2.55,11.42,11.42,0,0,0-9.43,9.4,11.26,11.26,0,0,0,.57,6.09,11.61,11.61,0,0,0,12.13,7.31,10.32,10.32,0,0,0,6.66-3.12c2.66-2.83,3.35-6.22,2.92-10-.07-.62-.32-.73-.9-.73ZM49,32.06h-.75v-.68c0-1,0-1.93,0-2.91,0-.15-.19-.43-.27-.43-.87,0-1.75,0-2.68,0v4h-4v.73c0,.72,0,1.46.11,2.17.7,0,1.4.08,2.13.08s1.19,0,1.83,0v4c1,0,1.93,0,2.93,0V35h4V32.06Z"/></g></g></svg>