<svg xmlns="http://www.w3.org/2000/svg" viewBox="0 0 253.98 68.38"><defs><style>.cls-1{font-size:38.32px;font-family:Poppins-Medium, Poppins;letter-spacing:-0.04em;}.cls-1,.cls-2,.cls-3{fill:#004297;}.cls-3{fill-rule:evenodd;}</style></defs><title>botao-login-com-facebook</title><g id="Layer_2" data-name="Layer 2"><g id="Layer_1-2" data-name="Layer 1"><text class="cls-1" transform="translate(76.31 46.07)">Facebook</text><path class="cls-2" d="M34.07,0A34.07,34.07,0,1,1,10,10,34,34,0,0,1,34.07,0ZM56.3,11.87a31.45,31.45,0,1,0,9.19,22.2,31.4,31.4,0,0,0-9.19-22.2Z"/><path class="cls-3" d="M36.68,27.11V24.32a1.46,1.46,0,0,1,1.53-1.66h3.9v-6H36.73c-6,0-7.32,4.41-7.32,7.28v3.13H25.94v7h3.51v17.4h7V34.07h5.15l.23-2.73.42-4.23Z"/></g></g></svg>