<?xml version="1.0" encoding="utf-8"?>
<!-- Generator: Adobe Illustrator 22.0.0, SVG Export Plug-In . SVG Version: 6.00 Build 0)  -->
<svg version="1.1" id="Layer_1" xmlns="http://www.w3.org/2000/svg" xmlns:xlink="http://www.w3.org/1999/xlink" x="0px" y="0px"
	 width="70.7px" height="70.7px" viewBox="0 0 70.7 70.7" enable-background="new 0 0 70.7 70.7" xml:space="preserve">
<path fill="#ED1C24" d="M35.4,1.3c9.4,0,17.9,3.8,24.1,10c6.2,6.2,10,14.7,10,24.1c0,9.4-3.8,17.9-10,24.1c-6.2,6.2-14.7,10-24.1,10
	s-17.9-3.8-24.1-10c-6.2-6.2-10-14.7-10-24.1c0-9.4,3.8-17.9,10-24.1C17.4,5.1,25.9,1.3,35.4,1.3L35.4,1.3z M57.6,13.1
	C51.9,7.5,44,3.9,35.4,3.9s-16.5,3.5-22.2,9.2c-5.7,5.7-9.2,13.5-9.2,22.2c0,8.7,3.5,16.5,9.2,22.2c5.7,5.7,13.5,9.2,22.2,9.2
	s16.5-3.5,22.2-9.2c5.7-5.7,9.2-13.5,9.2-22.2C66.8,26.7,63.3,18.8,57.6,13.1L57.6,13.1z"/>
<path fill-rule="evenodd" clip-rule="evenodd" fill="#ED1C24" d="M47.3,32.6c-2.9,0-5.8,0-8.7,0c-0.8,0-1.7,0-2.5,0
	c-0.2,0-0.4,0.2-0.4,0.3c0,1.7,0,3.4,0,5.1c2.4,0,4.7,0,7.1,0c-0.1,0.3-0.1,0.6-0.2,0.9c-1.1,3.2-4.4,4.8-8,4.2
	c-4.5-0.7-7.2-4.9-6.4-9.3c0.1-0.6,0.3-1.2,0.5-1.8c1.5-3.2,5.1-5.2,8.8-4.4c1.3,0.3,2.4,0.9,3.3,1.7c1.3-1.3,2.6-2.6,3.9-3.9
	c-0.1-0.1-0.2-0.2-0.3-0.3c-3.2-2.6-6.8-3.6-10.8-3c-5.8,0.9-10,5.5-10.9,10.9c-0.4,2.3-0.2,4.7,0.7,7.1c2.2,5.7,7.9,9.1,14.1,8.5
	c3-0.3,5.7-1.4,7.7-3.6c3.1-3.3,3.9-7.2,3.4-11.6C48.2,32.7,47.9,32.6,47.3,32.6L47.3,32.6z"/>
<g id="Arrow_33">
</g>
</svg>
