<?xml version="1.0" encoding="utf-8"?>
<!-- Generator: Adobe Illustrator 22.0.0, SVG Export Plug-In . SVG Version: 6.00 Build 0)  -->
<svg version="1.1" id="Layer_1" xmlns="http://www.w3.org/2000/svg" xmlns:xlink="http://www.w3.org/1999/xlink" x="0px" y="0px"
	 width="70.7px" height="70.7px" viewBox="0 0 70.7 70.7" enable-background="new 0 0 70.7 70.7" xml:space="preserve">
<g>
	<path fill="#004297" d="M35.4,1.3c9.4,0,17.9,3.8,24.1,10c6.2,6.2,10,14.7,10,24.1c0,9.4-3.8,17.9-10,24.1
		c-6.2,6.2-14.7,10-24.1,10c-9.4,0-17.9-3.8-24.1-10c-6.2-6.2-10-14.7-10-24.1c0-9.4,3.8-17.9,10-24.1C17.4,5.1,25.9,1.3,35.4,1.3
		L35.4,1.3z M57.6,13.1C51.9,7.5,44,3.9,35.4,3.9c-8.7,0-16.5,3.5-22.2,9.2c-5.7,5.7-9.2,13.5-9.2,22.2c0,8.7,3.5,16.5,9.2,22.2
		c5.7,5.7,13.5,9.2,22.2,9.2c8.7,0,16.5-3.5,22.2-9.2c5.7-5.7,9.2-13.5,9.2-22.2C66.8,26.7,63.3,18.8,57.6,13.1L57.6,13.1z"/>
	<path fill-rule="evenodd" clip-rule="evenodd" fill="#004297" d="M38,28.4v-2.8c0-1.3,0.9-1.7,1.5-1.7c0.6,0,3.9,0,3.9,0v-6H38
		c-6,0-7.3,4.4-7.3,7.3v3.1h-3.5v4.2v2.8h3.5c0,7.9,0,17.4,0,17.4h7c0,0,0-9.6,0-17.4h5.2l0.2-2.7l0.4-4.2H38z"/>
</g>
<g id="Arrow_33">
</g>
</svg>
