<svg xmlns="http://www.w3.org/2000/svg" viewBox="0 0 76.07 87.94"><defs><style>.cls-1{fill:#ff6d3a;}.cls-2{fill:#db5e32;}.cls-3{fill:#ff4c4c;}.cls-4{fill:#d43f3f;}.cls-5{fill:#423e38;}.cls-6{fill:#302e29;}</style></defs><title>icone-seguranca</title><g id="Layer_2" data-name="Layer 2"><g id="Layer_1-2" data-name="Layer 1"><path class="cls-1" d="M38,19.77A27.93,27.93,0,0,0,10.11,47.7V74.63H66V47.7A27.93,27.93,0,0,0,38,19.77Z"/><path class="cls-2" d="M33,20.23A27.93,27.93,0,0,1,55.85,47.7V74.63H66V47.7A27.94,27.94,0,0,0,33,20.23Z"/><path class="cls-3" d="M53,74.63H23.12V65A14.41,14.41,0,0,1,37.53,50.6h1A14.41,14.41,0,0,1,53,65v9.62Z"/><path class="cls-4" d="M33.86,51.2A14.92,14.92,0,0,1,44.59,65.52v9.11H53V65.52A14.92,14.92,0,0,0,33.86,51.2Z"/><path class="cls-5" d="M73.5,74.63H2.58A2.57,2.57,0,0,0,0,77.2v8.17a2.57,2.57,0,0,0,2.58,2.57H73.5a2.57,2.57,0,0,0,2.57-2.57V77.2A2.57,2.57,0,0,0,73.5,74.63Z"/><path class="cls-6" d="M73.5,74.63H61.12a2.57,2.57,0,0,1,2.57,2.57v8.17a2.57,2.57,0,0,1-2.57,2.57H73.5a2.57,2.57,0,0,0,2.57-2.57V77.2A2.57,2.57,0,0,0,73.5,74.63Z"/><path class="cls-3" d="M38,13.68a1.34,1.34,0,0,0,1.33-1.34v-11a1.34,1.34,0,0,0-2.67,0v11A1.34,1.34,0,0,0,38,13.68Z"/><path class="cls-3" d="M66.35,25.4c1,0,.68-.33,8.73-8.17a1.34,1.34,0,0,0-1.89-1.89L65.4,23.13a1.33,1.33,0,0,0,0,1.88A1.37,1.37,0,0,0,66.35,25.4Z"/><path class="cls-3" d="M9.73,25.4a1.33,1.33,0,0,0,.94-2.27L2.88,15.34A1.33,1.33,0,1,0,1,17.23C9,25.07,8.72,25.4,9.73,25.4Z"/></g></g></svg>