<svg xmlns="http://www.w3.org/2000/svg" viewBox="0 0 43.56 28.52"><defs><style>.cls-1{fill:#004297;}</style></defs><title>icone-menu-contato</title><g id="Layer_2" data-name="Layer 2"><g id="Layer_1-2" data-name="Layer 1"><path class="cls-1" d="M36.65,0H6.86A6.82,6.82,0,0,0,2.19,1.54L3.88,2.63l12.82,8.3a.78.78,0,0,1,.33.21l4.67,3L39.61,2.64l1.7-1.1A7.33,7.33,0,0,0,36.65,0Z"/><path class="cls-1" d="M2.59,4,1,3A7.61,7.61,0,0,0,0,6.84V21.66a7.42,7.42,0,0,0,1.38,4.41L2.71,24.7,14.92,12Z"/><path class="cls-1" d="M39.5,26,27.05,13.05l-4.76,3.08-.15.07h-.08a.88.88,0,0,1-.23,0,1,1,0,0,1-.24,0h-.07l-.22-.07-4.72-3.06L4.06,26,2.72,27.38a7,7,0,0,0,4.14,1.13H36.7a7.52,7.52,0,0,0,4.12-1.19Z"/><path class="cls-1" d="M43.55,21.66V6.86a7.33,7.33,0,0,0-1-3.88L41,4,28.67,12l12.2,12.69,1.34,1.39A7,7,0,0,0,43.55,21.66Z"/></g></g></svg>