<svg xmlns="http://www.w3.org/2000/svg" viewBox="0 0 83.53 83.53"><defs><style>.cls-1{fill:#90bade;}.cls-2{fill:#36495d;}.cls-3{fill:#b0d2ee;}.cls-4{fill:#2d3e4f;}.cls-5{fill:#93278f;}.cls-6{fill:#f7e8b2;}.cls-7{fill:#f87c79;}.cls-8{fill:#a4a4a3;}.cls-9{fill:#d0d3d0;}.cls-10{fill:#007bbf;}.cls-11{fill:#935da2;}.cls-12{fill:#d5effb;}</style></defs><title>icone-detran</title><g id="Layer_2" data-name="Layer 2"><g id="Layer_1-2" data-name="Layer 1"><g id="Page-1"><g id="_007---Car-Insurance" data-name="007---Car-Insurance"><path id="Shape" class="cls-1" d="M69.13,44.65H5.76l8.79-25A5.74,5.74,0,0,1,20,15.84H47.52Z"/><path id="Shape-2" data-name="Shape" class="cls-2" d="M38.88,15.84V21.6a1.44,1.44,0,1,1-2.88,0V15.84Z"/><path id="Shape-3" data-name="Shape" class="cls-3" d="M13.89,40.32a1.43,1.43,0,0,1-1.35-1.91L17.94,23A4.36,4.36,0,0,1,22,20.16h2.46a1.44,1.44,0,0,1,0,2.88H22a1.44,1.44,0,0,0-1.36,1L15.25,39.36A1.41,1.41,0,0,1,13.89,40.32Z"/><path id="Shape-4" data-name="Shape" class="cls-4" d="M43.2,27.36H31.68a1.44,1.44,0,0,1-1.44-1.44V23a1.45,1.45,0,0,1,1.44-1.44H43.2"/><path id="Shape-5" data-name="Shape" class="cls-2" d="M4.32,70.57h14.4V80.65a2.88,2.88,0,0,1-2.88,2.88H7.2a2.88,2.88,0,0,1-2.88-2.88Z"/><path id="Shape-6" data-name="Shape" class="cls-2" d="M56.17,70.57h14.4V80.65a2.88,2.88,0,0,1-2.88,2.88H59.05a2.87,2.87,0,0,1-2.88-2.88Z"/><path id="Shape-7" data-name="Shape" class="cls-5" d="M54.91,44.65H5.76A5.76,5.76,0,0,0,0,50.41V72a1.44,1.44,0,0,0,1.44,1.44h72A1.45,1.45,0,0,0,74.89,72V50.41a5.73,5.73,0,0,0-3.65-5.35Z"/><path id="Shape-8" data-name="Shape" class="cls-6" d="M8.64,50.41H14.4a5.76,5.76,0,0,1,5.76,5.76,2.88,2.88,0,0,1-2.88,2.88H8.64a2.88,2.88,0,0,1-2.88-2.88V53.29A2.88,2.88,0,0,1,8.64,50.41Z"/><path id="Shape-9" data-name="Shape" class="cls-6" d="M60.49,50.41h5.76a2.88,2.88,0,0,1,2.88,2.88v2.88a2.88,2.88,0,0,1-2.88,2.88H57.61a2.87,2.87,0,0,1-2.88-2.88A5.75,5.75,0,0,1,60.49,50.41Z"/><path id="Shape-10" data-name="Shape" class="cls-7" d="M8.64,67.69h2.88A1.43,1.43,0,0,1,13,69.13v4.32H7.2V69.13A1.44,1.44,0,0,1,8.64,67.69Z"/><path id="Shape-11" data-name="Shape" class="cls-7" d="M63.37,67.69h2.88a1.44,1.44,0,0,1,1.44,1.44v4.32H61.93V69.13A1.43,1.43,0,0,1,63.37,67.69Z"/><rect id="Rectangle-path" class="cls-8" x="25.92" y="59.05" width="23.04" height="8.64" rx="1.44" ry="1.44"/><rect id="Rectangle-path-2" data-name="Rectangle-path" class="cls-9" x="27.36" y="59.05" width="20.16" height="8.64" rx="1.44" ry="1.44"/><path id="Shape-12" data-name="Shape" class="cls-10" d="M63.78,50.3,78,40.21a13.2,13.2,0,0,0,5.57-10.74V9.12a.71.71,0,0,0-.43-.66L63.65.06a.71.71,0,0,0-.57,0L43.64,8.46a.71.71,0,0,0-.44.66V29.47a13.18,13.18,0,0,0,5.58,10.74L63,50.3A.71.71,0,0,0,63.78,50.3Z"/><path id="Shape-13" data-name="Shape" class="cls-11" d="M52.12,35.52A7.47,7.47,0,0,1,49,29.47v-17L63.37,6.21l14.4,6.22v17a7.49,7.49,0,0,1-3.15,6.05l-11.25,8Z"/><path id="Shape-14" data-name="Shape" class="cls-12" d="M52.12,35.52A7.47,7.47,0,0,1,49,29.47v-17L63.37,6.21l14.4,6.22v17a7.49,7.49,0,0,1-3.15,6.05l-11.25,8Z"/><path id="Shape-15" data-name="Shape" class="cls-10" d="M60.49,33.06a1.42,1.42,0,0,1-.87-.29l-5.76-4.32a1.42,1.42,0,0,1-.56-1.32A1.46,1.46,0,0,1,54.16,26a1.44,1.44,0,0,1,1.43.18l4.64,3.48L70.88,16.32a1.44,1.44,0,0,1,2.25,1.8L61.61,32.52A1.44,1.44,0,0,1,60.49,33.06Z"/></g></g></g></g></svg>