<svg xmlns="http://www.w3.org/2000/svg" viewBox="0 0 46.78 46.79"><defs><style>.cls-1{fill:#004297;}</style></defs><title>icone-menu-facebook</title><g id="Layer_2" data-name="Layer 2"><g id="Layer_1-2" data-name="Layer 1"><g id="jA3Kii"><path class="cls-1" d="M0,39.76V7.05a.7.7,0,0,0,.08-.2A8.23,8.23,0,0,1,8.16,0C18.35.06,28.53,0,38.71,0a8,8,0,0,1,8.06,8.06q0,15.33,0,30.64A7.78,7.78,0,0,1,42.27,46a15,15,0,0,1-2.53.84h-9a1.66,1.66,0,0,1,0-.22V29.49a3.33,3.33,0,0,1,0-.38h7.7V21.3H30.69c0-1.18,0-2.3,0-3.42a1.74,1.74,0,0,1,1.91-1.76H38l.46,0V8.36c-2.28,0-4.53,0-6.78,0a5.35,5.35,0,0,0-1.53.27c-3.43,1.1-5.38,3.59-6.36,7a13.59,13.59,0,0,0-.36,4.07v1.67H17.71a2.55,2.55,0,0,0,0,.34q0,3.54,0,7.08c0,.31.11.39.4.38h5.33V46.79H7a1.18,1.18,0,0,0-.2-.07,7.93,7.93,0,0,1-6-4.47A17.28,17.28,0,0,1,0,39.76Z"/></g></g></g></svg>