<svg xmlns="http://www.w3.org/2000/svg" viewBox="0 0 103.86 94.13"><defs><style>.cls-1{fill:#0035a9;}</style></defs><title>icone-chatbot</title><g id="Layer_2" data-name="Layer 2"><g id="Layer_1-2" data-name="Layer 1"><g id="HHeTxI"><path class="cls-1" d="M13.67,50.57a47.84,47.84,0,0,1,.62-13,36.9,36.9,0,0,1,5.63-14A34.56,34.56,0,0,1,35.08,11.14,42.11,42.11,0,0,1,49.94,7.72,38.9,38.9,0,0,1,75,14.81,37.07,37.07,0,0,1,90.41,37.87c.26,1.18.39,2.38.58,3.57,0,.29.05.58.08,1-.62-.11-1.2-.19-1.78-.3a40.71,40.71,0,0,1-12.65-4.55,19.31,19.31,0,0,1-5.31-4.33,10.59,10.59,0,0,1-2.07-10.49.94.94,0,0,0,0-.45l-.4.44A72.09,72.09,0,0,1,54.12,35.25,51.34,51.34,0,0,1,33.78,42.6c-3.22.45-6.46.76-9.69,1.15a22.64,22.64,0,0,0-5,1.09,8.32,8.32,0,0,0-5.26,5.32Z"/><path class="cls-1" d="M90.91,62.67c.46-1.35.94-2.65,1.34-4A42.09,42.09,0,0,0,79.69,14.94,41.39,41.39,0,0,0,58.26,5a42.12,42.12,0,1,0-12.4,83.32.93.93,0,0,0,.89-.26,3.49,3.49,0,0,1,4.83,5,3.5,3.5,0,0,1-4.88.16,1.45,1.45,0,0,0-.75-.35A46.72,46.72,0,0,1,8.34,63.21a1,1,0,0,0-.72-.69A8.67,8.67,0,0,1,3.17,59,17.52,17.52,0,0,1,.26,51.25a22.09,22.09,0,0,1,1.3-11.68,12.3,12.3,0,0,1,3.33-4.89,13.61,13.61,0,0,1,2-1.34.93.93,0,0,0,.48-.57,45.68,45.68,0,0,1,9.92-17.39A45.14,45.14,0,0,1,44.23.65C59-1.66,72.12,2.2,83.31,12.17A45.24,45.24,0,0,1,96.48,32.89a1.11,1.11,0,0,0,.63.74,10.18,10.18,0,0,1,4.53,4.73,20.36,20.36,0,0,1,2.17,11,17.39,17.39,0,0,1-3,9.07,9.74,9.74,0,0,1-9.59,4.28Z"/><path class="cls-1" d="M74.2,52.63a7.63,7.63,0,0,1-15.15,1.44,7.87,7.87,0,0,1,5.48-9,7.64,7.64,0,0,1,9.55,6.3C74.14,51.79,74.16,52.21,74.2,52.63Z"/><path class="cls-1" d="M44.48,52.66A7.62,7.62,0,0,1,29.32,54a7.87,7.87,0,0,1,5.47-8.93,7.63,7.63,0,0,1,9.55,6.2C44.41,51.73,44.44,52.2,44.48,52.66Z"/><path class="cls-1" d="M41.57,72.2A24.25,24.25,0,0,0,62.9,72a4.23,4.23,0,0,1,.32,2.88,7.59,7.59,0,0,1-3.48,4.77,13.08,13.08,0,0,1-9.36,1.88A12.21,12.21,0,0,1,43.18,78a6.31,6.31,0,0,1-2-3.93A3,3,0,0,1,41.57,72.2Z"/></g></g></g></svg>