<svg xmlns="http://www.w3.org/2000/svg" viewBox="0 0 81.53 81.53"><defs><style>.cls-1{fill:#f24976;}.cls-2{fill:#eef6ff;}.cls-3{fill:#c3ddf4;}.cls-4{fill:#293d7c;}.cls-5{fill:#1a2b63;}.cls-6{fill:#69cdff;}.cls-7{fill:#52bbef;}.cls-8{fill:#ff9518;}.cls-9{fill:#ef8318;}.cls-10{fill:#ffd00d;}.cls-11{fill:#91e0e8;}.cls-12{fill:#e26693;}.cls-13{fill:#ffaf10;}.cls-14{fill:#37c47a;}.cls-15{fill:#445ea0;}.cls-16{fill:#d9eafc;}</style></defs><title>icone-consultas</title><g id="Layer_2" data-name="Layer 2"><g id="Layer_1-2" data-name="Layer 1"><circle class="cls-1" cx="42.52" cy="42.52" r="39.01"/><path class="cls-2" d="M38.48,38.48A16,16,0,0,1,57.89,36V8.56H0V59a1.6,1.6,0,0,0,1.59,1.6H38.07A16,16,0,0,1,38.48,38.48Z"/><path class="cls-3" d="M3.61,59V8.56H0V59a1.6,1.6,0,0,0,1.59,1.6H5.2A1.6,1.6,0,0,1,3.61,59Z"/><path class="cls-4" d="M57,0H.91A.91.91,0,0,0,0,.91V9H57.89V.91A.91.91,0,0,0,57,0Z"/><path class="cls-5" d="M4.52,0H.91A.91.91,0,0,0,0,.91V9H3.61V.91A.91.91,0,0,1,4.52,0Z"/><path class="cls-6" d="M25.2,28.44a.8.8,0,0,1-.8.8H6.66a.8.8,0,0,1-.8-.8V15.72a.8.8,0,0,1,.8-.8H24.4a.8.8,0,0,1,.8.8V28.44Z"/><path class="cls-7" d="M9.47,28.44V15.72a.8.8,0,0,1,.8-.8H6.66a.8.8,0,0,0-.8.8V28.44a.8.8,0,0,0,.8.8h3.61A.8.8,0,0,1,9.47,28.44Z"/><path class="cls-8" d="M34.58,44.87H6.66a.8.8,0,0,0-.8.8v7.61a.8.8,0,0,0,.8.8H34.4A16,16,0,0,1,34.58,44.87Z"/><path class="cls-9" d="M9.47,53.28V45.67a.8.8,0,0,1,.8-.8H6.66a.8.8,0,0,0-.8.8v7.61a.8.8,0,0,0,.8.8h3.61A.8.8,0,0,1,9.47,53.28Z"/><path class="cls-10" d="M34.58,44.87H28.8v9.21h5.6A16,16,0,0,1,34.58,44.87Z"/><path class="cls-11" d="M51.08,16.11H31.55a1.19,1.19,0,0,1,0-2.38H51.08a1.19,1.19,0,1,1,0,2.38Z"/><path class="cls-11" d="M51.08,20.89H31.55a1.2,1.2,0,0,1,0-2.39H51.08a1.2,1.2,0,0,1,0,2.39Z"/><path class="cls-11" d="M51.08,25.66H31.55a1.2,1.2,0,0,1,0-2.39H51.08a1.2,1.2,0,0,1,0,2.39Z"/><path class="cls-11" d="M51.08,30.43H31.55a1.2,1.2,0,0,1,0-2.39H51.08a1.2,1.2,0,0,1,0,2.39Z"/><path class="cls-11" d="M47.68,33.94H5.86a1.2,1.2,0,0,0,0,2.39H41.14A15.81,15.81,0,0,1,47.68,33.94Z"/><path class="cls-11" d="M38.17,38.8H5.86a1.2,1.2,0,0,0,0,2.39H36.31A15.53,15.53,0,0,1,38.17,38.8Z"/><path class="cls-12" d="M5.56,5.51a1.2,1.2,0,0,1-1.2-1.19,1.23,1.23,0,0,1,.35-.85,1.2,1.2,0,0,1,1.69,0,1.23,1.23,0,0,1,.35.85A1.2,1.2,0,0,1,5.56,5.51Z"/><path class="cls-13" d="M9.47,5.51A1.2,1.2,0,0,1,8.28,4.32a1.23,1.23,0,0,1,.35-.85,1.2,1.2,0,0,1,1.69,0,1.23,1.23,0,0,1,.35.85,1.2,1.2,0,0,1-1.2,1.19Z"/><path class="cls-14" d="M13.39,5.51a1.21,1.21,0,0,1-.84-.35,1.16,1.16,0,0,1-.35-.84,1.19,1.19,0,0,1,.35-.85,1.2,1.2,0,0,1,2,.85,1.17,1.17,0,0,1-.36.84A1.21,1.21,0,0,1,13.39,5.51Z"/><path class="cls-15" d="M65.25,62,62,65.25l6.44,6.44a40.48,40.48,0,0,0,3.27-3.28Z"/><path class="cls-4" d="M66.55,60l-2.71-2.71a16,16,0,0,1-6.55,6.55L60,66.55a.8.8,0,0,0,1.13,0l5.42-5.42A.8.8,0,0,0,66.55,60Z"/><path class="cls-5" d="M61.86,64.69l-2.32-2.32a15,15,0,0,1-2.25,1.47L60,66.55a.8.8,0,0,0,1.13,0L63,64.69A.8.8,0,0,1,61.86,64.69Z"/><path class="cls-15" d="M61.27,38.25a16.27,16.27,0,1,1-23,0A16.27,16.27,0,0,1,61.27,38.25Z"/><path class="cls-6" d="M57.83,57.83a11.41,11.41,0,1,1,0-16.14A11.41,11.41,0,0,1,57.83,57.83Z"/><path class="cls-7" d="M57.83,57.83a10.28,10.28,0,0,0,1.11-1.28,11.41,11.41,0,0,1-16-16,12.11,12.11,0,0,0-1.29,1.1A11.41,11.41,0,0,0,57.83,57.83Z"/><path class="cls-15" d="M57,0H18.46V9H57.89V.91A.91.91,0,0,0,57,0Z"/><circle class="cls-16" cx="51.72" cy="42.12" r="1.91"/><circle class="cls-16" cx="55.74" cy="44.11" r="1.35"/></g></g></svg>