<svg xmlns="http://www.w3.org/2000/svg" viewBox="0 0 121.41 121.41"><defs><style>.cls-1{fill:#6584cc;}.cls-2{fill:#004297;}</style></defs><title>icone-chatbot-microfone-inativo</title><g id="Layer_2" data-name="Layer 2"><g id="Layer_1-2" data-name="Layer 1"><circle class="cls-1" cx="60.71" cy="60.71" r="60.71"/><g id="XeAEK5"><path class="cls-2" d="M62.07,32.23c2.73.62,5.23,1.62,7.05,3.91a10.89,10.89,0,0,1,2.44,6.94q0,10.86,0,21.74a10.88,10.88,0,1,1-21.75,0c0-7.09,0-14.19,0-21.28,0-5.94,3.25-9.88,9.09-11.12a2.5,2.5,0,0,0,.41-.19Z"/><path class="cls-2" d="M57.16,101.19c0-3.52-.07-7,0-10.57,0-1-.22-1.5-1.34-1.7A25.27,25.27,0,0,1,35.47,67.57a19.16,19.16,0,0,1,0-2.52H41.4a18,18,0,0,0,8.32,15.08,19.95,19.95,0,0,0,25-2.51A17.85,17.85,0,0,0,79.94,65h6a18.67,18.67,0,0,1-1.62,8.58c-3.58,8.25-9.9,13.27-18.62,15.27-1.11.26-1.52.56-1.49,1.73.07,3.52,0,7,0,10.57Z"/></g></g></g></svg>