<svg xmlns="http://www.w3.org/2000/svg" viewBox="0 0 52.42 38.44"><defs><style>.cls-1{fill:#004297;fill-rule:evenodd;}</style></defs><title>icone-menu-youtube</title><g id="Layer_2" data-name="Layer 2"><g id="Layer_1-2" data-name="Layer 1"><path class="cls-1" d="M51.9,8.3s-.53-3.78-2.1-5.43A7.47,7.47,0,0,0,44.58.54C37.25,0,26.25,0,26.25,0h-.06S15.23,0,7.9.54A7.47,7.47,0,0,0,2.64,2.87C1.08,4.52.54,8.3.54,8.3A83.54,83.54,0,0,0,0,17.1v4.18a82.36,82.36,0,0,0,.54,8.81s.54,3.77,2.1,5.45c2,2.19,4.61,2.1,5.8,2.33,4.18.43,17.81.57,17.81.57s11-.06,18.33-.57a7.34,7.34,0,0,0,5.22-2.33c1.57-1.68,2.1-5.45,2.1-5.45a85.48,85.48,0,0,0,.52-8.81V17.1a86.71,86.71,0,0,0-.52-8.8ZM35,18.64,20.8,26.28V10.94l6.42,3.49Z"/></g></g></svg>