<svg xmlns="http://www.w3.org/2000/svg" viewBox="0 0 40.34 49.65"><defs><style>.cls-1{fill:#004297;}</style></defs><title>icone-menu-desenvolvedores</title><g id="Layer_2" data-name="Layer 2"><g id="Layer_1-2" data-name="Layer 1"><path class="cls-1" d="M33.61,20.17c0,6.72-6.72,13.34-6.72,20.17H13.45c0-6.62-6.73-13.45-6.73-20.17a13.45,13.45,0,1,1,26.89,0Zm-8.4,22.75H15.13a1.69,1.69,0,0,0,0,3.37h.31a5,5,0,0,0,9.46,0h.31a1.69,1.69,0,0,0,0-3.37ZM1.86,11.54l3,1.74a16.15,16.15,0,0,1,1.69-2.9l-3-1.75Zm20-8V0H18.49V3.53a15.41,15.41,0,0,1,1.68-.17A15.41,15.41,0,0,1,21.85,3.53ZM13.28,4.88l-1.74-3L8.63,3.54l1.75,3A16.15,16.15,0,0,1,13.28,4.88Zm25.2,6.66L36.8,8.63l-3,1.75a16.15,16.15,0,0,1,1.69,2.9Zm-6.77-8L28.8,1.86l-1.74,3A15.81,15.81,0,0,1,30,6.57ZM3.36,20.17a15.41,15.41,0,0,1,.17-1.68H0v3.36H3.54A13.48,13.48,0,0,1,3.36,20.17Zm33.45-1.68c0,.56.17,1.1.17,1.68a15.68,15.68,0,0,1-.18,1.68h3.54V18.49ZM34.05,30.12l2.75,1.59,1.68-2.91L35.42,27C35,28.08,34.54,29.1,34.05,30.12ZM1.86,28.8l1.68,2.91,2.73-1.57c-.49-1-.95-2.05-1.37-3.1Z"/></g></g></svg>