<svg xmlns="http://www.w3.org/2000/svg" viewBox="0 0 86.73 77.92"><defs><style>.cls-1{fill:#fd4848;}.cls-2{fill:#73ca5b;}.cls-3{fill:#a6f074;}</style></defs><title>icone-rede-wifi</title><g id="Layer_2" data-name="Layer 2"><g id="Layer_1-2" data-name="Layer 1"><path class="cls-1" d="M48.87,41h-42a2.71,2.71,0,0,0,0,5.42h42a2.71,2.71,0,0,0,0-5.42Z"/><path class="cls-1" d="M48.87,53.7h-42a2.72,2.72,0,0,0-2.71,2.71v2.71H51.58V56.41A2.72,2.72,0,0,0,48.87,53.7Z"/><path class="cls-2" d="M82.32,70.8H4.4a2.72,2.72,0,0,0-2.71,2.71v2.71H85V73.51A2.72,2.72,0,0,0,82.32,70.8Z"/><path class="cls-3" d="M75.8,50.48A6.78,6.78,0,1,1,69,43.7,6.77,6.77,0,0,1,75.8,50.48Z"/><path class="cls-3" d="M82.58,18.63A16.94,16.94,0,1,1,65.64,1.69,16.94,16.94,0,0,1,82.58,18.63Z"/><path d="M29,25.19a2.25,2.25,0,1,0,0,3.18A2.25,2.25,0,0,0,29,25.19Z"/><path d="M16.23,15.65a15.76,15.76,0,0,1,22.27,0,2.25,2.25,0,1,0,3.18-3.18,20.26,20.26,0,0,0-28.63,0,2.25,2.25,0,0,0,3.18,3.18Z"/><path d="M33.73,22.67a2.25,2.25,0,0,0,1.59-3.84,11.26,11.26,0,0,0-15.91,0A2.25,2.25,0,1,0,22.59,22a6.77,6.77,0,0,1,9.55,0A2.23,2.23,0,0,0,33.73,22.67Z"/><path d="M4.73,42.69h0a1.7,1.7,0,0,0,0-3.39h0a1.7,1.7,0,0,0,0,3.39Z"/><path d="M43.34,69.11a1.7,1.7,0,0,0,0,3.39h0a1.7,1.7,0,0,0,0-3.39Z"/><path d="M82.32,69.11H80.45a1.7,1.7,0,0,0,0,3.39h1.87a1,1,0,0,1,1,1v1H3.39v-1a1,1,0,0,1,1-1H68.77a1.7,1.7,0,0,0,0-3.39H67.33V58.78A8.67,8.67,0,0,0,69,59,8.47,8.47,0,0,0,69,42a8.67,8.67,0,0,0-1.7.17v-5a18.63,18.63,0,1,0-3.38,0v6.52a8.46,8.46,0,0,0,0,13.54V69.11H48.19v-8.3h3.39a1.69,1.69,0,0,0,1.69-1.69V56.41A4.42,4.42,0,0,0,48.87,52h-.68V48.11h.68a4.41,4.41,0,0,0,0-8.81H20.41a1.7,1.7,0,1,0,0,3.39H48.87a1,1,0,0,1,0,2h-42a1,1,0,1,1,0-2H8.73a1.7,1.7,0,0,0,0-3.39H6.86a4.41,4.41,0,1,0,0,8.81h.68V52H6.86a4.42,4.42,0,0,0-4.41,4.41v2.71a1.7,1.7,0,0,0,1.7,1.69H7.54v8.3H4.4A4.41,4.41,0,0,0,0,73.51v2.71a1.7,1.7,0,0,0,1.69,1.7H85a1.7,1.7,0,0,0,1.7-1.7V73.51A4.42,4.42,0,0,0,82.32,69.11ZM50.4,18.63A15.24,15.24,0,1,1,67.33,33.78V30.07l4.43-4.43a1.69,1.69,0,0,0-2.39-2.39l-2,2V18.63a1.69,1.69,0,1,0-3.38,0V33.78A15.25,15.25,0,0,1,50.4,18.63ZM74.11,50.48A5.08,5.08,0,1,1,69,45.4,5.09,5.09,0,0,1,74.11,50.48ZM10.92,48.11H44.8V52H10.92Zm-5.08,8.3a1,1,0,0,1,1-1h42a1,1,0,0,1,1,1v1h-44Zm5.08,4.4H44.8v8.3H10.92Z"/></g></g></svg>