<svg xmlns="http://www.w3.org/2000/svg" viewBox="0 0 84 84"><defs><style>.cls-1{fill:#5ddef5;}.cls-2{fill:#fff;}.cls-3{fill:#afabb0;}.cls-4{fill:#fed2a4;}.cls-5{fill:#ffbe52;}.cls-6{fill:#93e7f8;}.cls-7{fill:#c7c4c8;}.cls-8{fill:#e8e7e9;}</style></defs><title>icone-servidor-publico</title><g id="Layer_2" data-name="Layer 2"><g id="Layer_1-2" data-name="Layer 1"><g id="_Group_" data-name="&lt;Group&gt;"><g id="_Group_2" data-name="&lt;Group&gt;"><path id="_Path_" data-name="&lt;Path&gt;" class="cls-1" d="M48.54,48.24V50.3L40,52.18A8,8,0,0,0,33.66,60V75.8H72.38V60a8,8,0,0,0-6.32-7.85L57.45,50.3V48.23"/><polygon id="_Path_2" data-name="&lt;Path&gt;" class="cls-2" points="57.45 50.3 53 62.2 48.54 50.3 57.45 50.3"/><path id="_Path_3" data-name="&lt;Path&gt;" class="cls-3" d="M53,24.11h0a9.43,9.43,0,0,0-9.43,9.43v2.27H48.2a10.35,10.35,0,0,0,7.94-3.71h0l6.31,3.71V33.54A9.43,9.43,0,0,0,53,24.11Z"/><path id="_Path_4" data-name="&lt;Path&gt;" class="cls-4" d="M54.11,34a10.31,10.31,0,0,1-5.91,1.86H43.59v4A9.43,9.43,0,0,0,53,49.24h0a9.43,9.43,0,0,0,9.43-9.43v-4L59.3,34,56.14,32.1Z"/></g><rect id="_Path_5" data-name="&lt;Path&gt;" class="cls-5" x="1.64" y="75.8" width="80.72" height="6.56"/><circle id="_Path_6" data-name="&lt;Path&gt;" class="cls-6" cx="15.18" cy="15.18" r="13.54"/><rect id="_Path_7" data-name="&lt;Path&gt;" class="cls-7" x="1.64" y="37.24" width="35.44" height="26.25"/><path id="_Path_8" data-name="&lt;Path&gt;" class="cls-1" d="M22.64,69.89H16.08V53.65a3.28,3.28,0,0,1,3.28-3.28h0a3.28,3.28,0,0,1,3.28,3.28Z"/><path id="_Path_9" data-name="&lt;Path&gt;" class="cls-1" d="M27.89,75.8H10.83V73.34a3.44,3.44,0,0,1,3.44-3.45H24.45a3.44,3.44,0,0,1,3.44,3.45Z"/><rect id="_Path_10" data-name="&lt;Path&gt;" class="cls-2" x="61.36" y="69.23" width="21" height="6.56"/><rect id="_Path_11" data-name="&lt;Path&gt;" class="cls-8" x="61.36" y="62.67" width="21" height="6.56"/><rect id="_Path_12" data-name="&lt;Path&gt;" class="cls-2" x="61.36" y="56.11" width="21" height="6.56"/><g id="_Group_3" data-name="&lt;Group&gt;"><path id="_Compound_Path_" data-name="&lt;Compound Path&gt;" d="M15.18,30.37A15.19,15.19,0,1,0,0,15.18,15.2,15.2,0,0,0,15.18,30.37Zm0-27.09a11.91,11.91,0,1,1-11.9,11.9A11.92,11.92,0,0,1,15.18,3.28Z"/><path id="_Path_13" data-name="&lt;Path&gt;" d="M16.49,18.79a1.64,1.64,0,0,0,2.32-2.32l-2-2V7.22a1.64,1.64,0,1,0-3.28,0v8A1.66,1.66,0,0,0,14,16.35Z"/><path id="_Compound_Path_2" data-name="&lt;Compound Path&gt;" d="M82.36,54.47H72.26a9.66,9.66,0,0,0-5.85-3.89L59.2,49a11.08,11.08,0,0,0,4.89-9.19V33.54a11.07,11.07,0,1,0-22.14,0v6.27A11.06,11.06,0,0,0,46.84,49l-7.21,1.58a9.41,9.41,0,0,0-.91.25V37.24a1.65,1.65,0,0,0-1.64-1.64H25.92a1.64,1.64,0,0,0,0,3.28h9.52v23H24.28v-8.2a4.92,4.92,0,0,0-9.84,0v8.2H3.28v-23H12.8a1.64,1.64,0,0,0,0-3.28H1.64A1.64,1.64,0,0,0,0,37.24V63.49a1.63,1.63,0,0,0,1.64,1.64h12.8v3.12h-.17a5.09,5.09,0,0,0-5.08,5.09v.82H1.64A1.63,1.63,0,0,0,0,75.8v6.56A1.63,1.63,0,0,0,1.64,84H82.36A1.63,1.63,0,0,0,84,82.36V56.11A1.63,1.63,0,0,0,82.36,54.47Zm-10,19.69H63V70.87H80.72v3.29Zm8.34-6.57H63V64.31H80.72Zm0-6.56H63V57.75H80.72ZM45.23,33.54a7.79,7.79,0,0,1,15.56-.61L57,30.69a1.62,1.62,0,0,0-2.08.36,8.73,8.73,0,0,1-6.69,3.12h-3v-.63Zm0,3.91h3a12,12,0,0,0,8.24-3.27l4.37,2.57v3.06a7.79,7.79,0,1,1-15.58,0V37.45ZM55.59,50.58,53,57.52l-2.6-7a11.32,11.32,0,0,0,2.62.32A10.83,10.83,0,0,0,55.59,50.58ZM37.08,65.13a1.64,1.64,0,0,0,1.64-1.64V54.37a6,6,0,0,1,1.61-.59l7.18-1.58,4,10.58a1.64,1.64,0,0,0,3.07,0l4-10.58,7.22,1.58a6.39,6.39,0,0,1,1.79.69H61.36a1.63,1.63,0,0,0-1.64,1.64v18H35.3v-9Zm-5.06,0v9H29.53v-.82a5.09,5.09,0,0,0-5.08-5.09h-.17V65.13ZM17.72,53.65a1.64,1.64,0,1,1,3.28,0v14.6H17.72ZM12.47,73.34a1.81,1.81,0,0,1,1.8-1.81H24.45a1.81,1.81,0,0,1,1.8,1.81v.82H12.47Zm68.25,7.38H3.28V77.44H80.72Z"/><path id="_Path_14" data-name="&lt;Path&gt;" d="M18.2,36.08a1.64,1.64,0,0,0-.48,1.16,1.64,1.64,0,0,0,1.64,1.64,1.64,1.64,0,0,0,1.16-.48A1.67,1.67,0,0,0,21,37.24a1.64,1.64,0,0,0-1.64-1.64A1.67,1.67,0,0,0,18.2,36.08Z"/></g></g></g></g></svg>