<svg xmlns="http://www.w3.org/2000/svg" viewBox="0 0 45.98 58.02"><defs><style>.cls-1{fill:#004297;}</style></defs><title>icone-notificacao-vazio</title><g id="Layer_2" data-name="Layer 2"><g id="Layer_1-2" data-name="Layer 1"><path class="cls-1" d="M23,43.53c6.62,0,13.25,0,19.88,0A2.26,2.26,0,0,1,45,44.62c1.32,2,1.07,4.24.89,6.42-.07.89-1,1-1.75,1-4.25,0-8.51,0-12.76,0-.82,0-1.27.12-1.56,1a7.18,7.18,0,0,1-13.63.08A1.41,1.41,0,0,0,14.49,52C10.31,52,6.14,52,2,52c-1.7,0-2-.29-2-2a26.7,26.7,0,0,1,.6-4.81c.28-1.18,1.17-1.72,2.58-1.7C9.78,43.57,16.36,43.53,23,43.53Z"/><path class="cls-1" d="M41.14,33.19c0-3.06.11-6.14-.12-9.19A17.62,17.62,0,0,0,28.73,8.26l-1.66-.7a4.94,4.94,0,0,0,.4-4.41,4.52,4.52,0,0,0-1.45-2,5,5,0,0,0-.95-.59A4.25,4.25,0,0,0,23.28,0h-.63a4.2,4.2,0,0,0-1.78.52,4.44,4.44,0,0,0-.95.59,4.47,4.47,0,0,0-1.46,2,4.91,4.91,0,0,0,.41,4.41l-1.67.7A17.62,17.62,0,0,0,4.91,24c-.22,3.05-.09,6.13-.12,9.19h-.1V41H41.24V33.19Z"/></g></g></svg>