<svg xmlns="http://www.w3.org/2000/svg" viewBox="0 0 77.69 74.66"><defs><style>.cls-1{fill:#005bab;}.cls-2{fill:#ff4600;}.cls-3{fill:#fff;}.cls-4{fill:#999;}.cls-5{fill:#ff0083;}.cls-6{fill:#00acf1;}</style></defs><title>icone-agendamento</title><g id="Layer_2" data-name="Layer 2"><g id="Layer_1-2" data-name="Layer 1"><path class="cls-1" d="M0,18.82V68.59a6.07,6.07,0,0,0,6.07,6.07H71.62a6.07,6.07,0,0,0,6.07-6.07V18.82Z"/><path class="cls-2" d="M71.62,1.82H6.07A6.07,6.07,0,0,0,0,7.89V18.82H77.69V7.89A6.07,6.07,0,0,0,71.62,1.82ZM9.71,14a3.64,3.64,0,1,1,3.64-3.64A3.64,3.64,0,0,1,9.71,14ZM68,14a3.64,3.64,0,1,1,3.64-3.64A3.64,3.64,0,0,1,68,14Z"/><path class="cls-3" d="M38.85,29.74A4.86,4.86,0,1,0,43.7,34.6,4.87,4.87,0,0,0,38.85,29.74Z"/><path class="cls-3" d="M26.71,29.74a4.86,4.86,0,1,0,4.85,4.86A4.87,4.87,0,0,0,26.71,29.74Z"/><path class="cls-3" d="M14.57,29.74a4.86,4.86,0,1,0,4.85,4.86A4.87,4.87,0,0,0,14.57,29.74Z"/><path class="cls-3" d="M51,29.74a4.86,4.86,0,1,0,4.85,4.86A4.87,4.87,0,0,0,51,29.74Z"/><path class="cls-3" d="M63.13,39.45a4.86,4.86,0,1,0-4.86-4.85A4.85,4.85,0,0,0,63.13,39.45Z"/><path class="cls-3" d="M38.85,41.88a4.86,4.86,0,1,0,4.85,4.86A4.87,4.87,0,0,0,38.85,41.88Z"/><path class="cls-3" d="M26.71,41.88a4.86,4.86,0,1,0,4.85,4.86A4.87,4.87,0,0,0,26.71,41.88Z"/><path class="cls-3" d="M14.57,41.88a4.86,4.86,0,1,0,4.85,4.86A4.87,4.87,0,0,0,14.57,41.88Z"/><path class="cls-3" d="M51,41.88a4.86,4.86,0,1,0,4.85,4.86A4.87,4.87,0,0,0,51,41.88Z"/><path class="cls-3" d="M63.13,41.88A4.86,4.86,0,1,0,68,46.74,4.87,4.87,0,0,0,63.13,41.88Z"/><path class="cls-3" d="M38.85,54a4.86,4.86,0,1,0,4.85,4.86A4.87,4.87,0,0,0,38.85,54Z"/><path class="cls-3" d="M26.71,54a4.86,4.86,0,1,0,4.85,4.86A4.87,4.87,0,0,0,26.71,54Z"/><path class="cls-3" d="M14.57,54a4.86,4.86,0,1,0,4.85,4.86A4.87,4.87,0,0,0,14.57,54Z"/><path class="cls-3" d="M51,54a4.86,4.86,0,1,0,4.85,4.86A4.87,4.87,0,0,0,51,54Z"/><path class="cls-3" d="M63.13,54A4.86,4.86,0,1,0,68,58.88,4.87,4.87,0,0,0,63.13,54Z"/><path class="cls-4" d="M9.71,12.14a1.83,1.83,0,0,1-1.82-1.82V1.82a1.82,1.82,0,0,1,3.64,0v8.5A1.82,1.82,0,0,1,9.71,12.14Z"/><path class="cls-4" d="M68,12.14a1.83,1.83,0,0,1-1.82-1.82V1.82a1.82,1.82,0,1,1,3.64,0v8.5A1.82,1.82,0,0,1,68,12.14Z"/><circle class="cls-5" cx="14.57" cy="34.6" r="4.86"/><circle class="cls-5" cx="38.85" cy="58.88" r="4.86"/><circle class="cls-6" cx="50.99" cy="46.74" r="4.86"/></g></g></svg>