<svg xmlns="http://www.w3.org/2000/svg" viewBox="0 0 46.72 46.72"><defs><style>.cls-1{fill:#004297;}</style></defs><title>icone-menu-instagram</title><g id="Layer_2" data-name="Layer 2"><g id="Layer_1-2" data-name="Layer 1"><g id="VptyEU"><path class="cls-1" d="M46.71,23.4c0,3.48,0,7,0,10.42A12.59,12.59,0,0,1,33.84,46.71H12.91A12.59,12.59,0,0,1,0,33.78V12.93A12.6,12.6,0,0,1,12.92,0H33.76a12.6,12.6,0,0,1,13,13C46.72,16.45,46.71,19.93,46.71,23.4ZM23.33,9.31A14.05,14.05,0,1,0,37.41,23.36,14.11,14.11,0,0,0,23.33,9.31ZM35.3,8a3.47,3.47,0,1,0,3.44-3.46A3.45,3.45,0,0,0,35.3,8Z"/><path class="cls-1" d="M32.51,23.41a9.15,9.15,0,1,1-9.09-9.2A9.17,9.17,0,0,1,32.51,23.41Z"/></g></g></g></svg>