<svg xmlns="http://www.w3.org/2000/svg" viewBox="0 0 53.59 40.75"><defs><style>.cls-1{fill:#00aaef;}</style></defs><title>icone-voltar</title><g id="Layer_2" data-name="Layer 2"><g id="Layer_1-2" data-name="Layer 1"><g id="N0npW9"><path class="cls-1" d="M16.8,15.49H48.47a4.88,4.88,0,1,1,.24,9.76q-9.33,0-18.66,0H16.68c.21.23.34.38.48.52,2.24,2.24,4.49,4.45,6.7,6.71a4.85,4.85,0,0,1-2.09,8.05A4.68,4.68,0,0,1,17,39.32c-1.51-1.47-3-3-4.49-4.47L1.65,24a4.88,4.88,0,0,1,0-7.31Q9.28,9.09,16.9,1.47A4.85,4.85,0,0,1,25.09,3.7a4.63,4.63,0,0,1-1.3,4.64c-2.18,2.2-4.38,4.39-6.57,6.58a4.87,4.87,0,0,1-.5.4Z" transform="translate(0 0)"/></g></g></g></svg>