<svg xmlns="http://www.w3.org/2000/svg" viewBox="0 0 52.76 47.55"><defs><style>.cls-1{fill:#004297;}</style></defs><title>icone-menu</title><g id="Layer_2" data-name="Layer 2"><g id="Layer_1-2" data-name="Layer 1"><circle class="cls-1" cx="5.49" cy="5.49" r="5.49"/><path class="cls-1" d="M50.09,9.14H5.21V1.83H50.09a2.67,2.67,0,0,1,2.67,2.66v2A2.67,2.67,0,0,1,50.09,9.14Z"/><circle class="cls-1" cx="5.49" cy="23.77" r="5.49"/><path class="cls-1" d="M46.44,27.43H5.21V20.12H46.44a2.66,2.66,0,0,1,2.66,2.66v2A2.66,2.66,0,0,1,46.44,27.43Z"/><circle class="cls-1" cx="5.49" cy="42.06" r="5.49"/><path class="cls-1" d="M42.78,45.72H5.21V38.4H42.78a2.67,2.67,0,0,1,2.66,2.67v2A2.67,2.67,0,0,1,42.78,45.72Z"/></g></g></svg>