<svg xmlns="http://www.w3.org/2000/svg" viewBox="0 0 58.65 52.19"><defs><style>.cls-1{fill:#6584cc;}</style></defs><title>icone-reordenar-escuro</title><g id="Layer_2" data-name="Layer 2"><g id="Layer_1-2" data-name="Layer 1"><path class="cls-1" d="M58.65,26.09a3.23,3.23,0,0,0-1.8-2.9L52.48,21l4.37-2.18h0a3.25,3.25,0,0,0,0-5.82L32.2.67a6.53,6.53,0,0,0-5.75,0L1.8,13a3.25,3.25,0,0,0,0,5.82L6.16,21,1.8,23.19A3.24,3.24,0,0,0,1.8,29l4.36,2.19L1.8,33.37a3.25,3.25,0,0,0,0,5.82L26.45,51.52a6.57,6.57,0,0,0,2.87.67,6.45,6.45,0,0,0,2.88-.68L56.85,39.19a3.25,3.25,0,0,0,0-5.82l-4.37-2.18L56.85,29A3.23,3.23,0,0,0,58.65,26.09ZM3,16.41a.57.57,0,0,1,0-1L27.65,3.09a3.8,3.8,0,0,1,1.67-.4,3.73,3.73,0,0,1,1.67.4L55.64,15.41a.56.56,0,0,1,0,1L31,28.73a3.75,3.75,0,0,1-3.33,0ZM55.65,35.78a.55.55,0,0,1,.3.5.54.54,0,0,1-.31.5L31,49.1a3.69,3.69,0,0,1-3.33,0L3,36.78a.57.57,0,0,1,0-1l6.18-3.09,17.27,8.64a6.5,6.5,0,0,0,5.75,0l17.27-8.64Zm0-9.19L31,38.92a3.75,3.75,0,0,1-3.33,0L3,26.59a.56.56,0,0,1,0-1l6.18-3.09,17.27,8.63a6.42,6.42,0,0,0,5.75,0l17.27-8.63,6.17,3.09a.55.55,0,0,1,0,1Z"/></g></g></svg>