<svg xmlns="http://www.w3.org/2000/svg" viewBox="0 0 92.23 97.17"><defs><style>.cls-1,.cls-12{fill:#fff;}.cls-1,.cls-10,.cls-11,.cls-13,.cls-14,.cls-2,.cls-3,.cls-4,.cls-6,.cls-7,.cls-8{fill-rule:evenodd;}.cls-2{fill:#00a551;}.cls-3,.cls-5{fill:#231f20;}.cls-4{fill:#ec1c24;}.cls-6{fill:#f5accc;}.cls-7{fill:#006eb6;}.cls-8,.cls-9{fill:#2e3191;}.cls-10{fill:#e1f3fc;}.cls-11{fill:#c6e9fa;}.cls-13{fill:#f8a770;}.cls-14{fill:#a5cd39;}</style></defs><title>icone-governo-es</title><g id="Layer_2" data-name="Layer 2"><g id="Layer_1-2" data-name="Layer 1"><path class="cls-1" d="M48.64,62a19,19,0,1,1,19-18.94A19,19,0,0,1,48.64,62"/><path class="cls-2" d="M72,22.94c.22,3.93,1.17,3,1.39,5s6.31,3.72,6.31,3.22c0-4.49-.17-4.55-2-6.15s-5.71-2-5.71-2"/><path class="cls-3" d="M71.82,22.94c.13,2.39.53,3,.88,3.57a2.79,2.79,0,0,1,.5,1.43c.17,1.89,5.22,3.48,6.29,3.43.29,0,.33-.15.33-.23,0-4.52-.2-4.65-2-6.23S72.15,22.8,72,22.78l-.18,0ZM75,29.54c-1-.56-1.49-1.13-1.53-1.63A3.08,3.08,0,0,0,73,26.35a5.88,5.88,0,0,1-.82-3.24c.79.12,3.89.63,5.44,2,1.82,1.6,1.88,1.66,1.94,6A13.68,13.68,0,0,1,75,29.54"/><path class="cls-3" d="M72.06,23.19l.24.35A5.51,5.51,0,0,0,74,25.44l1,.83a22.8,22.8,0,0,1,4,4.67l.26-.16A22.84,22.84,0,0,0,75.22,26l-1.06-.83a5.49,5.49,0,0,1-1.6-1.83L72.32,23Z"/><path class="cls-3" d="M73.69,25.1a.32.32,0,0,0,.28.2l0-.3a1.65,1.65,0,0,1,0-1.49l-.26-.15a2,2,0,0,0,0,1.74"/><path class="cls-3" d="M72,24.62l.12.29a1.68,1.68,0,0,1,1.45.2l.18-.26A2,2,0,0,0,72,24.62"/><path class="cls-3" d="M77.86,29.24l.29-.09a5.92,5.92,0,0,1,.14-2.88L78.1,26c-.37.29-.49,2.47-.24,3.21"/><path class="cls-3" d="M74.86,29.2l.23.2A5.13,5.13,0,0,1,78,29.34l.11-.29c-.72-.29-2.86-.24-3.2.15"/><path class="cls-3" d="M75.58,25.47a3.39,3.39,0,0,0,.62,2l.19-.24a3.45,3.45,0,0,1-.51-1.78,1.31,1.31,0,0,1,.4-1.08l-.19-.24a1.6,1.6,0,0,0-.51,1.32"/><path class="cls-3" d="M72.73,26.89l.25.18a1.43,1.43,0,0,1,1.14-.47,3.1,3.1,0,0,1,1.65.41l.26-.16a2.71,2.71,0,0,0-1.7-.55,1.79,1.79,0,0,0-1.6.59"/><path class="cls-2" d="M77.9,20.17c2.88,2.77,1.55,2.88,2.93,4.26s-1.21,7.26-1.6,6.93c-3.38-2.94-3.38-3.05-3.44-5.49s2.11-5.7,2.11-5.7"/><path class="cls-3" d="M77.77,20.08c-.09.14-2.19,3.34-2.13,5.8s.06,2.61,3.49,5.59c.06.06.2.12.39-.09.71-.75,2.75-5.68,1.43-7a2.62,2.62,0,0,1-.78-1.27c-.19-.59-.43-1.34-2.17-3l-.13-.12ZM76,25.88v-.09c0-2.06,1.56-4.71,2-5.38a6.13,6.13,0,0,1,2,2.75,2.91,2.91,0,0,0,.85,1.38,1.83,1.83,0,0,1,.36,1.25A6.83,6.83,0,0,1,81,27a10.75,10.75,0,0,1-1.72,4.25C76,28.35,76,28.26,76,25.88"/><path class="cls-3" d="M77.75,20.54l.16.58a5,5,0,0,1,.32,2.28l0,1.25a24.69,24.69,0,0,0,1,6.2l.29-.09a24.28,24.28,0,0,1-1-6.1l0-1.25A5.27,5.27,0,0,0,78.21,21L78,20.46Z"/><path class="cls-3" d="M77,22.15a1.61,1.61,0,0,1,1.17.94l.28-.15a2,2,0,0,0-1.4-1.1Z"/><path class="cls-3" d="M78.24,22.78a.3.3,0,0,0,.14.29l.17-.25a1.64,1.64,0,0,1,.8-1.24l-.13-.28a2,2,0,0,0-1,1.48"/><path class="cls-3" d="M76.34,26.91l.06.31a5.32,5.32,0,0,1,2.31,1.72l.26-.15c-.38-.67-2.12-2-2.63-1.88"/><path class="cls-3" d="M78.7,28.82l.29.09a5.53,5.53,0,0,1,1.88-2.16v-.31c-.49,0-1.94,1.66-2.18,2.38"/><path class="cls-3" d="M76.21,24.12l.05.3a1.43,1.43,0,0,1,1.16.46,3.08,3.08,0,0,1,.93,1.46l.31.06a2.94,2.94,0,0,0-.94-1.65,1.71,1.71,0,0,0-1.51-.63"/><path class="cls-3" d="M79,24.11a3,3,0,0,0-.72,1.75l.29-.09a3,3,0,0,1,.73-1.54,1.4,1.4,0,0,1,1.1-.59l0-.3a1.68,1.68,0,0,0-1.43.77"/><path class="cls-2" d="M83.39,20.28c-3.16,2.49-1.78,2.71-3.33,4s.61,7.31,1,7c3.65-2.66,3.65-2.77,3.87-5.21s-1.54-5.81-1.54-5.81"/><path class="cls-3" d="M83.29,20.16c-1.9,1.49-2.19,2.21-2.43,2.78a2.5,2.5,0,0,1-.9,1.21c-1.43,1.22.18,6.33.81,7.15.17.22.31.17.38.13,3.7-2.7,3.71-2.84,3.93-5.3s-1.48-5.78-1.56-5.93L83.43,20ZM79.7,26.52c0-.19,0-.36,0-.52a2.06,2.06,0,0,1,.48-1.61,2.86,2.86,0,0,0,1-1.33,5.92,5.92,0,0,1,2.2-2.54,13.51,13.51,0,0,1,1.47,5.06,3.91,3.91,0,0,1,0,.49c-.22,2.4-.22,2.5-3.81,5.11a14.42,14.42,0,0,1-1.27-4.66"/><path class="cls-3" d="M83.05,20.88a5.65,5.65,0,0,0-.59,2.48L82.4,24.7a24.16,24.16,0,0,1-1.54,6l.28.12a24.88,24.88,0,0,0,1.57-6.09l.06-1.35A5.3,5.3,0,0,1,83.33,21l.14-.38-.28-.11Z"/><path class="cls-3" d="M82.54,22.94a.34.34,0,0,0,0,.37l.25-.17.15-.26a1.76,1.76,0,0,1,1.12-.62L84,22a2,2,0,0,0-1.5,1"/><path class="cls-3" d="M81.81,21.52a1.48,1.48,0,0,1,.63.95l0,.4.16.26c.08,0,.16-.13.17-.36A1.92,1.92,0,0,0,82,21.25Z"/><path class="cls-3" d="M81.54,28.72l.25.18a5.63,5.63,0,0,1,2.48-1.51l.08-.3c-.48-.12-2.33,1-2.81,1.63"/><path class="cls-3" d="M79.85,26.53a5.75,5.75,0,0,1,1.67,2.32l.29-.08c-.2-.76-1.46-2.51-1.93-2.55Z"/><path class="cls-3" d="M83.29,24.72a3.37,3.37,0,0,0-1.22,1.65h.3a3.57,3.57,0,0,1,1.15-1.44,1.3,1.3,0,0,1,1.1-.3l.08-.29a1.63,1.63,0,0,0-1.41.38"/><path class="cls-3" d="M80.5,23.48a1.4,1.4,0,0,1,1.06.66,3,3,0,0,1,.62,1.63l.29.1A3.12,3.12,0,0,0,81.83,24a1.67,1.67,0,0,0-1.33-.81Z"/><path class="cls-2" d="M72.41,41c-.66,5.81.45,4.7.23,7.58S78,56.12,78.06,55.4c1-6.54.84-6.65-.55-9.53S72.41,41,72.41,41"/><path class="cls-3" d="M72.26,41c-.4,3.52-.16,4.52,0,5.4a5.78,5.78,0,0,1,.17,2.19c-.26,2.76,4.39,6.93,5.43,7.06a.24.24,0,0,0,.3-.21c.94-6.49.83-6.72-.51-9.5-1.5-3.06-5.07-5-5.22-5.06l-.2-.11ZM75.7,53.64c-.7-.68-2.92-3-2.92-4.83a1.48,1.48,0,0,1,0-.21q0-.41,0-.72a5.72,5.72,0,0,0-.21-1.57,8,8,0,0,1-.26-2.21,28.41,28.41,0,0,1,.19-2.85,12.88,12.88,0,0,1,4.83,4.69,7.73,7.73,0,0,1,1.15,3.91,44.43,44.43,0,0,1-.61,5.53,9.76,9.76,0,0,1-2.21-1.74"/><path class="cls-3" d="M72.43,41.37l.19.71a9.33,9.33,0,0,0,1.18,3.21l.8,1.49a47.19,47.19,0,0,1,2.93,8l.29-.08a46.06,46.06,0,0,0-2.95-8.12l-.8-1.49A9.22,9.22,0,0,1,72.92,42l-.19-.71Z"/><path class="cls-3" d="M73.62,44.83l.3-.09a3.49,3.49,0,0,1,.34-2.28L74,42.3a3.75,3.75,0,0,0-.38,2.53"/><path class="cls-3" d="M72,43.51l.07.3a1.34,1.34,0,0,1,1.15.5c.19.21.24.36.22.4l.29.1c.09-.26-.16-.57-.28-.7a1.64,1.64,0,0,0-1.45-.6"/><path class="cls-3" d="M76.69,52H77a11.71,11.71,0,0,1,.84-4.17l-.11-.28c-.5.15-1.08,3.42-1,4.46"/><path class="cls-3" d="M73.85,51a.31.31,0,0,0-.15.36l.29-.09.22,0a4.56,4.56,0,0,1,2.52.92l.22-.21c-.62-.64-2.59-1.23-3.1-.94"/><path class="cls-3" d="M75.5,48.89l.25-.17c-.19-.3-.44-3.52.53-4.28l-.19-.24c-1.12.88-.85,4.3-.59,4.69"/><path class="cls-3" d="M72.24,47.05l.24.19a.87.87,0,0,1,.91-.33,3,3,0,0,1,1.81,1.28l.29-.09a3.27,3.27,0,0,0-2-1.49,1.19,1.19,0,0,0-1.2.44"/><path class="cls-2" d="M78,40.22c3.16,3.33,1.61,3.38,3.11,5.1s-1.83,8.2-2.22,7.81c-3.77-3.6-3.71-3.71-3.65-6.48S78,40.22,78,40.22"/><path class="cls-3" d="M77.83,40.13c-.11.15-2.69,3.67-2.8,6.51s-.06,3,3.7,6.6c0,0,.19.14.41-.07.86-.82,3.5-6.33,2-8a3.17,3.17,0,0,1-.8-1.53c-.18-.73-.4-1.56-2.31-3.57L77.94,40Zm-2.51,7.43c0-.24,0-.5,0-.79.09-2.54,2.14-5.6,2.62-6.3,1.72,1.84,1.94,2.62,2.12,3.3a3.34,3.34,0,0,0,.86,1.65,1.84,1.84,0,0,1,.37,1.27,6.49,6.49,0,0,1-.2,1.45A12.5,12.5,0,0,1,78.86,53c-3.19-3.1-3.54-3.53-3.54-5.44"/><path class="cls-3" d="M77.8,40.59l.11.48a6.16,6.16,0,0,1,.25,2.78L78,45.42a28.53,28.53,0,0,0,.78,7.13l.3-.07a28.12,28.12,0,0,1-.77-7l.13-1.56A6.4,6.4,0,0,0,78.21,41l-.11-.49Z"/><path class="cls-3" d="M76.87,42.37a2,2,0,0,1,1.29,1.22l.28-.15a2.39,2.39,0,0,0-1.51-1.37Z"/><path class="cls-3" d="M78.22,43.18a.41.41,0,0,0,.15.39l.17-.26a.47.47,0,0,1,0-.3,1.94,1.94,0,0,1,.94-1.15l-.12-.28a2.26,2.26,0,0,0-1.17,1.6"/><path class="cls-3" d="M75.76,47.9l0,.31a5.92,5.92,0,0,1,2.56,2.06l.27-.15c-.45-.8-2.3-2.3-2.88-2.22"/><path class="cls-3" d="M78.36,50.14l.29.11A6.2,6.2,0,0,1,81,47.9l0-.31c-.5,0-2.27,1.68-2.63,2.55"/><path class="cls-3" d="M75.77,44.67l0,.3a1.67,1.67,0,0,1,1.31.62,3.72,3.72,0,0,1,1,1.76l.31,0a3.89,3.89,0,0,0-1.1-2,1.93,1.93,0,0,0-1.57-.7"/><path class="cls-3" d="M79.14,44.71a3.75,3.75,0,0,0-1.06,2l.3,0a3.75,3.75,0,0,1,1-1.75,1.67,1.67,0,0,1,1.34-.62l0-.31a2,2,0,0,0-1.6.71"/><path class="cls-2" d="M89.7,40.45c-5,1.82-3.88,2.88-6.43,3.87S78,55,78.62,54.85c5.65-1.77,5.76-2,8-5.27s3.1-9.13,3.1-9.13"/><path class="cls-3" d="M89.65,40.3c-3,1.09-3.86,1.93-4.54,2.61a4.79,4.79,0,0,1-1.89,1.27c-2.39,1-5.14,9.72-4.82,10.67l0,.14h.21c5.65-1.77,5.83-2,8-5.23s3.18-9.23,3.19-9.29l0-.26ZM78.56,54.63c0-1.08,2.55-9.23,4.77-10.17a5.18,5.18,0,0,0,2-1.33,9.85,9.85,0,0,1,4.17-2.44c-.21,1.18-1.17,6-3,8.81-2.22,3.27-2.35,3.46-7.9,5.2,0,0,0,0,0-.07"/><path class="cls-3" d="M88.69,41.38a12.21,12.21,0,0,0-2.41,3.07l-1.09,1.79A58,58,0,0,1,79,53.91l.22.21a57.6,57.6,0,0,0,6.28-7.72l1.09-1.79a11.83,11.83,0,0,1,2.38-3l.61-.65-.22-.21Z"/><path class="cls-3" d="M87,43.67c-.22.14-.48.36-.48.6h.31s.08-.17.34-.34a2,2,0,0,1,1.66-.35l.12-.29a2.38,2.38,0,0,0-2,.38"/><path class="cls-3" d="M87.23,41.27a3.48,3.48,0,0,1-.5,2.4l0,.3a.36.36,0,0,0,.28-.18,3.86,3.86,0,0,0,.48-2.62Z"/><path class="cls-3" d="M81.14,51.51l.17.25c1.06-.69,3.4-1.06,3.61-.84l.27.11a.28.28,0,0,0-.07-.34c-.46-.4-3,.2-4,.82"/><path class="cls-3" d="M81.3,47.35a9.48,9.48,0,0,1-.22,4.23l.29.11c.42-1.12.56-4.29.1-4.59Z"/><path class="cls-3" d="M86.66,46.7a5.37,5.37,0,0,0-3.08,1.76l.27.15A5.22,5.22,0,0,1,86.68,47a.84.84,0,0,1,.79.3l.25-.19a1.13,1.13,0,0,0-1.06-.41"/><path class="cls-3" d="M84.42,43.4a1,1,0,0,1,.4.67,7.23,7.23,0,0,1-.67,3.65l.24.18A7.28,7.28,0,0,0,85.12,44a1.28,1.28,0,0,0-.55-.88Z"/><path class="cls-4" d="M79.56,41.94a1.5,1.5,0,1,1,2.11-.28,1.5,1.5,0,0,1-2.11.28"/><path class="cls-3" d="M80.22,39a1.69,1.69,0,0,0-1.15.68A1.74,1.74,0,0,0,78.73,41a1.69,1.69,0,0,0,.67,1.15,1.82,1.82,0,0,0,1.33.35,1.77,1.77,0,0,0-.51-3.5m-.5,2.73a1.23,1.23,0,0,1-.47-.8A1.25,1.25,0,0,1,79.5,40a1.15,1.15,0,0,1,.79-.47,1.27,1.27,0,0,1,.94.24,1.23,1.23,0,0,1,.22,1.73,1.19,1.19,0,0,1-.79.47,1.27,1.27,0,0,1-.94-.24"/><path class="cls-3" d="M80.34,40.61a.3.3,0,0,1-.11-.44c0-.11.27-.11.44,0s.22.33.11.44a.33.33,0,0,1-.44,0"/><path class="cls-3" d="M80.13,40.07a.37.37,0,0,0-.09.25v0a.5.5,0,0,0,.22.35l.29.12.32-.13a.35.35,0,0,0,.1-.28.49.49,0,0,0-.23-.36L80.22,40Zm.28.43a.28.28,0,0,1-.11-.17.23.23,0,0,1,.4.11c0,.08-.14.12-.14.12Zm-.15.22h0l0,0m0,0h0Z"/><path class="cls-4" d="M82.27,41.89a1.44,1.44,0,0,1-.22-2A1.34,1.34,0,0,1,84,39.67a1.4,1.4,0,0,1,.28,1.94,1.48,1.48,0,0,1-2,.28"/><path class="cls-3" d="M82.92,39.12a1.59,1.59,0,0,0-1.07.63,1.66,1.66,0,0,0,.27,2.33h0a1.72,1.72,0,0,0,2.33-.33,1.66,1.66,0,0,0-.32-2.29,1.58,1.58,0,0,0-1.22-.35M82,40.76a1.12,1.12,0,0,1,.25-.71,1.09,1.09,0,0,1,1.59-.19,1.15,1.15,0,0,1,.24,1.6,1.23,1.23,0,0,1-1.64.23,1.2,1.2,0,0,1-.44-.93"/><path class="cls-3" d="M83,40.66a.36.36,0,0,1-.11-.44.33.33,0,0,1,.44,0,.31.31,0,0,1,.11.39.32.32,0,0,1-.44,0"/><path class="cls-3" d="M82.79,40.13a.51.51,0,0,0,.11.63h0a.45.45,0,0,0,.61-.07.43.43,0,0,0-.13-.59.47.47,0,0,0-.61,0m.19.24a.19.19,0,0,1,0-.08c.07-.06.19,0,.26,0a.16.16,0,0,1,.06.22.21.21,0,0,1-.24,0,.32.32,0,0,1-.1-.19"/><path class="cls-4" d="M80.73,39a1.46,1.46,0,0,1-.28-2,1.41,1.41,0,0,1,2-.22,1.34,1.34,0,0,1,.22,1.94,1.38,1.38,0,0,1-1.93.27"/><path class="cls-3" d="M81.37,36.24a1.75,1.75,0,0,0-1.12.61,1.72,1.72,0,0,0,.32,2.34h0a1.68,1.68,0,0,0,1.25.3,1.56,1.56,0,0,0,1-.63,1.59,1.59,0,0,0,.35-1.22,1.57,1.57,0,0,0-.62-1.06,1.65,1.65,0,0,0-1.22-.35m-1,1.61a1.22,1.22,0,0,1,.23-.7,1.17,1.17,0,0,1,.78-.42,1.09,1.09,0,0,1,.85.25,1.07,1.07,0,0,1,.44.73,1.2,1.2,0,0,1-1,1.3,1.21,1.21,0,0,1-.87-.2,1.26,1.26,0,0,1-.46-1"/><path class="cls-3" d="M81.39,37.78a.35.35,0,0,1-.06-.44c.06-.11.28-.11.39,0s.23.28.11.39-.27.16-.44.05"/><path class="cls-3" d="M81.43,37.13a.26.26,0,0,0-.21.15.47.47,0,0,0,.07.6h0a.51.51,0,0,0,.45.08.29.29,0,0,0,.2-.2s.07-.1.06-.2a.47.47,0,0,0-.22-.34.46.46,0,0,0-.37-.1m0,.37a.08.08,0,0,1,0-.07.15.15,0,0,1,.2,0,.3.3,0,0,1,.13.15c-.06.11-.07.13-.09.13a.25.25,0,0,1-.19,0,.31.31,0,0,1-.07-.18"/><path class="cls-4" d="M81.17,44.54a1.46,1.46,0,0,1-.28-2,1.42,1.42,0,0,1,2-.22,1.35,1.35,0,0,1,.22,1.94,1.39,1.39,0,0,1-1.94.27"/><path class="cls-3" d="M80.7,42.39A1.71,1.71,0,0,0,81,44.73h0a1.66,1.66,0,0,0,2.29-.33,1.6,1.6,0,0,0,.34-1.22A1.5,1.5,0,0,0,83,42.13a1.66,1.66,0,0,0-2.33.26m.17,1a1.12,1.12,0,0,1,1.86-.86,1,1,0,0,1,.43.73,1.17,1.17,0,0,1-1.84,1.09,1.25,1.25,0,0,1-.45-1"/><path class="cls-3" d="M81.83,43.33c-.11-.17-.17-.34,0-.45s.27-.11.38,0,.23.28.11.39a.33.33,0,0,1-.44.06"/><path class="cls-3" d="M81.87,42.67a.26.26,0,0,0-.21.15c-.12.11-.11.32.06.58v0l0,0a.46.46,0,0,0,.61-.08.3.3,0,0,0,.09-.25.47.47,0,0,0-.22-.34.46.46,0,0,0-.37-.1m0,.36a.12.12,0,0,1,.22-.05c.1.06.13.12.13.15s-.16.15-.27.09a.39.39,0,0,1-.08-.19"/><path class="cls-4" d="M74.68,55.79a1.65,1.65,0,1,1,2.94-1.5,1.65,1.65,0,1,1-2.94,1.5"/><path class="cls-3" d="M75.21,53.31a2,2,0,0,0-1,1.72,2,2,0,0,0,3.83.6,1.86,1.86,0,0,0-.14-1.48,2,2,0,0,0-2.67-.84m.5,3a1.31,1.31,0,0,1-.76-.68v0a1.36,1.36,0,1,1,2.42-1.22,1.31,1.31,0,0,1-.59,1.81,1.32,1.32,0,0,1-1.06.11m-1.28-.41h0Z"/><path class="cls-3" d="M76,54.85c-.05-.22-.05-.45.12-.5a.31.31,0,0,1,.44.16c.11.23.06.45-.06.5s-.38,0-.5-.16"/><path class="cls-3" d="M76.06,54.24c-.1,0-.29.16-.18.64v0a.52.52,0,0,0,.69.2h0l.14-.19,0-.48a.47.47,0,0,0-.28-.25.36.36,0,0,0-.35,0m.06.37c0-.07,0-.12,0-.14a.2.2,0,0,1,.16,0,.15.15,0,0,1,.11.11s0,.29,0,.29a.22.22,0,0,1-.34-.07,1,1,0,0,1,0-.17m.47.51Z"/><path class="cls-4" d="M77.4,57a1.56,1.56,0,1,1,2.77-1.44A1.56,1.56,0,0,1,77.4,57"/><path class="cls-3" d="M77.94,54.66a1.9,1.9,0,0,0-.78,2.47v0a1.84,1.84,0,0,0,2.47.76,1.76,1.76,0,0,0,.89-1,1.84,1.84,0,0,0-2.58-2.23m-.43,1.66a1.43,1.43,0,0,1,.69-1.19,1.35,1.35,0,0,1,1.73.57,1.34,1.34,0,0,1,.07,1,1.21,1.21,0,0,1-.62.71,1.3,1.3,0,0,1-1.74-.55,1.24,1.24,0,0,1-.13-.56"/><path class="cls-3" d="M78.67,56.12c0-.22,0-.39.11-.5a.43.43,0,0,1,.45.22.3.3,0,0,1-.11.45.41.41,0,0,1-.45-.17"/><path class="cls-3" d="M78.74,55.5a.53.53,0,0,0-.19.65v.05a.53.53,0,0,0,.61.21.33.33,0,0,0,.22-.24.44.44,0,0,0,0-.4.54.54,0,0,0-.6-.27m0,.4a.18.18,0,0,1,.09-.17c.08,0,.19.08.26.19a.21.21,0,0,1,0,.17.23.23,0,0,1-.34,0,.55.55,0,0,1,0-.16"/><path class="cls-4" d="M75.07,59.11a1.49,1.49,0,0,1,.61-2,1.56,1.56,0,0,1,2.11.67,1.51,1.51,0,0,1-.67,2.05,1.49,1.49,0,0,1-2.05-.67"/><path class="cls-3" d="M75.56,56.82a1.85,1.85,0,0,0-.9,1.13,1.8,1.8,0,0,0-.06.45,1.61,1.61,0,0,0,.24.85,1.76,1.76,0,0,0,2.41.77,1.82,1.82,0,0,0,.9-1.06A1.78,1.78,0,0,0,78,57.6a1.83,1.83,0,0,0-2.47-.78M75.31,59v0a1.1,1.1,0,0,1-.11-.87,1.31,1.31,0,0,1,.62-.8,1.3,1.3,0,0,1,1.74.55,1.25,1.25,0,0,1,.08.95,1.27,1.27,0,0,1-2.32.19m-.47.27h0Z"/><path class="cls-3" d="M76.29,58.23a.41.41,0,0,1,.11-.45c.17-.11.33,0,.44.17a.28.28,0,0,1-.11.44c-.1.12-.33,0-.44-.16"/><path class="cls-3" d="M76.33,57.67a.53.53,0,0,0-.16.6v0h0a.58.58,0,0,0,.41.27.3.3,0,0,0,.24-.08c.06,0,.14-.1.18-.21a.43.43,0,0,0-.06-.4l-.34-.27Zm.07.41a.26.26,0,0,1,.06-.18c.1,0,.27.12.27.12a.18.18,0,0,1,0,.17h0l-.09.1h0a.42.42,0,0,1-.2-.15s0,0,0-.08"/><path class="cls-2" d="M71.19,52.19c2.33,3.93.78,3.65,1.89,5.65s-3.66,7.64-4,7.2c-2.83-4.37-2.77-4.49-2-7.2s4.15-5.65,4.15-5.65"/><path class="cls-3" d="M71.09,52.07c-.14.12-3.47,2.94-4.2,5.73s-.77,2.92,2.07,7.32c.07.1.2.16.46,0,1.06-.68,4.83-5.42,3.79-7.34a3.07,3.07,0,0,1-.45-1.68c0-.72,0-1.62-1.43-4l-.1-.16ZM66.77,60a8.51,8.51,0,0,1,.4-2.08c.64-2.43,3.35-4.94,4-5.5,1.25,2.15,1.29,3,1.3,3.67a3.31,3.31,0,0,0,.49,1.82,1.34,1.34,0,0,1,.15.66,5.15,5.15,0,0,1-.69,2.22c-1.08,2.08-2.92,4.07-3.26,4.11-1.77-2.79-2.37-3.79-2.37-4.9"/><path class="cls-3" d="M71,52.85a6.25,6.25,0,0,1-.38,2.86l-.5,1.53a30.37,30.37,0,0,0-.89,7.19h.31a29.93,29.93,0,0,1,.88-7.1l.49-1.52a6.57,6.57,0,0,0,.39-3v-.33H71Z"/><path class="cls-3" d="M69.64,54.05a1.83,1.83,0,0,1,1,1.13.49.49,0,0,1,0,.32l.16.25c.08,0,.18-.15.16-.4a2.14,2.14,0,0,0-1.17-1.59Z"/><path class="cls-3" d="M70.79,55.19a.32.32,0,0,0,.09.34l.21-.22.15-.36a2,2,0,0,1,1.15-.84l-.06-.3a2.21,2.21,0,0,0-1.54,1.38"/><path class="cls-3" d="M67.3,59.47a6.48,6.48,0,0,1,2,2.68l.29-.08c-.24-.89-1.76-2.89-2.31-2.91Z"/><path class="cls-3" d="M69.35,62l.25.17a5.92,5.92,0,0,1,2.8-1.81l.07-.29C71.93,60,69.92,61.2,69.35,62"/><path class="cls-3" d="M68,56.33a1.59,1.59,0,0,1,1.08.8,4,4,0,0,1,.67,2l.29.09a4.06,4.06,0,0,0-.7-2.3A1.82,1.82,0,0,0,68.05,56Z"/><path class="cls-3" d="M71.41,56.78a4,4,0,0,0-1.59,1.76l.31,0A4,4,0,0,1,71.57,57a1.61,1.61,0,0,1,1.35-.27l.09-.29a1.88,1.88,0,0,0-1.6.3"/><path class="cls-2" d="M85.32,56.12c-5.32.67-4.43,1.94-7.15,2.39s-7.53,9.25-6.87,9.19c5.88-.44,6-.61,8.87-3.32s5.15-8.26,5.15-8.26"/><path class="cls-3" d="M85.3,56c-3.19.4-4.16,1-5,1.55a5.09,5.09,0,0,1-2.13.84c-2.57.37-7.18,8.27-7.06,9.29l0,.15.2,0c5.86-.44,6.09-.65,8.86-3.27l.1-.09c2.93-2.71,5.17-8.26,5.19-8.31l.1-.24ZM74.61,61.91c1.46-2,2.73-3.13,3.59-3.25a5.41,5.41,0,0,0,2.24-.88,9.92,9.92,0,0,1,4.63-1.46c-.47,1.1-2.48,5.61-5,7.94l-.1.1C77.21,67,77,67.12,71.29,67.55a31,31,0,0,1,3.32-5.64"/><path class="cls-3" d="M84.25,56.72a12.38,12.38,0,0,0-3,2.45l-1.53,1.55a56.86,56.86,0,0,1-7.89,6.13l.16.26a56.45,56.45,0,0,0,8-6.17l1.53-1.56a12.31,12.31,0,0,1,3-2.4l.59-.4-.17-.25Z"/><path class="cls-3" d="M82,58.66c-.25.08-.56.23-.63.46l.3.09c0-.05.14-.16.43-.26a2,2,0,0,1,1.66.07l.18-.25A2.33,2.33,0,0,0,82,58.66"/><path class="cls-3" d="M82.73,56.35a3.22,3.22,0,0,1-1,2.28l0,.3a.46.46,0,0,0,.37-.15,3.79,3.79,0,0,0,1-2.44Z"/><path class="cls-3" d="M74.46,65.07l.12.28a6.49,6.49,0,0,1,3.71,0l.22.17a.25.25,0,0,0,0-.34c-.33-.47-3-.5-4.08-.06"/><path class="cls-3" d="M75.57,60.93a9.42,9.42,0,0,1-1.18,4.14l.26.17c.67-1,1.54-4.11,1.15-4.51Z"/><path class="cls-3" d="M77.55,62.57l.25.18a5.08,5.08,0,0,1,3-.92.91.91,0,0,1,.8.45l.28-.13a1.19,1.19,0,0,0-1-.63,5.26,5.26,0,0,0-3.26,1"/><path class="cls-3" d="M79.51,57.78a1.2,1.2,0,0,1,.23,1,6.35,6.35,0,0,1-1.47,3.1l.15.26a6.4,6.4,0,0,0,1.63-3.32,1.46,1.46,0,0,0-.33-1.3Z"/><path class="cls-2" d="M74.91,55.18c-3.83,3.54-2.44,3.43-4.27,5.26s-.83,8.15-.34,7.7c4.44-3.82,4.44-4,5.16-6.75s-.55-6.21-.55-6.21"/><path class="cls-3" d="M74.8,55.07c-2.31,2.14-2.73,3-3.11,3.68a5.42,5.42,0,0,1-1.16,1.59c-1.73,1.68-1.09,7.22-.47,7.88l.1.11.24-.07c4.42-3.81,4.48-4,5.18-6.73a11.75,11.75,0,0,0-.53-6.41L75,54.91Zm-5,10.31c0-.33,0-.66,0-1,0-1.8.37-3.2,1-3.84A6,6,0,0,0,72,58.89a11.64,11.64,0,0,1,2.87-3.43,12.78,12.78,0,0,1,.71,4,6.9,6.9,0,0,1-.24,1.87c-.72,2.78-.76,2.94-5.11,6.69a11.18,11.18,0,0,1-.45-2.65"/><path class="cls-3" d="M74.4,56a8.89,8.89,0,0,0-1.05,2.88L73,60.35a42.88,42.88,0,0,1-2.81,7.06l.27.14a43.88,43.88,0,0,0,2.84-7.13l.31-1.51a8.46,8.46,0,0,1,1-2.8l.25-.53-.28-.13Z"/><path class="cls-3" d="M73.46,58.45a.34.34,0,0,0,0,.29l.28-.12a3.08,3.08,0,0,1,1.56-1.35L75.2,57a3.47,3.47,0,0,0-1.74,1.48"/><path class="cls-3" d="M73.07,56.93a1.14,1.14,0,0,1,.44.92c0,.27,0,.4-.07.41l.16.27c.21-.13.23-.47.22-.66a1.45,1.45,0,0,0-.62-1.22Z"/><path class="cls-3" d="M71.35,65.12l.24.18a10.07,10.07,0,0,1,3-2.33l.09-.29c-.42-.17-2.72,1.66-3.31,2.44"/><path class="cls-3" d="M69.73,62.86,70,63a3.78,3.78,0,0,1,1.34,2.21l.3,0a3.91,3.91,0,0,0-1.56-2.47.3.3,0,0,0-.33.14"/><path class="cls-3" d="M72.37,62.31l.31,0c0-.3,1.7-2.63,2.82-2.53l0-.3c-1.34-.13-3.1,2.38-3.16,2.79"/><path class="cls-3" d="M71.22,59.13l.06.3a.81.81,0,0,1,.84.32,2.67,2.67,0,0,1,.48,1.85l.29.12a2.94,2.94,0,0,0-.53-2.16,1.13,1.13,0,0,0-1.14-.43"/><path class="cls-2" d="M76.51,66c-5.32-.72-4.82.72-7.48.44s-9.75,7-9.09,7.1c5.82,1.11,6,1,9.48-.89S76.51,66,76.51,66"/><path class="cls-3" d="M71.26,66a4.76,4.76,0,0,1-2.21.24c-2.64-.26-9.19,6.34-9.3,7.15l0,.15.19.1c5.84,1.11,6,1,9.53-.88s7.15-6.67,7.18-6.72l.16-.21-.26,0c-3.19-.43-4.34-.08-5.27.2m.09.29a10,10,0,0,1,4.87-.21c-.74.93-3.87,4.76-6.87,6.39-3.5,1.89-3.64,2-9.38.87.17-.67,6.56-7,9-6.79a5.18,5.18,0,0,0,2.33-.26"/><path class="cls-3" d="M75.07,66.39A11.85,11.85,0,0,0,71.55,68l-1.71,1a59.09,59.09,0,0,1-9.17,3.86l.1.3A61.41,61.41,0,0,0,70,69.27l1.72-1a11.7,11.7,0,0,1,3.46-1.56l1-.33-.1-.29Z"/><path class="cls-3" d="M72.81,67.57c-.17,0-.73,0-.91.26l.25.19a1.17,1.17,0,0,1,.66-.14,2,2,0,0,1,1.42.47l.24-.19a2.25,2.25,0,0,0-1.66-.59"/><path class="cls-3" d="M72.34,67.5l-.1.29a.47.47,0,0,0,.39-.08,3.87,3.87,0,0,0,1.6-2.09l-.31-.05a3.39,3.39,0,0,1-1.58,1.93"/><path class="cls-3" d="M63.75,71.81l0,.31a6.19,6.19,0,0,1,3.55.91l.17.22a.26.26,0,0,0,.12-.33c-.23-.59-2.81-1.25-3.88-1.11"/><path class="cls-3" d="M65.85,68.13a9.83,9.83,0,0,1-2.24,3.66l.21.23c.9-.81,2.56-3.56,2.3-4Z"/><path class="cls-3" d="M67.33,70.18l.19.25a5.13,5.13,0,0,1,3.13-.08.92.92,0,0,1,.67.65l.3-.06a1.22,1.22,0,0,0-.86-.88,5.3,5.3,0,0,0-3.43.12"/><path class="cls-3" d="M70.45,66.12a1.07,1.07,0,0,1,0,1,6.67,6.67,0,0,1-2.23,2.69l.1.29a6.76,6.76,0,0,0,2.42-2.88,1.35,1.35,0,0,0,0-1.22Z"/><path class="cls-2" d="M64.1,59.94c-3.82,3.49-2.38,3.44-4.26,5.27S59,73.3,59.5,72.85c4.44-3.82,4.44-3.93,5.21-6.7a11.87,11.87,0,0,0-.61-6.21"/><path class="cls-3" d="M64,59.83c-2.3,2.09-2.71,2.92-3.08,3.65a5,5,0,0,1-1.19,1.62c-1.73,1.63-1.09,7.16-.48,7.83l.1.11L59.6,73c4.43-3.82,4.48-4,5.24-6.71a11.78,11.78,0,0,0-.6-6.37l-.08-.21ZM58.94,70c0-.23,0-.53,0-.87,0-1.23.17-3,1-3.81a5.6,5.6,0,0,0,1.26-1.7A10.64,10.64,0,0,1,64,60.22a13.25,13.25,0,0,1,.73,4.09,7.26,7.26,0,0,1-.21,1.8c-.77,2.76-.8,2.87-5.16,6.63A11,11,0,0,1,58.94,70"/><path class="cls-3" d="M64,60.32a8.8,8.8,0,0,0-1,2.83l-.31,1.46a40.75,40.75,0,0,1-2.82,7.1l.34.17A42.75,42.75,0,0,0,63,64.7l.31-1.48a8.42,8.42,0,0,1,1-2.74l.26-.57-.33-.15Z"/><path class="cls-3" d="M63.09,62.78a.35.35,0,0,0,0,.32l.32-.17a2.86,2.86,0,0,1,1.49-1.31l-.1-.36a3.29,3.29,0,0,0-1.74,1.52"/><path class="cls-3" d="M62.71,61.26a1,1,0,0,1,.43.81c0,.3,0,.48-.07.5l.17.29c.26-.15.25-.61.24-.75A1.28,1.28,0,0,0,62.84,61Z"/><path class="cls-3" d="M61,69.41l.3.23a10.45,10.45,0,0,1,2.95-2.32l.1-.35c-.46-.19-2.78,1.71-3.35,2.44"/><path class="cls-3" d="M59.35,67.17l.28.19a3.56,3.56,0,0,1,1.31,2.18l.35,0A3.72,3.72,0,0,0,59.72,67a.32.32,0,0,0-.37.14"/><path class="cls-3" d="M62,66.62l.37.06c0-.3,1.67-2.61,2.8-2.56v-.38c-1.3-.05-3.11,2.39-3.18,2.88"/><path class="cls-3" d="M60.9,63.42l.08.36a.71.71,0,0,1,.76.29,2.78,2.78,0,0,1,.48,1.84l.33.14A3,3,0,0,0,62,63.84a1.09,1.09,0,0,0-1.12-.42"/><path class="cls-4" d="M62.61,12.63a1.5,1.5,0,1,1,1.49-1.49,1.49,1.49,0,0,1-1.49,1.49"/><path class="cls-3" d="M61,11.13a1.65,1.65,0,1,0,1.65-1.64A1.65,1.65,0,0,0,61,11.13m.31,0a1.33,1.33,0,0,1,1.34-1.34,1.35,1.35,0,0,1,0,2.69,1.33,1.33,0,0,1-1.34-1.35"/><path class="cls-3" d="M62.38,11.13a.3.3,0,0,1-.33-.27.31.31,0,0,1,.33-.28c.23,0,.4.11.4.28s-.17.27-.4.27"/><path class="cls-3" d="M61.9,10.86a.46.46,0,0,0,.48.43l.37-.1a.39.39,0,0,0,0-.66l-.37-.1a.46.46,0,0,0-.48.43m.31,0c0-.07.09-.12.17-.12s.24,0,.24.12-.15.12-.24.12-.17-.05-.17-.12"/><rect class="cls-5" x="64.61" y="5.16" width="0.31" height="6.74" transform="translate(12.95 48.31) rotate(-45.01)"/><path class="cls-4" d="M62,6.87a1.5,1.5,0,1,1,1.49-1.5A1.49,1.49,0,0,1,62,6.87"/><path class="cls-3" d="M60.35,5.37a1.65,1.65,0,0,0,3.3,0,1.65,1.65,0,0,0-3.3,0m.31,0A1.34,1.34,0,1,1,62,6.71a1.32,1.32,0,0,1-1.34-1.34"/><path class="cls-3" d="M61.78,5.37a.31.31,0,0,1-.34-.27.31.31,0,0,1,.34-.28c.22,0,.38.11.38.28s-.16.27-.38.27"/><path class="cls-3" d="M61.29,5.1a.42.42,0,0,0,.16.32l.33.11.36-.11a.4.4,0,0,0,.18-.32c0-.25-.23-.43-.54-.43a.46.46,0,0,0-.49.43m.31,0c0-.08.09-.13.18-.13S62,5,62,5.1s-.15.12-.23.12-.18,0-.18-.12"/><path class="cls-3" d="M65,8.91l.29-.09a4.07,4.07,0,0,1,.21-2.93l-.27-.15A4.25,4.25,0,0,0,65,8.91"/><path class="cls-4" d="M65.32,6a1.54,1.54,0,0,1-1.55-1.5A1.58,1.58,0,0,1,65.32,3a1.54,1.54,0,0,1,1.5,1.55A1.5,1.5,0,0,1,65.32,6"/><path class="cls-3" d="M63.62,4.54a1.7,1.7,0,0,0,1.7,1.65A1.65,1.65,0,0,0,67,4.54a1.68,1.68,0,0,0-1.65-1.7,1.72,1.72,0,0,0-1.7,1.7m.31,0a1.43,1.43,0,0,1,1.39-1.39,1.39,1.39,0,0,1,1.35,1.39,1.35,1.35,0,0,1-1.35,1.34,1.38,1.38,0,0,1-1.39-1.34"/><path class="cls-3" d="M65.1,4.54a.37.37,0,0,1-.39-.33.38.38,0,0,1,.39-.28.37.37,0,0,1,.34.28.36.36,0,0,1-.34.33"/><path class="cls-3" d="M64.56,4.21a.52.52,0,0,0,.54.48.5.5,0,0,0,.49-.48.51.51,0,0,0-.49-.43.52.52,0,0,0-.54.43m.31,0a.26.26,0,0,1,.23-.12.22.22,0,0,1,.18.13.21.21,0,0,1-.18.17.22.22,0,0,1-.23-.18"/><path class="cls-3" d="M62.17,9.16l.1.29a8.8,8.8,0,0,1,3.35.12l.07-.3a9,9,0,0,0-3.52-.11"/><path class="cls-4" d="M61,10a1.49,1.49,0,0,1-1.49-1.5,1.52,1.52,0,1,1,3,0A1.5,1.5,0,0,1,61,10"/><path class="cls-3" d="M59.35,8.53a1.68,1.68,0,0,0,3.35,0,1.68,1.68,0,1,0-3.35,0m.31,0A1.39,1.39,0,0,1,61,7.13a1.4,1.4,0,0,1,1.4,1.4A1.36,1.36,0,0,1,61,9.87a1.34,1.34,0,0,1-1.34-1.34"/><path class="cls-3" d="M60.84,8.53a.36.36,0,0,1-.39-.33.38.38,0,0,1,.39-.28.37.37,0,0,1,.33.28.35.35,0,0,1-.33.33"/><path class="cls-3" d="M60.3,8.2a.52.52,0,0,0,.54.49l.33-.15.15-.34a.5.5,0,0,0-.48-.43.51.51,0,0,0-.54.43m.3,0a.3.3,0,0,1,.24-.12A.21.21,0,0,1,61,8.2a.2.2,0,0,1-.17.18.23.23,0,0,1-.24-.18"/><path class="cls-2" d="M72.86,8.31c2.66,2.88,1.33,2.94,2.6,4.43s-1.61,7.15-2,6.81c-3.22-3.15-3.16-3.26-3.11-5.7s2.5-5.54,2.5-5.54"/><path class="cls-3" d="M72.74,8.22c-.1.13-2.42,3.17-2.53,5.62s-.06,2.67,3.15,5.82c.08.08.22.12.43-.1.77-.77,3-5.5,1.79-6.92a2.62,2.62,0,0,1-.67-1.33c-.16-.64-.33-1.36-1.94-3.1l-.12-.14ZM70.5,14.7c0-.22,0-.46,0-.74.09-2.15,1.88-4.75,2.35-5.4a5.85,5.85,0,0,1,1.74,2.82,2.85,2.85,0,0,0,.74,1.46,1.61,1.61,0,0,1,.3,1.07,5.65,5.65,0,0,1-.19,1.35,10.66,10.66,0,0,1-2,4.16c-2.67-2.67-3-3.1-3-4.72"/><path class="cls-3" d="M72.65,8.62l.06.27A5.16,5.16,0,0,1,73,11.41l-.15,1.37A25,25,0,0,0,73.43,19l.3-.07a24.52,24.52,0,0,1-.61-6.16l.14-1.37A5.37,5.37,0,0,0,73,8.83L73,8.55Z"/><path class="cls-3" d="M71.88,10.18a1.65,1.65,0,0,1,1.07,1l.29-.14A2,2,0,0,0,72,9.88Z"/><path class="cls-3" d="M73,10.92a.31.31,0,0,0,.15.3l.16-.25a1.62,1.62,0,0,1,.85-1.24l-.12-.28a2,2,0,0,0-1,1.47"/><path class="cls-3" d="M70.86,14.9l0,.3a5.14,5.14,0,0,1,2.14,1.87l.28-.13c-.36-.76-2-2.12-2.47-2"/><path class="cls-3" d="M73.1,17l.29.12a5.56,5.56,0,0,1,2-2.07v-.31c-.49,0-2,1.54-2.29,2.26"/><path class="cls-3" d="M70.9,12.15l0,.3a1.31,1.31,0,0,1,1.09.48,3.34,3.34,0,0,1,.9,1.56l.3,0a3.3,3.3,0,0,0-.94-1.78,1.65,1.65,0,0,0-1.39-.61"/><path class="cls-3" d="M73.82,12.19A3.12,3.12,0,0,0,72.87,14l.3,0A3.17,3.17,0,0,1,74,12.4a1.43,1.43,0,0,1,1.12-.5l0-.31a1.69,1.69,0,0,0-1.39.6"/><path class="cls-2" d="M66.76,10.69c0,4,1,3.11,1.06,5.1s6.09,4.1,6.09,3.6c.22-4.49.11-4.54-1.61-6.26s-5.54-2.44-5.54-2.44"/><path class="cls-3" d="M66.61,10.69c0,2.4.37,3.09.66,3.64a2.72,2.72,0,0,1,.39,1.46c.06,1.91,5.08,3.84,6.09,3.83.29,0,.31-.17.31-.23.23-4.5.09-4.63-1.59-6.31S67,10.57,66.79,10.54l-.18,0Zm2.78,6.83C68.48,16.9,68,16.3,68,15.79a3,3,0,0,0-.43-1.6,6.18,6.18,0,0,1-.62-3.31c.79.17,3.82.91,5.27,2.36,1.29,1.28,1.65,1.64,1.65,3.7,0,.63,0,1.42-.08,2.45a14,14,0,0,1-4.37-1.87"/><path class="cls-3" d="M66.85,11l.34.56a5.12,5.12,0,0,0,1.46,1.85l.95.84a24.74,24.74,0,0,1,3.73,5L73.6,19a25,25,0,0,0-3.8-5l-1-.84a4.83,4.83,0,0,1-1.4-1.78l-.34-.55Z"/><path class="cls-3" d="M68.35,13.05c.08.15.17.18.24.18l0-.29a1.81,1.81,0,0,1,.08-1.5l-.26-.16a2.11,2.11,0,0,0-.11,1.77"/><path class="cls-3" d="M66.65,12.43l.11.29a1.54,1.54,0,0,1,1.46.3l.16-.29a2,2,0,0,0-1.73-.3"/><path class="cls-3" d="M72.27,17.39l.29-.1a4.85,4.85,0,0,1,.31-2.81l-.18-.25c-.44.32-.66,2.43-.42,3.16"/><path class="cls-3" d="M69.23,17.18l.21.22a5.25,5.25,0,0,1,2.85.13l.14-.27c-.73-.36-2.85-.42-3.2-.08"/><path class="cls-3" d="M70.18,13.84a2.83,2.83,0,0,0,.55,1.69l.16-.26a3.06,3.06,0,0,1-.4-1.65A1.39,1.39,0,0,1,71,12.48l-.18-.25a1.79,1.79,0,0,0-.59,1.61"/><path class="cls-3" d="M67.26,14.75l.23.19a1.34,1.34,0,0,1,1.1-.39,3.32,3.32,0,0,1,1.76.51l.24-.19a3.38,3.38,0,0,0-2-.63,1.62,1.62,0,0,0-1.33.51"/><path class="cls-2" d="M63.05,14.74c3.93-.56,3.16.55,5.16.39s4.93,5.42,4.43,5.53c-4.43.84-4.49.72-6.43-.77s-3.16-5.15-3.16-5.15"/><path class="cls-3" d="M63,14.58l-.18,0,0,.17c.05.16,1.21,3.78,3.22,5.23s2.11,1.64,6.55.81c.08,0,.22-.1.17-.4-.19-1.08-2.72-5.66-4.65-5.44a2.82,2.82,0,0,1-1.48-.22c-.6-.24-1.29-.51-3.68-.18M66.6,15a3,3,0,0,0,1.62.24c.54-.06,1.25.38,2,1.28a10.83,10.83,0,0,1,2.29,4c-4.23.75-4.34.67-6.15-.73s-2.87-4.22-3.13-5c2.14-.29,2.79,0,3.34.17"/><path class="cls-3" d="M63.21,15l.59.26a5.13,5.13,0,0,1,2,1.18l1,.81a23.06,23.06,0,0,0,5.47,3.08l.11-.29a22.43,22.43,0,0,1-5.38-3l-1-.81a5.42,5.42,0,0,0-2-1.23l-.59-.26Z"/><path class="cls-3" d="M63.83,16.4l.22.22a1.55,1.55,0,0,1,1.47-.32l.28-.11c0-.1-.12-.18-.28-.22a1.94,1.94,0,0,0-1.69.43"/><path class="cls-3" d="M65.28,16.09a.29.29,0,0,0,.33.06l-.1-.28A1.64,1.64,0,0,1,65,14.44l-.3-.07a2,2,0,0,0,.55,1.72"/><path class="cls-3" d="M67.32,20.15l.28.13a5.2,5.2,0,0,1,2.74-.74l0-.3c-.78-.1-2.83.45-3.06.91"/><path class="cls-3" d="M70.29,19.48l.26-.17A5.31,5.31,0,0,1,70,16.47l-.25-.18c-.29.4.07,2.52.53,3.19"/><path class="cls-3" d="M66.38,17.74a1.62,1.62,0,0,0-1.3.81l.27.13A1.4,1.4,0,0,1,66.43,18a3,3,0,0,1,1.72.19l.22-.22a3.09,3.09,0,0,0-2-.27"/><path class="cls-3" d="M66.78,16a3.62,3.62,0,0,0,.9,1.95l.16-.26A3.7,3.7,0,0,1,67.07,16a1.24,1.24,0,0,1,.25-1.06l-.23-.21A1.55,1.55,0,0,0,66.78,16"/><path class="cls-4" d="M73,22.33a1.53,1.53,0,1,1,1.5-1.5,1.49,1.49,0,0,1-1.5,1.5"/><path class="cls-3" d="M71.38,20.83A1.62,1.62,0,0,0,73,22.48a1.68,1.68,0,1,0-1.64-1.65m.3,0A1.34,1.34,0,0,1,73,19.43a1.36,1.36,0,0,1,1.35,1.4A1.35,1.35,0,0,1,73,22.17a1.33,1.33,0,0,1-1.34-1.34"/><path class="cls-3" d="M72.8,20.83a.36.36,0,0,1-.33-.33.31.31,0,0,1,.33-.28c.22,0,.39.11.39.28a.37.37,0,0,1-.39.33"/><path class="cls-3" d="M72.32,20.5a.51.51,0,0,0,.48.49l.38-.15.17-.34c0-.25-.23-.43-.55-.43a.46.46,0,0,0-.48.43m.3,0c0-.07.1-.12.18-.12s.24.05.24.12-.14.18-.24.18a.21.21,0,0,1-.18-.18"/><path class="cls-4" d="M75.19,21.61a1.53,1.53,0,1,1,1.49-1.5,1.49,1.49,0,0,1-1.49,1.5"/><path class="cls-3" d="M73.53,20.11a1.65,1.65,0,1,0,1.66-1.7,1.66,1.66,0,0,0-1.66,1.7m.31,0a1.34,1.34,0,0,1,1.35-1.4,1.36,1.36,0,0,1,1.34,1.4,1.35,1.35,0,0,1-2.69,0"/><path class="cls-3" d="M75,20.11a.35.35,0,0,1-.33-.33A.31.31,0,0,1,75,19.5c.23,0,.39.11.39.28a.36.36,0,0,1-.39.33"/><path class="cls-3" d="M74.48,19.78a.51.51,0,0,0,.48.49.53.53,0,0,0,.54-.49c0-.25-.23-.43-.54-.43a.45.45,0,0,0-.48.43m.3,0c0-.08.1-.13.18-.13s.23.06.23.13A.22.22,0,0,1,75,20a.21.21,0,0,1-.18-.18"/><path class="cls-4" d="M75.07,24.27a1.54,1.54,0,0,1-1.55-1.5,1.58,1.58,0,0,1,1.55-1.55,1.54,1.54,0,0,1,1.5,1.55,1.5,1.5,0,0,1-1.5,1.5"/><path class="cls-3" d="M73.37,22.77a1.68,1.68,0,0,0,1.7,1.65,1.65,1.65,0,0,0,1.65-1.65,1.7,1.7,0,0,0-1.65-1.71,1.73,1.73,0,0,0-1.7,1.71m.31,0a1.44,1.44,0,0,1,1.39-1.4,1.39,1.39,0,0,1,1.35,1.4,1.35,1.35,0,0,1-1.35,1.34,1.38,1.38,0,0,1-1.39-1.34"/><path class="cls-3" d="M74.85,22.77a.36.36,0,0,1-.38-.33.37.37,0,0,1,.72,0,.36.36,0,0,1-.34.33"/><path class="cls-3" d="M74.31,22.44a.52.52,0,0,0,.54.48.46.46,0,1,0,0-.91.52.52,0,0,0-.54.43m.31,0a.24.24,0,0,1,.23-.13.26.26,0,0,1,.18.13.2.2,0,0,1-.18.18.22.22,0,0,1-.23-.18"/><path class="cls-2" d="M12.36,32.24c-1,15.9,11.35,28.37,11.35,28.37L25.1,59c-.89,0-.89-1-.89-1-10-10.2-10.3-24.38-10.3-24.38Z"/><path class="cls-3" d="M12.2,32.23C11.21,48,23.48,60.59,23.6,60.72l.12.11,1.69-2-.3,0c-.73-.05-.74-.86-.74-.9C14.45,47.81,14.06,33.71,14.06,33.57l-1.6-1.44-.24-.2Zm.25,1.83c0-.5,0-1,.05-1.49l1.3,1.12v.07c0,1.1.75,14.58,10.3,24.3v.08a1.07,1.07,0,0,0,.76.9l-1.15,1.34c-1.1-1.15-11.26-12.25-11.26-26.32"/><path class="cls-2" d="M14.9,33.85c-1.49,2.83.56,8.2.56,8.2.83-3.44,1.77-6,1.77-6Z"/><path class="cls-3" d="M14.77,33.78c-1.51,2.85.46,8.1.54,8.32l.18.46.12-.48c.82-3.38,1.76-6,1.77-6l0-.09L14.86,33.6Zm-.26,2.72A5.91,5.91,0,0,1,15,34.12l2.08,1.93c-.09.26-.86,2.49-1.61,5.47a17.31,17.31,0,0,1-.93-5"/><path class="cls-2" d="M14.79,40.28A7.87,7.87,0,0,1,17.18,35l2.6,3.21c-2.77.11-4.27,4.71-4.16,5.38s-.83-3.27-.83-3.27"/><path class="cls-3" d="M17.07,34.84a8,8,0,0,0-2.43,5.44h0v0c.53,2.18.72,2.95.83,3.26h0c.07.18.12.22.18.2l.15,0,0-.22a7.7,7.7,0,0,1,1.66-3.8,3.23,3.23,0,0,1,2.35-1.39l.3,0-2.9-3.57Zm.1.35,2.35,2.91a3.58,3.58,0,0,0-2.32,1.42,9,9,0,0,0-1.62,3.3c-.18-.7-.44-1.77-.63-2.55a7.5,7.5,0,0,1,2.22-5.08"/><path class="cls-2" d="M6.87,27.42a11.55,11.55,0,0,1,5.21,9.31A32.63,32.63,0,0,0,13,40.44c-5.71-6.15-6.43-13.24-6.1-13"/><path class="cls-3" d="M6.72,27.33c-.36.43.74,7.4,6.13,13.22l.26-.15s-.82-2.87-.88-3.68l0-.3A11.53,11.53,0,0,0,7,27.3l-.12-.08ZM7,27.7H7a11.27,11.27,0,0,1,5,8.75l0,.31a24.37,24.37,0,0,0,.7,3C8.14,34.66,7,28.92,7,27.7"/><path class="cls-2" d="M30.2,2.38c-8.81,6.37-8.26,15.57-7.37,14l2.82-4.87,2.44-2.66c0-2.83,2.11-6.49,2.11-6.49"/><path class="cls-3" d="M22.29,16.3c0,.1.09.39.31.42s.26-.06.36-.24l2.83-4.88L28.21,9c0-2.86,2.1-6.48,2.12-6.51l-.22-.2c-7.3,5.28-8.22,12.48-7.82,14m.22-.82v-.12C22.57,12.73,24.19,7.28,29.7,3a14.75,14.75,0,0,0-1.76,5.88l-2.4,2.55-2.84,4.9c-.08.06-.19-.22-.19-.84"/><path class="cls-2" d="M39.45,8.7,36.9,10.3,31,11.52c-5.37,2.33-5.37,2.83-5.59,3.05l-3.49,3.82a107.6,107.6,0,0,0,10.8-3.65c5.65-3,6.92-5.93,6.76-6"/><path class="cls-3" d="M39.37,8.57l-2.55,1.6-5.88,1.2c-4.89,2.12-5.38,2.73-5.62,3L21.4,18.7l.53-.16c4.72-1.44,10.13-3.2,10.84-3.68,5.49-2.9,6.83-5.71,6.84-6.1l0-.29Zm-13.88,6.1c.26-.31.75-.93,5.54-3l5.9-1.22L39.2,9c-.38.81-2,3.13-6.58,5.56a99.64,99.64,0,0,1-10.24,3.48l3.11-3.41"/><path class="cls-2" d="M38.73,4.82A8.54,8.54,0,0,1,35,6C27.15,8,22.89,16.23,22.89,16.23c4.48-3.65,6-4,8.25-4.7s7.59-6.71,7.59-6.71"/><path class="cls-3" d="M35,5.83c-7.87,2-12.22,10.25-12.26,10.33l.23.19c4.32-3.52,5.86-4,8-4.61l.21-.07c2.29-.61,7.45-6.5,7.67-6.75l-.2-.23A8.55,8.55,0,0,1,35,5.83m3.09-.54c-1.34,1.48-5.19,5.6-7,6.09l-.22.06c-2,.59-3.58,1.1-7.45,4.17,1.19-2,5.19-7.85,11.62-9.48a8.9,8.9,0,0,0,3.05-.84"/><path class="cls-2" d="M22.55,18.45c5.1-1.83,8.81-3,8.81-3,3.88,1,4.21,3.71,4.21,3.71-.17.67,1.61,2.33-.11.78s-5.65-2.55-5.65-2.55a23.65,23.65,0,0,0-7.26,1.11"/><path class="cls-3" d="M22.5,18.3l.1.29a24.11,24.11,0,0,1,7.2-1.1s3.94,1,5.55,2.51c.84.76.84.76,1,.65s0-.2-.1-.42-.56-.82-.49-1.08-.39-2.83-4.32-3.9c-.09,0-8.9,3.05-8.9,3.05m8.91-2.76c3.63,1,4,3.49,4,3.59a.52.52,0,0,0,0,.11,1.36,1.36,0,0,0,.18.55h0c-1.67-1.62-5.55-2.55-5.72-2.59a21.13,21.13,0,0,0-4.18.34l5.75-2"/><path class="cls-2" d="M22.6,16.62l.78,1.5c-3.21,2-6,7-6,7V21.05a21.67,21.67,0,0,1,5.2-4.43"/><path class="cls-3" d="M22.53,16.49A21.82,21.82,0,0,0,17.28,21l0,4.14v.59l.29-.52c0-.05,2.79-5,5.93-6.92l.13-.08-.92-1.76Zm-5,4.56a22.14,22.14,0,0,1,5-4.21c.12.21.56,1.06.65,1.23-2.63,1.69-4.88,5.2-5.64,6.46Z"/><path class="cls-3" d="M18.63,19.74a2.36,2.36,0,0,0,1.08,1.78l.14-.27a2.07,2.07,0,0,1-.91-1.55Z"/><path class="cls-3" d="M17.25,21.74a2.51,2.51,0,0,0,1.13,1.83l.14-.27a2.24,2.24,0,0,1-1-1.61Z"/><path class="cls-3" d="M20.18,18a2.23,2.23,0,0,0,1.09,1.79l.13-.28A2,2,0,0,1,20.49,18Z"/><path class="cls-2" d="M15.24,28.92l1.66.16a52.32,52.32,0,0,0,.05-13,4,4,0,0,0-3,.72c-1,.5-1.23,3.65-1.23,3.65a10.45,10.45,0,0,1,1.83-.83,37.67,37.67,0,0,1,.67,9.31"/><path class="cls-3" d="M13.86,16.68c-.95.49-1.24,3.42-1.27,3.75l0,.26,1.88-.86A36.22,36.22,0,0,1,15.14,27c0,1.15-.05,1.88-.06,1.9v.15l2,.19,0-.15a53,53,0,0,0,.05-13v-.12l-.12,0a4.11,4.11,0,0,0-3.11.77m.18.25a3.89,3.89,0,0,1,2.78-.72,49.75,49.75,0,0,1,.35,6.24,49,49,0,0,1-.41,6.47l-1.36-.14c0-.18,0-.77,0-1.77a36.77,36.77,0,0,0-.72-7.43l0-.19-1.75.8c.11-1,.45-2.92,1.11-3.26"/><path class="cls-3" d="M13.9,17.71a5.25,5.25,0,0,1,.58,2.08l.3,0a5.25,5.25,0,0,0-.64-2.24Z"/><path class="cls-2" d="M9.08,16.84c.89,3.55,2.06,3.55,3.39,4.71s2,1.11,2.1,2,.67,5.48.67,5.48l-.17,1L14,29.86c.11-3.21-2.38-3.82-2.55-3.82a2.5,2.5,0,0,1-.66-.33c-1.55-2.94-1.67-8.87-1.67-8.87"/><path class="cls-3" d="M8.93,16.85c0,.24.13,6,1.68,8.93.05,0,.8.41.8.41s2.51.49,2.4,3.67V30l1.38.21.2-1.14s-.67-5.52-.67-5.52c0-.61-.37-.83-.87-1.15l-1.28-.95-.86-.66c-1-.68-1.79-1.26-2.48-4Zm5.19,12.8a3.9,3.9,0,0,0-1-2.83,3.11,3.11,0,0,0-1.68-.94l-.58-.3C9.76,23.51,9.41,19.82,9.29,18A5.4,5.4,0,0,0,11.53,21l.84.63,1.31,1c.49.31.71.45.74.91l.66,5.49s-.1.59-.14.8l-.82-.12v-.08"/><path class="cls-2" d="M17.23,28.64c4.32-5.32,4.55-5.48,6.82-6.26s2.6-.39,3.1.17A9.88,9.88,0,0,1,29.31,25c.67,1.27.28.55.44,1a24.72,24.72,0,0,0,1.61,2.39c-2.11-.5-5.65-3.88-5.65-3.88-3,.11-5.43,4.32-5.43,4.32Z"/><path class="cls-3" d="M24,22.24c-2.34.8-2.6,1-6.89,6.3l-.19.24,3.44.19.05-.08s2.43-4.14,5.3-4.25c0,.1,3.49,3.37,5.61,3.88l.41.09-.25-.33a26.53,26.53,0,0,1-1.59-2.35c.05-.07.05-.07-.44-1a6.79,6.79,0,0,0-1.63-2l-.56-.52c-.58-.65-1-1-3.26-.21m.1.29c2.16-.74,2.46-.4,2.93.11l.59.56a6.22,6.22,0,0,1,1.55,1.86l.39.75a0,0,0,0,1,0,0,.66.66,0,0,0,.06.22,18.34,18.34,0,0,0,1.33,2c-2.07-.79-5.09-3.64-5.13-3.67-3,.06-5.33,3.79-5.61,4.27l-2.66-.15c4-4.95,4.33-5.21,6.56-6"/><polygon class="cls-3" points="25.5 24.53 27.46 24.64 27.5 24.34 25.48 24.23 25.5 24.53"/><path class="cls-2" d="M16.13,49.92a6.9,6.9,0,0,0-4.66-5.6,4,4,0,0,0-3.32-.44c-1.89,1.94-3.66,6.59-3.66,6.59C6.65,48.31,8.7,46.7,9.86,46.7a5.05,5.05,0,0,0,1.22-.05c2.22.5,5,3.27,5,3.27"/><path class="cls-3" d="M8.15,43.72c-2,2-3.73,6.5-3.81,6.69l.26.17c2.4-2.4,4.27-3.72,5.26-3.72a6.44,6.44,0,0,0,1.21-.06C13.21,47.3,16,50,16,50l.34.33-.08-.47a7.07,7.07,0,0,0-4.59-5.65l-.15-.06a4.28,4.28,0,0,0-3.39-.46m.11.26a4.1,4.1,0,0,1,3.13.47l.19.08a6.58,6.58,0,0,1,4.24,4.9c-.85-.78-2.94-2.53-4.71-2.93l-1.25,0c-1.25,0-3.29,1.7-5,3.32A22.1,22.1,0,0,1,8.26,44"/><path class="cls-3" d="M8.8,45.94l0,.31a4.41,4.41,0,0,1,2.24.53l.16-.26a4.67,4.67,0,0,0-2.42-.58"/><path class="cls-2" d="M23.71,57.4c-5.42-5.27-4.1-13.24-4.1-13.24,5.6-.06,7.21,5.31,7.21,5.31-2.72-1.49-3.94-.72-3.94-.72a19.71,19.71,0,0,0,.83,8.65"/><path class="cls-3" d="M19.61,44h-.13l0,.13c0,.08-1.28,8.12,4.15,13.38l.25-.17a19.21,19.21,0,0,1-1-6.17A18.25,18.25,0,0,1,23,48.78s1.2-.55,3.7.83l.33.18L27,49.43c0-.06-1.7-5.48-7.35-5.43m0,2.31a13.5,13.5,0,0,1,.12-2,7.41,7.41,0,0,1,6.8,4.88c-2.5-1.24-3.7-.6-3.75-.57a20,20,0,0,0-.18,2.71,19.76,19.76,0,0,0,.74,5.44,15.5,15.5,0,0,1-3.73-10.46"/><path class="cls-3" d="M21.25,47.11a6.65,6.65,0,0,1,1.89,1.94l.26-.15a6.67,6.67,0,0,0-2-2Z"/><path class="cls-2" d="M20.22,56.4c-1.77-5.71-8.47-6-9.47-5.82a4.47,4.47,0,0,0-3.22,4,62,62,0,0,0,.78,6.92c.67-3.43,2.55-6,3.32-6.37s-.6-.16,1.78-.49,6.81,1.77,6.81,1.77"/><path class="cls-3" d="M10.72,50.43a4.57,4.57,0,0,0-3.32,4c-.18,1,.72,6.81.76,7.06h.3c.68-3.5,2.58-6,3.23-6.25.26-.11.4-.19.4-.35v0a6,6,0,0,0,1.34-.11c2.26-.33,6.68,1.74,6.73,1.76l.31.15-.1-.34c-1.86-6-8.79-6.11-9.65-5.92M7.67,54.88a2.1,2.1,0,0,1,0-.28,4.31,4.31,0,0,1,3.11-3.87c.69-.15,7.18,0,9.13,5.37-1.1-.49-4.54-1.91-6.53-1.63-1.5.21-1.51.22-1.57.32s-.24.19-.24.19c-.75.32-2.43,2.64-3.22,5.8-.3-2-.69-4.85-.69-5.9"/><path class="cls-3" d="M10.19,54.87l.11.29a6.19,6.19,0,0,1,2.7-.38l0-.31a6.64,6.64,0,0,0-2.85.4"/><path class="cls-3" d="M12.2,35.52a2.1,2.1,0,0,0,2,.52l-.11-.29a1.8,1.8,0,0,1-1.73-.47Z"/><path class="cls-3" d="M12.74,38.36l-.11.29a2.15,2.15,0,0,0,2.1-.2l-.2-.23a1.87,1.87,0,0,1-1.79.14"/><path class="cls-3" d="M12.86,41v.31a2.41,2.41,0,0,0,2-.72l-.24-.19a2.1,2.1,0,0,1-1.76.6"/><path class="cls-3" d="M13.48,43.39l0,.31a2.22,2.22,0,0,0,2-.67l-.24-.19a1.88,1.88,0,0,1-1.69.55"/><path class="cls-3" d="M14.19,45.78v.3a2.34,2.34,0,0,0,2-.73L16,45.17a2.18,2.18,0,0,1-1.76.61"/><path class="cls-3" d="M15.14,48.1l0,.31a2.38,2.38,0,0,0,2-.67l-.24-.2a2.06,2.06,0,0,1-1.75.56"/><path class="cls-3" d="M17.11,50.82l0,.3a2.3,2.3,0,0,0,1.84-1L18.71,50a2,2,0,0,1-1.6.81"/><path class="cls-3" d="M18.57,53.26l.08.3a2.4,2.4,0,0,0,1.66-1.32L20,52.13a2.12,2.12,0,0,1-1.46,1.13"/><path class="cls-3" d="M20,55.53l.1.3a2.2,2.2,0,0,0,1.54-1.39l-.3-.07A1.87,1.87,0,0,1,20,55.53"/><path class="cls-3" d="M21.39,57.69l.1.3a2.33,2.33,0,0,0,1.59-1.38l-.29-.09a2.06,2.06,0,0,1-1.4,1.17"/><path class="cls-3" d="M22.82,58.63l.12.41a1.87,1.87,0,0,0,1.31-1.14l-.41-.12a1.43,1.43,0,0,1-1,.85"/><path class="cls-2" d="M27.09,61.55c-2.49-4-9.14-4.6-9.25-4.38-2.05,3.16-2.6,3.55-2.05,6.6s7.86,5.76,7.86,5.76c-3.87-4.43-3.32-7.26-3.32-7.26Z"/><path class="cls-3" d="M18,57c-.17,0-.28,0-.33.12l-.59.9c-1.56,2.37-2,3-1.47,5.79.62,3.16,7.66,5.77,8,5.88l.56.21-.39-.45c-3-3.43-3.31-5.9-3.31-6.78a.9.9,0,0,1,0-.24l6.87-.73-.13-.21C25,57.87,19.41,56.93,18,57m-2.09,6.76a10.25,10.25,0,0,1-.2-1.78c0-1.32.5-2.08,1.63-3.79l.6-.91c.42-.12,6.36.52,8.83,4.17l-6.6.7,0,.11a3.58,3.58,0,0,0,0,.45c0,.93.39,3.27,3.06,6.49-1.61-.64-6.77-2.91-7.27-5.44"/><path class="cls-2" d="M13.13,27.37a2.93,2.93,0,0,0-.55,1.55l1.44.22a2.54,2.54,0,0,0-.89-1.77"/><path class="cls-3" d="M13,27.28a3,3,0,0,0-.58,1.64v.13l1.74.27v-.18a2.67,2.67,0,0,0-.94-1.89l-.13-.1Zm.17.35A2.36,2.36,0,0,1,13.83,29l-1.08-.17a2.77,2.77,0,0,1,.43-1.16"/><path class="cls-2" d="M24.71,71.24c-1.55-.55-1.55-.82-2.82,0A3.22,3.22,0,0,0,20.72,74c1.44-.39-.55-.22,1.05-1.16a3.84,3.84,0,0,1,2.66-.67Z"/><path class="cls-3" d="M21.81,71.06a3.47,3.47,0,0,0-1.26,2.88l0,.17h.19c.49-.13.63-.21.67-.35l0-.08-.13-.17c0-.05-.06-.07-.06-.09s0-.17.59-.49a3.78,3.78,0,0,1,2.55-.65l.14,0,.36-1.16-.82-.31a1.88,1.88,0,0,0-2.27.22m.16.26c1-.6,1.11-.54,2-.2l.56.22-.2.63a3.89,3.89,0,0,0-2.62.69c-.49.29-.72.51-.74.72v.05a.36.36,0,0,0,.14.28.64.64,0,0,0-.25.05A3.08,3.08,0,0,1,22,71.32"/><path class="cls-3" d="M17.59,63.09l.17.25a5.81,5.81,0,0,1,2.53-1l0-.31a6.14,6.14,0,0,0-2.67,1"/><path class="cls-2" d="M24.65,61.88a8.2,8.2,0,0,0,2.05,1.55l.78-1.88Z"/><path class="cls-3" d="M24.35,61.77l.19.22a8.44,8.44,0,0,0,2.09,1.58l.15.07.94-2.27Zm2.89,0-.61,1.47A7.89,7.89,0,0,1,25,62l2.24-.26"/><path class="cls-2" d="M39.61,67.76c6-5-5.65,2.54-7.53,5.26s4.77,6.87,4.38,6c-3.55-3.11,2.21-10.53,3.15-11.3"/><path class="cls-3" d="M32,72.93c-.78,1.1-.33,2.58,1.26,4.19,1.12,1.13,3,2.41,3.33,2.16l.16-.11-.14-.23a3.27,3.27,0,0,1-1.09-2.66c.05-3.32,3.44-7.75,4.24-8.4h0c1.82-1.53,1.78-1.69,1.74-1.82l0-.09-.13,0c-.67-.12-7.88,4.9-9.35,7m.31,2.47a2.77,2.77,0,0,1-.38-1.29,1.7,1.7,0,0,1,.32-1c1.29-1.85,7.28-6,8.73-6.75a18.69,18.69,0,0,1-1.42,1.28h0c-.6.5-4.29,5-4.35,8.63v.08a3.58,3.58,0,0,0,1,2.55,10.08,10.08,0,0,1-3.9-3.5"/><path class="cls-6" d="M45.27,77.12c-3.55-.56-7.54,3.93-7.65,4.6-.22,1.11,1.49,3,1.6,3.65s.39,1.94.39,1.94c1.66,1,5.27.56,5.27.56C42.22,84,42.5,86.15,42,84.21c-.28-2.16,3.27-7.09,3.27-7.09"/><path class="cls-3" d="M37.47,81.69c-.15.76.5,1.8,1,2.64l.57,1.07s.39,1.95.39,1.95c1.76,1.1,5.29.69,5.44.67l.25,0L45,87.78c-1.46-2.1-2-2.44-2.37-2.63s-.27-.15-.49-1c-.26-2.06,3.22-6.91,3.25-7l.15-.21-.25,0c-3.57-.56-7.69,3.9-7.82,4.72m2.23,5.48c0-.2-.32-1.81-.32-1.81l-.62-1.2a5.27,5.27,0,0,1-1-2.23.9.9,0,0,1,0-.18c.1-.58,3.83-4.79,7.22-4.5-.64.92-3.16,4.66-3.16,6.71a2.44,2.44,0,0,0,0,.27c.23.9.31,1,.63,1.19s.83.51,2.12,2.32c-.69.07-3.49.28-4.89-.56h0"/><path class="cls-3" d="M37.58,82.75a14.63,14.63,0,0,1,4.71,2.36l.19-.25a15.11,15.11,0,0,0-4.83-2.41Z"/><path class="cls-7" d="M51.64,77.12c3.54-.56,7.48,3.93,7.64,4.6.22,1.11-1.55,3-1.6,3.65a15.8,15.8,0,0,1-.45,1.94c-1.66,1-5.21.56-5.21.56,2.66-3.83,2.39-1.72,2.83-3.66.33-2.16-3.21-7.09-3.21-7.09"/><path class="cls-3" d="M51.61,77l-.24,0,.14.21s3.5,4.9,3.19,7c-.19.82-.22.84-.44,1s-.92.54-2.36,2.62l-.15.21L52,88c.15,0,3.62.43,5.31-.58.07-.08.52-2,.52-2a4.24,4.24,0,0,1,.59-1.14c.54-.85,1.16-1.82,1-2.56S55.26,76.4,51.61,77m7.52,4.78c.12.62-.48,1.57-1,2.34a4,4,0,0,0-.64,1.27l-.44,1.91c-1.29.73-3.95.55-4.77.47a7.61,7.61,0,0,1,2.1-2.32c.32-.19.38-.28.59-1.18,0-.1,0-.21,0-.32,0-2.07-2.47-5.76-3.1-6.67,3.34-.28,7.07,3.91,7.21,4.5"/><path class="cls-3" d="M54.69,84.54l.2.23a10.59,10.59,0,0,1,4.2-2.13l-.06-.3a10.57,10.57,0,0,0-4.34,2.2"/><path class="cls-6" d="M10.42,65.15c.38-2.1.38-1.39,2.32-1.05s4.93,3.76,5,5.43.45,2.33-.83,3a31.66,31.66,0,0,1-3.21,1.55Z"/><path class="cls-3" d="M10.8,63.62c-.27.16-.36.56-.53,1.51v0l3.39,9.17L17,72.71c1.1-.62,1-1.26,1-2.31l0-.88c-.12-1.73-3.18-5.29-5.18-5.57l-1.08-.26c-.4-.12-.67-.2-.88-.07m.16.27c.1-.07.31,0,.63.09l1.13.27c1.85.26,4.81,3.69,4.91,5.29l.06.89c0,.26,0,.49,0,.69a1.33,1.33,0,0,1-.85,1.32l-3.06,1.48c-.11-.31-3.22-8.7-3.24-8.78.12-.67.22-1.16.38-1.25"/><path class="cls-6" d="M10.53,64.87C17,86.87,44.6,87.7,44.21,88.14c-1.83,2.27-1,.34-2.33,3a19.8,19.8,0,0,1-4.71,5.2C12.63,90.41,5,74.35,4.6,75.45s5.93-10.58,5.93-10.58"/><path class="cls-3" d="M10.39,64.8c-2.08,3.89-5.2,9.62-5.78,10.45l-.08,0-.08.14a.13.13,0,0,1,0,.06l-.11.11h.13s0,.09.07.1.08,0,.16-.07a8.92,8.92,0,0,1,1,1.14c2.92,3.71,11.8,15,31.47,19.75A18.16,18.16,0,0,0,42,91.21c.73-1.46.79-1.5,1-1.64a5.23,5.23,0,0,0,1.31-1.33l.05-.07,0-.09c0-.14-.14-.16-1.35-.34C20.86,84.48,13.2,73.48,10.67,64.83l-.1-.36Zm.1.46C13.14,74,21,84.81,43,88.05l1,.17a5.31,5.31,0,0,1-1.1,1.1c-.28.18-.36.27-1.1,1.75a19.74,19.74,0,0,1-4.67,5.15c-19.43-4.75-28.27-16-31.17-19.67a8.81,8.81,0,0,0-1-1.2c.5-.71,1.82-3,5.61-10.09"/><path class="cls-3" d="M12.45,70.06l.26.16s.67-1.09.87-1.4a3.76,3.76,0,0,0,4.3,2l-.09-.3a3.36,3.36,0,0,1-4.08-2.07l-.11-.27Z"/><path class="cls-7" d="M86.21,65.15c-.39-2.1-.39-1.38-2.33-1.05s-5,3.76-5,5.43-.45,2.33.77,3a31,31,0,0,0,3.28,1.55Z"/><path class="cls-3" d="M85,63.69,83.86,64c-2.06.29-5.12,3.86-5.17,5.57l-.06.9c-.09,1-.14,1.67.91,2.29a30.88,30.88,0,0,0,3.29,1.56l.14.06,3.4-9.16v0c-.17-.95-.27-1.35-.53-1.51s-.48,0-.88.07m-5.26,8.76a1.32,1.32,0,0,1-.8-1.3c0-.2,0-.43,0-.7l.06-.92c.06-1.54,3.05-5,4.91-5.28L85,64c.33-.09.54-.16.64-.09s.25.58.38,1.25c0,.08-3.15,8.5-3.25,8.79a31,31,0,0,1-3.11-1.48"/><path class="cls-7" d="M86.1,64.87C79.67,86.87,52,87.7,52.36,88.14c1.88,2.27,1,.34,2.38,3a19.8,19.8,0,0,0,4.71,5.2C84,90.42,91.64,74.35,92,75.46S86.1,64.87,86.1,64.87"/><path class="cls-3" d="M86,64.83c-2.53,8.65-10.2,19.65-32.39,22.91-1.21.18-1.3.2-1.35.34l0,.08.06.08a5.34,5.34,0,0,0,1.35,1.33c.22.14.28.17,1,1.63a19.64,19.64,0,0,0,4.75,5.26C79.14,91.74,88,80.45,91,76.74a9.76,9.76,0,0,1,1-1.14c.09.09.13.09.16.07l.14-.06-.06-.21a.21.21,0,0,0-.14-.12c-.53-.74-3.69-6.55-5.8-10.48l-.17-.33ZM53.6,88.05C75.66,84.81,83.48,74,86.13,65.26c3.8,7.09,5.11,9.38,5.61,10.09a8.81,8.81,0,0,0-1,1.2C87.81,80.24,79,91.47,59.41,96.19h0c0-.07-3.21-2.57-4.54-5.12-.74-1.49-.82-1.57-1.11-1.76a4.49,4.49,0,0,1-1.14-1.1l1-.16"/><path class="cls-3" d="M82.85,68.47a3.28,3.28,0,0,1-4,2.07l-.09.3a3.7,3.7,0,0,0,4.26-2l.92,1.4.26-.17L83,68.21Z"/><path class="cls-6" d="M46.26,74.07c-4.93-5.15-2.88-4.54-5.1-4.65l-2.38-.17a3.31,3.31,0,0,0-2.16,2.61c1.16,3,1.06,2.77,1.06,4.65a2.5,2.5,0,0,0,1.82,2.38c.28.23.11.33,1.44-.66s4.71-1.78,4.71-1.78-3.65.45-4.93-.22-.61-3.77-.17-3.82.06-.44.72-.44,4.83,2.66,4.83,2.66Z"/><path class="cls-3" d="M36.47,71.83c1.06,2.8,1.06,2.82,1.05,4.25v.43a2.43,2.43,0,0,0,1.66,2.39l.23.11c.33.31.38.27,1.49-.56l.13-.1c1.24-1,4.62-1.74,4.65-1.75l0-.3s-3.62.43-4.84-.2c-.6-.31-.68-1.17-.68-1.67a3.28,3.28,0,0,1,.47-1.87.38.38,0,0,0,.38-.31c0-.08,0-.13.31-.13A27.61,27.61,0,0,1,46,74.76l.17.11.25-.84L46.37,74A35.47,35.47,0,0,1,43,70c-.49-.69-.54-.72-1.28-.74h-.55l-2.39-.17a3.39,3.39,0,0,0-2.31,2.73m2.35-2.43,2.33.17.56,0c.62,0,.62,0,1,.61a34.63,34.63,0,0,0,3.34,3.91c0,.07-.05.15-.08.28-.81-.51-4.09-2.58-4.74-2.58-.44,0-.53.17-.59.34s0,.1-.14.11c-.42,0-.62,1.13-.66,1.34-.18,1.06-.08,2.35.77,2.77a8.14,8.14,0,0,0,3.37.36,10.87,10.87,0,0,0-3.17,1.38l-.14.1a6.35,6.35,0,0,1-1,.68l-.13-.12-.3-.15a2.14,2.14,0,0,1-1.47-2.11v-.43c0-1.45,0-1.51-1.07-4.28,0,.06.35-2,2.06-2.4"/><path class="cls-7" d="M50.69,74.07c4.88-5.15,2.88-4.54,5.1-4.65l2.38-.17a3.28,3.28,0,0,1,2.16,2.61c-1.16,3-1,2.77-1,4.65a2.5,2.5,0,0,1-1.83,2.38c-.27.23-.11.33-1.44-.66s-4.71-1.78-4.71-1.78,3.66.45,4.93-.22.61-3.77.17-3.82-.11-.44-.72-.44-4.82,2.66-4.82,2.66Z"/><path class="cls-3" d="M55.78,69.26l-.54,0c-.77,0-.8,0-1.34.77A34.75,34.75,0,0,1,50.58,74l-.06.06.25.84.17-.11a28.39,28.39,0,0,1,4.74-2.64c.23,0,.26,0,.3.14a.41.41,0,0,0,.4.3,3.32,3.32,0,0,1,.46,1.88c0,.49-.08,1.35-.68,1.65-1.22.64-4.8.22-4.84.21l0,.3s3.41.78,4.65,1.75l.13.1c1.12.84,1.16.87,1.43.62a2.16,2.16,0,0,1,.3-.17,2.42,2.42,0,0,0,1.65-2.39v-.43c0-1.43,0-1.46,1-4.17a3.38,3.38,0,0,0-2.27-2.81l-2.43.16m-1.63,1c.46-.63.46-.63,1.09-.64l.56,0,2.38-.16c1.66.41,2,2.45,2,2.47-1.06,2.69-1.06,2.74-1,4.2v.43a2.11,2.11,0,0,1-1.48,2.1l-.29.16-.14.12a6.07,6.07,0,0,1-1-.69l-.13-.1a11.14,11.14,0,0,0-3.17-1.37,8.12,8.12,0,0,0,3.37-.36c.85-.42,1-1.7.77-2.76,0-.22-.24-1.3-.65-1.35-.12,0-.13,0-.16-.12s-.18-.33-.58-.33c-.64,0-3.93,2.07-4.73,2.58,0-.13-.06-.21-.09-.28a36.14,36.14,0,0,0,3.29-3.88"/><path class="cls-6" d="M50.42,77.4c1.44-1.83,2.43-5,1.49-5.43s1.55,0-.94-.34-5.65,0-5.87.45A2.68,2.68,0,0,0,45,74.52c.5,1.32.39,2.6,1.56,2.88s.38-.12,1.43-.28a5,5,0,0,1,2.39.28"/><path class="cls-3" d="M45,72a2.81,2.81,0,0,0-.06,2.55l.31,1.07c.23.9.42,1.68,1.35,1.9.64.16.78.13.94,0l.56-.23a4.78,4.78,0,0,1,2.3.27l.11,0,.07-.09a9.13,9.13,0,0,0,1.89-4.67,1.74,1.74,0,0,0,0-.47.71.71,0,0,0-.31-.4h.09l.11-.14v0c0-.12-.09-.13-1.28-.29-2.23-.35-5.73-.14-6,.54m1.67,5.23c-.75-.18-.9-.81-1.12-1.69l-.32-1.1a2.46,2.46,0,0,1,0-2.22c.21-.46,3.23-.86,5.76-.45l.61.08c0,.12.17.19.3.24a.46.46,0,0,1,.23.32,1.64,1.64,0,0,1,0,.4,8.85,8.85,0,0,1-1.77,4.38A4.86,4.86,0,0,0,48,77l-.73.32c-.05.06-.08.09-.64,0"/><rect class="cls-5" x="40.4" y="70.91" width="0.31" height="1.68" transform="translate(-35.94 102.41) rotate(-82.37)"/><rect class="cls-5" x="55.79" y="71.65" width="1.72" height="0.31"/><rect class="cls-5" x="40.43" y="75.68" width="0.31" height="1.72" transform="translate(-37.16 114.75) rotate(-88.24)"/><rect class="cls-5" x="55.83" y="76.25" width="1.69" height="0.31" transform="translate(-13.88 12.6) rotate(-11.31)"/><rect class="cls-5" x="55.24" y="76.27" width="1.72" height="0.31" transform="translate(-2.49 1.89) rotate(-1.89)"/><path class="cls-3" d="M46.42,73.83a6.87,6.87,0,0,1,.91,3.4h.3a6.89,6.89,0,0,0-1-3.58Z"/><path class="cls-3" d="M50.26,73.92a6.87,6.87,0,0,1-1,3.45l.27.16a7.14,7.14,0,0,0,1.07-3.64Z"/><path class="cls-3" d="M48.88,75a4.16,4.16,0,0,1-1,2.42l.24.2a4.33,4.33,0,0,0,1-2.67Z"/><path class="cls-3" d="M6.67,75.38C16.14,90.05,35.83,94.85,36,94.81l0-.35c-.17,0-19.54-4.68-29-19.27Z"/><path class="cls-3" d="M9.88,70.84C19.3,85.52,39,90.36,39.13,90.32l0-.35c-.18,0-19.53-4.7-28.91-19.32Z"/><path class="cls-3" d="M59.2,94.34l0,.35c17.88-2.48,30.9-18.8,30.92-19l-.33-.11c-.1.16-12.64,16.21-30.64,18.71"/><path class="cls-3" d="M56.76,89.52l.06.35C75,86.84,87.16,70.18,87.18,70l-.34-.09c-.08.16-12.33,16.61-30.08,19.58"/><path class="cls-5" d="M35.74,93.19v-.61l.21,0A.78.78,0,0,0,36,93c.11.11.17.22.34.27a1,1,0,0,0,.44-.05,1.38,1.38,0,0,0,.33-.45.54.54,0,0,0-.06-.49.56.56,0,0,0-.33-.28.38.38,0,0,0-.33,0,.46.46,0,0,0-.22.11L35.9,92l.66-1.33,1.34.39-.12.33-1.05-.33-.38.66a1,1,0,0,1,.55,0,.85.85,0,0,1,.5.45.71.71,0,0,1,.05.66.78.78,0,0,1-.39.55.89.89,0,0,1-.83.12.83.83,0,0,1-.49-.33m0-1.89s0,0,0-.11a1,1,0,0,0,.06-.39c-.06-.11-.06-.16-.11-.27Zm0-.77v.77c-.06.06-.12.11-.17.17a.51.51,0,0,1-.33.11.69.69,0,0,1,.27.83,1.1,1.1,0,0,1-.5.5.82.82,0,0,1-.72,0L34,92.74v-.83l.11.06a1,1,0,0,0,.06.44.35.35,0,0,0,.28.22.66.66,0,0,0,.44,0c.16,0,.22-.16.27-.33a.56.56,0,0,0,0-.44.57.57,0,0,0-.27-.28h-.28l.17-.28h.06a.42.42,0,0,0,.38,0c.17,0,.22-.11.28-.27a.4.4,0,0,0,0-.34.62.62,0,0,0-.28-.22.65.65,0,0,0-.33.06c-.11,0-.22.11-.28.27l-.33-.16a1.06,1.06,0,0,1,.44-.45,1.26,1.26,0,0,1,.61,0,.83.83,0,0,1,.33.28c.06,0,.06.06.12.06m0,2-.12-.06a1,1,0,0,0,.12.67ZM34,90.19l.17.06.11-.33L34,89.86Zm0-.33v.33l-.88-.33-.39.61a1.91,1.91,0,0,1,.55.06c.22,0,.33.22.44.44a.76.76,0,0,1,0,.72,1.28,1.28,0,0,1-.44.5.91.91,0,0,1-.83,0,.88.88,0,0,1-.5-.38v-.62l.33.06a.66.66,0,0,0,0,.44.63.63,0,0,0,.28.28A.58.58,0,0,0,33,92a.92.92,0,0,0,.39-.39.72.72,0,0,0,0-.5c-.05-.17-.17-.22-.33-.33s-.22-.06-.33,0a.41.41,0,0,0-.23.11l-.27-.17L33,89.47Zm0,2h-.22a1.07,1.07,0,0,0,.06.61c.05.06.1.16.16.22ZM31.91,89.2V89H32Zm0-.17v.17l-1,2.43-.34-.11.83-2a.6.6,0,0,1-.39.12,1,1,0,0,1-.38,0l.16-.29a2.2,2.2,0,0,0,.56-.1A3.54,3.54,0,0,0,31.8,89Zm0,2.21v0a.76.76,0,0,0,0,.61Zm-5.09-1.38v-.72l1-1.94,1.83.89-.17.28L28,87.64l-.45.78,1.39.67-.12.33-1.38-.72-.44.89,1.49.71-.11.34Zm0-1.44.05-.11a1.62,1.62,0,0,0,.22-.61.77.77,0,0,0-.05-.61c0-.11-.11-.22-.22-.33Zm0-1.66v1.66c-.06.06-.12.17-.17.22v-.72a1.87,1.87,0,0,0,.11-.44.86.86,0,0,0-.11-.39v-.44c.05,0,.11.06.17.11m0,2.38v.72l-.17-.11v-.22Zm-.17-2.49v.44a.05.05,0,0,0-.06,0,1.15,1.15,0,0,0-.38-.28l-.5-.28v-.39l.66.39a1,1,0,0,1,.28.17m0,1.27v.72c-.06.06-.06.11-.11.17a1.31,1.31,0,0,1-.34.22,1.18,1.18,0,0,1-.38.11h-.11v-.33h.16a1.12,1.12,0,0,0,.33-.22,2.93,2.93,0,0,0,.34-.45.42.42,0,0,0,.11-.22m0,1.61v.22l-.11-.06Zm-.94-3.44v.39l-1.06,1.89.56.27a.61.61,0,0,0,.39.17h.11v.33h-.22L25,89l-.83-.49L25.54,86Zm-4.32.84v-.67a.94.94,0,0,0,.44.61.83.83,0,0,0,.72.06,1.06,1.06,0,0,0,.66-.56,1.37,1.37,0,0,0,.22-.61,1.73,1.73,0,0,0-.05-.5c-.11-.11-.22-.28-.39-.33a.79.79,0,0,0-.72-.11,1.17,1.17,0,0,0-.67.61,1.41,1.41,0,0,0-.21.55V85a1.47,1.47,0,0,1,.77-.55,1.11,1.11,0,0,1,1,.16,1,1,0,0,1,.49.5,1.39,1.39,0,0,1,.17.67,1.83,1.83,0,0,1-.27.71,2,2,0,0,1-.56.61,1.2,1.2,0,0,1-.66.17,1.36,1.36,0,0,1-.67-.17c-.11,0-.17-.16-.27-.21m0-2.55v-.67l.05,0,.28.16Zm0-.67v.67L20.22,86.2l-.11,0v-.5Zm0,1.33a.44.44,0,0,0-.12.22,1.1,1.1,0,0,0-.22.67.83.83,0,0,0,.11.66,1.14,1.14,0,0,0,.23.34V85Zm-1.28-1.11.28-1.05-.28-.17Zm0-1.22v1.22l-.17.78v-1.5c.06-.11.06-.16.12-.22l-.12.06v-.34l.12,0Zm0,2.94v.5L19.94,86v-.11Zm-.17-2.94v.34l-.33.33-.55.39v-.39Zm0,.5c0,.11-.05.22-.05.39l-.22.78L19.06,84v.33l.55.39-.22.89.33.22.22-1.11Zm0,2.72V86L19.89,86Zm-.88-3.66v-.33l.16.11Zm0-.33v.33l-.67.83v-.55l.28-.34-.28.17v-.33l.45-.28Zm0,1.44v.39l-.17.11.17.11v.33l-.45-.22-.22.16v-.44Zm-.67-1.33v.33L16.57,83.6l-.28-.22L17.12,81l-1.38,1.83v-.56l1.38-1.83.44.34-.72,2a1.38,1.38,0,0,1-.16.39,2.57,2.57,0,0,0,.44-.28Zm0,.5L17.17,84l.34.22.88-1.16Zm0,1.27v.44l-.49.34-.34-.17Zm-2.65-4.21v-.44l.33.33-.22.22Zm0-.44v.44l-1.11-.94-.56.61,1.11,1-.22.27-1.11-1-.5.49v-.49l1.22-1.39Zm0,3.1v.56l-.06,0-.28-.17Zm-2.39-1.44.89.78.22-.23-1.11-1Zm0-1.72.12-.11a1.3,1.3,0,0,0,.38-.55,1.1,1.1,0,0,0,.17-.56.74.74,0,0,0-.17-.44c-.06-.11-.17-.22-.28-.39l-.22-.22v.5a.71.71,0,0,1,.22.33,1.3,1.3,0,0,1,.06.5,1.58,1.58,0,0,1-.28.39Zm0-2.27v.5l0-.06-.39-.39-.39.39v-.5l.39-.38Zm0,1.72v.55c-.11.06-.22.17-.33.22a3.41,3.41,0,0,0-.44.17h-.06v-.39c.06,0,.17,0,.22,0s.34-.17.44-.34a1.29,1.29,0,0,0,.17-.16m0,1v.49l-.17.23.17.11v.44l-.66-.55Zm-.83-2.78v.5l-1.16,1.06.38.44a2,2,0,0,1,.34.28.64.64,0,0,0,.27,0h.17v.39h-.33a1.37,1.37,0,0,0-.28-.17,1.53,1.53,0,0,1-.39-.27l-.22-.28V78Zm-1.22-.94V75.4c.06-.05.06-.11.06-.22a.37.37,0,0,0-.06-.33v-.39a.84.84,0,0,1,.17.22.93.93,0,0,1,.22.39.82.82,0,0,1-.06.38.48.48,0,0,1-.22.28,1,1,0,0,1-.11.11M9.81,74.18c.11,0,.16-.05.27-.11a.3.3,0,0,0,.17-.28.34.34,0,0,0-.11-.38c-.06-.17-.17-.22-.33-.28V72.8l0,0c.22,0,.39.17.56.39s.22.39.16.61a1.2,1.2,0,0,1-.33.55.43.43,0,0,1-.28.12H9.81Zm1.49.28c-.11-.06-.22-.06-.27-.11a1.24,1.24,0,0,0-.62.11l.17.33a.54.54,0,0,1,.39-.11.3.3,0,0,1,.28.17h.05Zm0,.94v.44c-.05,0-.16.06-.22.06a.65.65,0,0,1-.33-.06,1.21,1.21,0,0,1,.05.45,1.32,1.32,0,0,1-.28.38,1,1,0,0,1-.66.17h0v-.33h0a.65.65,0,0,0,.44-.11.51.51,0,0,0,.17-.39.35.35,0,0,0-.11-.39c0-.05-.06-.11-.17-.17l.28-.16v.06a1.58,1.58,0,0,0,.33.22.34.34,0,0,0,.39-.12c.06,0,.06,0,.11,0m0,2.55v.83l-.44-.44ZM8.87,75.4l-.28.17-1.06-1.5c.06,0,.17,0,.23-.11H8.2a3.17,3.17,0,0,1,.61.11,2.81,2.81,0,0,0,.83.11h.17v.34a.28.28,0,0,1-.28,0,3.75,3.75,0,0,1-.66-.12c-.28-.05-.45-.11-.56-.11H8.09Zm.94-2.27h0a.59.59,0,0,0-.39.17L9.2,73a1.42,1.42,0,0,1,.61-.16Zm0,3.38c-.12,0-.22-.11-.34-.22a.83.83,0,0,1-.1-.34.64.64,0,0,1,.22-.44l-.28-.22a1.2,1.2,0,0,0-.28.55.8.8,0,0,0,.22.61,1,1,0,0,0,.56.39Z"/><path class="cls-5" d="M87,75.18v-.45l.89.72-.22.28Zm0-2.44v-.5l.39-.38.17.16a6.05,6.05,0,0,0,.22.89,3.37,3.37,0,0,0,.49.94,4.76,4.76,0,0,0,.45.61l-.22.27a3.14,3.14,0,0,1-.5-.66,3.64,3.64,0,0,1-.44-.83,3.2,3.2,0,0,1-.23-.83Zm0-.5v.5l-.55.67-.28-.22Zm0,2.49v.45l-.83-.78V74Zm-.83,2.67v-.33a.06.06,0,0,1,.06-.06.6.6,0,0,0,.16-.39.5.5,0,0,0-.16-.39s-.06,0-.06,0v-.39a.31.31,0,0,1,.28.16.94.94,0,0,1,.28.62,1,1,0,0,1-.28.61,1.35,1.35,0,0,1-.28.22m0-3.44v.44L86,74.29v.39a1.38,1.38,0,0,0-.12.39l-.27-.22a2.61,2.61,0,0,0,.11-.61,1,1,0,0,0-.06-.45l.11-.16Zm0,1.83c-.05-.06-.05-.06-.11-.06a.83.83,0,0,0-.5.11c.06-.16.11-.27.06-.39a.5.5,0,0,0-.17-.33L85.32,75v1.33a.21.21,0,0,1,.06-.11.61.61,0,0,1,.44-.16c.11-.06.22,0,.33.11Zm0,1.28v.33a.86.86,0,0,1-.39.11,1.14,1.14,0,0,1-.44-.11v-.5s.06,0,.11.11a.84.84,0,0,0,.22.17h.28c.11-.06.17-.06.22-.11m-.83,1.27v-.17l.06.11Zm0-3.33v.56c0-.06,0-.12-.11-.17a.4.4,0,0,0-.33-.11h-.11V75h.16a1,1,0,0,1,.39.05m0,.83v.5a.48.48,0,0,0-.11.28c0,.11.06.16.11.28v.5c0-.06-.11-.12-.17-.12-.1-.16-.22-.27-.22-.44a.62.62,0,0,1,.12-.44.71.71,0,0,1-.28,0v-.27h.11a.48.48,0,0,0,.33-.17c.06-.06.06-.11.11-.17m0,2.33v.17l-.17.16-.38-.38v-.5ZM84.77,75v.33c-.12.06-.17.06-.22.11a.74.74,0,0,0-.12.33.82.82,0,0,0,.12.34c0,.05.1.05.22.11v.27h-.12a.49.49,0,0,1-.33-.16.56.56,0,0,1-.22-.5.78.78,0,0,1,.28-.56.91.91,0,0,1,.39-.27m0,2.66-1.39-1.33-.11.11v.22c.06,0,.06.16,0,.28v.72l.11.11a2.5,2.5,0,0,0,.17-.39c0-.11.06-.27.06-.39l1.16,1.17Zm-1.5,2.66v-.23l.11.12Zm0-3.88v0Zm0,.61v.61l-.11-.11a1.5,1.5,0,0,0,.11-.5m0,3v.23l-1.44,1.27-1.22-1.33v-.55l.44.44,1.17-1,.22.21-1.16,1.06.61.66,1.27-1.11Zm-2.66,2.61.11-.06.33-.33c.06-.11.12-.22.17-.33s.06-.22.06-.33a3.3,3.3,0,0,1-.11-.45,3.41,3.41,0,0,0-.34-.5.91.91,0,0,0-.22-.22V81a2.89,2.89,0,0,1,.22.38,1,1,0,0,1,.06.39c0,.11-.06.17-.11.28s-.06.11-.17.17Zm0-3.27,1.11-1-.22-.22-.89.78Zm0-.44v.44l-.11.11.11.17v.55L80,79.5Zm0,1.49a2.3,2.3,0,0,0-.27-.22,1,1,0,0,0-.56-.17v.39c.06,0,.17,0,.22.06a.91.91,0,0,1,.55.44l.06.06Zm0,1.78v.44l-.66.55-.17-.16v-.61l.22.27.5-.33s0-.11.11-.16m-.83-2.17v.39h-.22a2.57,2.57,0,0,0-.44.28l-.45.39,1.11,1.33v.61l-1.55-1.94v-.06l.72-.61c.17-.11.28-.22.39-.27a1.54,1.54,0,0,1,.44-.12m-1.55,4.22v0Zm0-3.22v.06l-.06-.06Zm0,2.72v.5c-.06,0-.06.16-.11.22a1.56,1.56,0,0,1-.45.55,1.18,1.18,0,0,1-.66.28,1.47,1.47,0,0,1-.66-.17.93.93,0,0,1-.39-.28v-.6a.41.41,0,0,0,.11.22,1.21,1.21,0,0,0,.72.49,1.1,1.1,0,0,0,.72-.22.87.87,0,0,0,.38-.61,1.3,1.3,0,0,0-.33-.83.94.94,0,0,0-.44-.38.56.56,0,0,0-.5-.11.63.63,0,0,0-.44.16.91.91,0,0,0-.22.22v-.5a3.06,3.06,0,0,1,.66-.27,1.71,1.71,0,0,1,.72.16,2.1,2.1,0,0,1,.55.5,1.93,1.93,0,0,1,.34.67M76,85.87l.17.28.33-.22-.5-.72Zm0-3.1v.44a.48.48,0,0,0-.17.39.83.83,0,0,0,.17.67v.6l-.17-.16a1.47,1.47,0,0,1-.33-1.11,1,1,0,0,1,.5-.83m0,2.44-1-1.55-.34.16.67.94L74,85.6l-.28-.45v.67l.89,1.32L75,87l-.78-1.11L75.4,85l.56.83Zm-2.22,2.16V86.32l.61,1-.33.23Zm0-2.22v.67l-.66-.95.27-.22Zm0,1.17L72.86,85l-.28.17L73.74,87Zm0,.66v.39l-2.1-.89,1.16,1.83-.28.22-1.11-1.71V86Zm-2.33,2.11a1.08,1.08,0,0,0,.34-.34.82.82,0,0,0,.11-.5,1.89,1.89,0,0,0-.22-.66l-.23-.33v.83a.33.33,0,0,1,.06.39s0,.11-.06.11Zm0-3v.78L71,86.15,71.3,86Zm0,1.22-.55-1.06-.33.17.77,1.39a.72.72,0,0,1,.11.33Zm0,1.33v.5s-.11,0-.16.11a1.89,1.89,0,0,1-.61.22.69.69,0,0,1-.5-.22,1.49,1.49,0,0,1-.44-.56L69.36,88v-.77L70,88.48a1,1,0,0,0,.33.44.51.51,0,0,0,.33.11,1.57,1.57,0,0,0,.39-.11.86.86,0,0,0,.33-.33m-2,1.6a.57.57,0,0,0,.28-.27.48.48,0,0,0,.11-.39,1.25,1.25,0,0,0-.16-.5l-.23-.5v.83a.2.2,0,0,0,.06.17c0,.11-.06.16-.06.22Zm0-2.93V88l-.44-.77.33-.17Zm0,1.27-.61-1.22-.33.17.83,1.72c.06,0,.06.1.11.16Zm0,1.22v.44h0a.8.8,0,0,1-.61.11,1,1,0,0,1-.44-.49l.27-.17a.81.81,0,0,0,.34.33.52.52,0,0,0,.27,0,.7.7,0,0,0,.22-.17M64.6,92V90.3a1.38,1.38,0,0,1,.11.28,1.11,1.11,0,0,1,.11.56,1.08,1.08,0,0,1,0,.44.76.76,0,0,1-.17.33.05.05,0,0,1-.05.06m0-2,.83,2,1.94-.83-.11-.28-1.61.67-.33-.89L66.7,90l-.11-.28-1.43.61-.34-.83,1.55-.61-.16-.33-1.61.72Zm0-.67v.67l-.16-.45V89.3Zm0,1V92l-.16.16v-.5a.88.88,0,0,0,0-.38c0-.11,0-.22,0-.34V90a1.06,1.06,0,0,0,.16.27m-.16-1v.17l-.06-.17Zm0,.73v.88s-.06-.11-.06-.16a1.31,1.31,0,0,0-.39-.61.63.63,0,0,0-.45-.17h0v-.33a1.24,1.24,0,0,1,.45,0,.9.9,0,0,1,.44.34Zm0,1.6v.5l-.06.06a3.1,3.1,0,0,1-.39.16l-.5.17v-.33l.33-.11c.17-.06.33-.11.39-.22a.51.51,0,0,0,.23-.23m-5.27,2.05-.33.06-.45-2.11-.27.28c-.11.11-.23.17-.28.28l-.11-.33a1.68,1.68,0,0,0,.44-.45,1.4,1.4,0,0,0,.22-.44h.23Zm4.32-4V90a3.32,3.32,0,0,0-.39.11l-.55.17.72,2,.22,0v.33l-.44.17-.94-2.61.88-.33a2.43,2.43,0,0,1,.5-.11m-2.05,3.21.06.28-1.78.5V93.4a1.49,1.49,0,0,1,.11-.44,1.25,1.25,0,0,1,.34-.49,4.73,4.73,0,0,0,.44-.73,1.43,1.43,0,0,0,.06-.44.6.6,0,0,0-.22-.33A.58.58,0,0,0,60,91a.44.44,0,0,0-.33.22.56.56,0,0,0,0,.44l-.39.06a.87.87,0,0,1,.11-.66,1,1,0,0,1,.55-.34.69.69,0,0,1,.67.06.54.54,0,0,1,.39.44c0,.11,0,.22,0,.33a1.15,1.15,0,0,1-.11.39,5.1,5.1,0,0,1-.39.61c-.17.22-.22.39-.28.44a.49.49,0,0,0-.11.23Z"/><polygon class="cls-7" points="48.86 89.09 47.26 91.86 44.6 92.63 46.59 94.29 46.04 97.12 48.92 95.9 51.74 97.17 50.97 94.35 53.02 92.52 50.42 91.74 48.86 89.09"/><polygon class="cls-7" points="55.79 0 54.19 2.72 51.47 3.55 53.52 5.21 52.91 7.98 55.79 6.81 58.62 8.09 57.9 5.21 59.95 3.38 57.34 2.66 55.79 0"/><path class="cls-7" d="M48.37,1.44V24.15a24,24,0,0,0-10.31,2.72Z"/><path class="cls-3" d="M37.76,27.22l.38-.21a24,24,0,0,1,10.23-2.7h.15V1.44l-.29-.06Zm10.46-25V24a24.05,24.05,0,0,0-9.86,2.54L48.22,2.22"/><path class="cls-6" d="M48.76,1.5V24.21a23.9,23.9,0,0,1,10.3,2.72Z"/><path class="cls-3" d="M48.6,1.5V24.36h.16A24,24,0,0,1,59,27.06l.38.21L48.9,1.44Zm.31.78L58.76,26.6a24.08,24.08,0,0,0-9.85-2.53V2.28"/><path class="cls-6" d="M88.26,29.92,66.71,37.17a24.15,24.15,0,0,1,.72,10.58Z"/><path class="cls-3" d="M66.51,37.08l0,.14a24,24,0,0,1,.72,10.51l-.08.42L88.36,30l-.15-.26Zm21-6.77L67.64,47.37A26.07,26.07,0,0,0,67.86,44a22.37,22.37,0,0,0-1-6.68l20.67-7"/><path class="cls-7" d="M88,29.53,66.48,36.79a23.85,23.85,0,0,0-5.87-8.87Z"/><path class="cls-3" d="M60.51,28a23.82,23.82,0,0,1,5.83,8.8l0,.14,21.7-7.31,0-.29L60.19,27.74Zm.51.06,26.22,1.54-20.67,7A24,24,0,0,0,61,28.1"/><path class="cls-6" d="M72.14,77.4,59.28,58.67a24.47,24.47,0,0,1-10,3.6Z"/><path class="cls-3" d="M59.19,58.54a24.65,24.65,0,0,1-9.95,3.58l-.43,0L72.05,77.52l.21-.21L59.32,58.45Zm.05.33c.15.23,11.5,16.76,12.32,18L49.68,62.37a24.89,24.89,0,0,0,9.56-3.5"/><path class="cls-7" d="M72.41,77.12,59.56,58.39a23.67,23.67,0,0,0,6.92-8.08Z"/><path class="cls-3" d="M66.35,50.24a24,24,0,0,1-6.88,8l-.12.08L72.28,77.2l.28-.12-6-27.24Zm.07.5c.17.76,5.35,24.21,5.67,25.64L59.77,58.43a24,24,0,0,0,6.65-7.69"/><path class="cls-8" d="M47,47.69H46.6v.17l-.38.16-.49.24v.17c0,.17,0,.19,1.81.09l.6,0h1.13l0,.09h.46l-.17-.17h0c-.07-.13-.14-.28-.14-.28H48.15l-.62,0-.83,0L47,48Zm2.78,1-.06-.07a.16.16,0,0,1-.15.13,13.34,13.34,0,0,0,4.41.45H55a.2.2,0,0,0,0,0l3.93.16v-.35l-3.79-.16,0,0-.35,0-.07.07h0l0,0H54a16,16,0,0,1-4.33-.33Zm-.06-.07Z"/><rect class="cls-9" x="52.57" y="50.61" width="0.41" height="4.71" transform="translate(-1.39 104.5) rotate(-88.68)"/><path class="cls-2" d="M38,67.64c-1.88,2.83,3.66-3.15,5-2.1s1.83,3,1.33,2.88c-.22-.44-6.2-1-6.37-.78"/><path class="cls-3" d="M38.74,67.45c-.77,0-.88.06-.91.1h0c-.41.62-.48.82-.35,1s.43,0,1.38-.75c1.61.06,5,.45,5.35.74.22.12.36.06.43-.08.24-.48-.31-2.15-1.55-3-.85-.65-2.87.9-4.34,2m-.39.3c-.19.15-.34.24-.47.34a2.74,2.74,0,0,1,.18-.32l.29,0m4.55-2.09A3.68,3.68,0,0,1,44.36,68v.34c-.08-.32-2.5-.6-3.93-.73l-1.19-.09c1.24-1,3.05-2.28,3.67-1.81"/><path class="cls-6" d="M23.65,76.29,37.23,58.06a24,24,0,0,1-6.65-8.31Z"/><path class="cls-3" d="M23.51,76.25l.27.13L37.45,58l-.13-.09a24.19,24.19,0,0,1-6.6-8.25l-.17-.4Zm7.12-26.06A24.19,24.19,0,0,0,37,58.08L24,75.56c.37-1.41,6.43-24.62,6.63-25.37"/><path class="cls-7" d="M24,76.45,37.56,58.23a24.24,24.24,0,0,0,9.92,3.93Z"/><path class="cls-3" d="M23.92,76.36l.2.22L47.93,62.07,47.5,62a24.37,24.37,0,0,1-9.85-3.91L37.53,58ZM37.6,58.44a24.54,24.54,0,0,0,9.45,3.81L24.64,75.91c.86-1.17,12.8-17.25,13-17.47"/><polygon class="cls-1" points="51.7 36.79 51.64 36.01 51.7 35.46 52.97 35.79 53.41 35.68 54.3 35.79 54.85 35.68 55.35 35.51 55.35 38.34 52.19 38.84 51.7 36.79"/><path class="cls-3" d="M51.55,36l.06.81.49,2,3.26-.44.08-2.91v-.12l-.62.21-.54.1-.86-.11L53,35.7l-1.23-.33Zm.18,0,.05-.53,1.17.4.48-.1.85.11.59-.11.39-.13v2.7l-3.08.41s-.39-2-.4-2L51.73,36"/><polygon class="cls-7" points="4.27 33.63 2.72 36.4 0 37.17 1.99 38.84 1.44 41.66 4.32 40.44 7.14 41.72 6.37 38.89 8.42 37.06 5.88 36.29 4.27 33.63"/><path class="cls-3" d="M29.28,43.1A19.32,19.32,0,0,0,62.23,56.67,19,19,0,0,0,67.9,43.1a19.31,19.31,0,1,0-38.62,0m.61,0a18.7,18.7,0,0,1,37.4,0A18.41,18.41,0,0,1,61.8,56.24,18.71,18.71,0,0,1,29.89,43.1"/><path class="cls-3" d="M30.85,43a17.83,17.83,0,1,0,17.8-17.8A17.72,17.72,0,0,0,30.85,43m8.68,9.12a12.89,12.89,0,0,1,9.11-22A12.93,12.93,0,0,1,61.59,43a12.93,12.93,0,0,1-22.06,9.12"/><path class="cls-1" d="M62.88,38.12v-.78c.28-.11.5-.28.78-.39l-.78.17v-.56l1.28-.22.28.67Zm0-2.77v-.84l.28-.11.33.56Zm0-.84v.84l-1.44.77v-.77Zm0,2.05v.56c-.27.05-.55.17-.77.22l.17.39c.16-.11.38-.23.6-.39v.78L61.56,39l-.12-.22v-.5l.39-.22-.27-.66h-.12v-.61Zm-1.44-2.05v-.27l.17.16Zm0-.88V32.8l.45-.28.83,1.17-.5.38-.5-.66Zm0-.83v.83l-.28.22.28.39v.27l-.33.28-.44-.61-.55.39V33.8Zm0,2.55v.77l-.88.56-.34-.61Zm0,1.44v.61l-.5.1-.22-.61Zm0,1.49v.5l-.11-.44Zm-1.32-5.59V31.8l.55-.61.44.45Zm0-.89v.89l-1.28,1.44-.5-.44.78-1.89a.87.87,0,0,1,.16-.33c.06-.11.06-.17.11-.22a2.19,2.19,0,0,0-.27.39,2.3,2.3,0,0,0-.39.38l-1,1.06-.28-.23v-.38l2.17-2.28.5.45-.78,1.83c0,.05-.06.11-.11.22a2,2,0,0,1-.22.44c.16-.22.27-.39.38-.55a2.61,2.61,0,0,0,.39-.45Zm0,2-1,.71.38.56.62-.5Zm-2.67-2.33c.11-.17.28-.33.39-.5a2.87,2.87,0,0,0,.44-1.27.93.93,0,0,0-.5-.89l-.33-.17v.72a.53.53,0,0,1,.17.45,1.2,1.2,0,0,1-.17.5Zm0-2.83v.72a.42.42,0,0,0-.5,0l-.11.12V28.7a2.14,2.14,0,0,1,.61-.06m0,1.67v1.16a1.8,1.8,0,0,1-.55.38h-.06v-.77a2,2,0,0,0,.45-.5,1.06,1.06,0,0,1,.16-.27m0,2.16v.38l-.16-.16Zm-.61-3.77v.78a2.76,2.76,0,0,0-.44.55,3.25,3.25,0,0,0-.33.72c0,.22,0,.39.22.44a.35.35,0,0,0,.45,0c0-.05.1-.05.1-.11v.77a.94.94,0,0,1-.88-.11c-.11,0-.22-.16-.34-.22V30c.06-.11.17-.22.23-.33a2,2,0,0,1,.94-.89,0,0,0,0,1,.05-.05m-1.22-.33v-.72h.12l.11.1Zm0-.72v.72l-.1-.12a.24.24,0,0,0-.17-.05.71.71,0,0,0-.66.05,1.31,1.31,0,0,0-.45.67,1.4,1.4,0,0,0-.11.78c.11.27.22.44.44.49.06,0,.12.06.17.06h.17l-.22.61c-.06.05-.17,0-.23,0a.18.18,0,0,1-.16-.06,1.32,1.32,0,0,1-.83-.83,2.07,2.07,0,0,1,.05-1.27,2.33,2.33,0,0,1,.83-1.05,1.39,1.39,0,0,1,1.17-.11c0,.05.1.05.1.11m0,2.32a2.09,2.09,0,0,0-.16.94,1.18,1.18,0,0,0,.16.61ZM47.7,29v-.55h.23c-.06-.28-.12-.5-.17-.78l-.06-.22V26.2h.23l1,3.33-.66,0L48.09,29Zm2.49.61.62-3.38,1.38.28-.11.61L51.36,27l-.17.66.73.11-.12.61-.72-.11-.11.77.78.12-.11.66ZM47.7,26.2v1.28a1.74,1.74,0,0,0-.11-.55,4.31,4.31,0,0,1-.05.77,3.42,3.42,0,0,1-.06.78h.22V29h-.27l-.12.61-.66.06.56-3.5Zm-3.87,4.16V29.7l.27.55Zm0-2.38.55,2.21L45,30l-.33-1.44.77-.17.34,1.44.66-.16-.78-3.27-.66.11.28,1.21-.72.17-.28-1.22-.44.11Zm0-1.17V28l-.22-1.11Zm0,2.89v-.06l-.72.33L42,27.48h-.06V29l.83,1.83,1.06-.5Zm-1.89,1.6v-.94l.61.55Zm0-3.82V29l-.55-1.28Zm0,2.88L40.67,29v.83a4.53,4.53,0,0,0,.49.55l-.38.28-.11-.33v1.71l.55-.33L41,31.19l.55-.33.39.44ZM40.67,29v.83a4.67,4.67,0,0,1-.5-.61l.33.67a4.1,4.1,0,0,0,.17.44v1.71l-.06.06-.77-2.38V28.59l.27-.17Zm-.83,3.77c0-.06.11-.17.16-.23s.11-.21.17-.33a.78.78,0,0,0-.06-.39.85.85,0,0,0-.22-.38l0-.06Zm0-4.21v1.16l-.33-.94Zm0,2.82V32.8c-.12.05-.17.16-.34.28l-.44.38-.33-.38v-1l.44.5,0,0c.17-.11.23-.22.23-.33a.42.42,0,0,0-.11-.34.51.51,0,0,0-.33-.16.36.36,0,0,0-.28.11V30.19l.16.17a1.1,1.1,0,0,1,.22.39.71.71,0,0,1-.1.44.85.85,0,0,1,.5,0c.1,0,.21.11.33.22M38.73,33.8v-.28l.16.11Zm0-3.61V31.8s-.06,0-.06.05l-.05.06.11.16v1l-.61-.72v-1l.16.16.06-.05c.11-.11.22-.22.22-.33a.42.42,0,0,0-.11-.34.47.47,0,0,0-.33-.16V30h.11a.7.7,0,0,1,.5.22m0,3.33v.28l-.28.33L38.12,34v-.72ZM38.12,30v.67a.51.51,0,0,0-.34.16l-.05.06.39.5v1l-.94-1.17v-.61l.22-.17a2.94,2.94,0,0,1,.72-.44m0,3.27V34L38,33.85l-.44.55.39.45-.45.49L37.18,35V34l.27-.39a.37.37,0,0,1-.27-.11v-.72Zm-.94,2.66.33-.56-.33-.05Zm0-5.32v.61l-.33-.33Zm0,2.16v.72a1.41,1.41,0,0,0-.39-.22A2.84,2.84,0,0,0,36.4,33v-.6Zm0,1.22c-.22-.22-.39-.44-.56-.61l-.22-.22V34l.78.94Zm0,1.33v.61l-.06.05-.72-.11v-.6ZM36.4,37v-.77l.45.27-.34.56Zm-.5,1.5-1-.45v-.71l1.33.49Zm.5-6.09V33l-.33-.16.33.33V34l-1-1.39.44-.56Zm0,2.88v.6l-.77-.11.77.45V37l-1.55-.88v-.78l.33.22s0,0,.06,0V35.4c0-.11.11-.22,0-.33a.64.64,0,0,0-.27-.28.23.23,0,0,0-.17,0v-.67a.62.62,0,0,1,.44.17,1.05,1.05,0,0,1,.45.39.82.82,0,0,1,.11.5ZM34.85,38l-1.5-.6-.22.49-.55-.27L33.19,36l.61.28-.22.44,1.27.56Zm0-3.93h-.28a1.23,1.23,0,0,0-.61.67l-.38.6,1.27.73v-.78l-.5-.28s.06,0,.06,0a.44.44,0,0,1,.27-.28.19.19,0,0,1,.17.06Z"/><path class="cls-1" d="M63.88,50.86v-.72l.33.22-.27.55Zm0-1.83v-.67l1,.34-.22.66Zm0-1.44v-.67a3.17,3.17,0,0,0,.72.06.5.5,0,0,0,.33-.33.38.38,0,0,0-.16-.45,3.78,3.78,0,0,0-.78-.33h-.11v-.66a.66.66,0,0,1,.28,0,2.26,2.26,0,0,1,1.16.56,1.06,1.06,0,0,1,.22,1,.9.9,0,0,1-.61.73,1.69,1.69,0,0,1-1.05.05m0-2.38v.66a4.35,4.35,0,0,0-.72,0,.48.48,0,0,0-.39.33.51.51,0,0,0,.22.44,2.18,2.18,0,0,0,.78.33h.11v.67c-.11,0-.22,0-.27-.05a3.06,3.06,0,0,1-.84-.28v-2h.06a1.65,1.65,0,0,1,1.05,0m0,3.15V49l-1.11-.38v-.73Zm0,1.78v.72l-1.11-.11V50.3c.17,0,.28.06.45.06a3.61,3.61,0,0,1-.45-.17v-.66Zm-1.11,2.71v-.61l.34.17Zm0-.94v-.66l.78.39-.33.55Zm0-6.65v2c-.16-.11-.27-.17-.33-.28a1,1,0,0,1-.28-1,1,1,0,0,1,.61-.72m0,2.66-.44-.17.17-.44L61.88,47l-.6,1.55.6.28.17-.44.72.23Zm0,1.61v.66c-.05,0-.11,0-.16,0s-.33-.17-.5-.28l-1.17-.61.34-.55Zm0,.72H62.5L60.78,50v.83l2,1.11v-.66L62.28,51c-.23-.11-.4-.22-.56-.28a1.29,1.29,0,0,0-.39-.22c.06,0,.11.05.23.05a1.4,1.4,0,0,1,.32.12l.89.11Zm0,2v.61l-.05.11-.56-.27-.44.55.44.45-.44.49L60.78,53v-.89l0,.06c.17.22.39.39.56.61l.27-.39L61,52.08a.41.41,0,0,0-.22-.11V51.3Zm-2,2.89.16-.17a1,1,0,0,0,.34-.72,1.25,1.25,0,0,0-.39-.67c-.06,0-.06-.11-.11-.11Zm0-5.16v.83l-.56-.28.33-.6Zm0,1.33V52c-.17-.12-.33-.23-.5-.33l.5.49V53L59.5,51.47l.45-.56Zm0,2.16c-.11-.05-.17-.11-.28-.16a1.21,1.21,0,0,0-.66,0h-.45a.29.29,0,0,1-.22-.12c-.11,0-.11-.16-.17-.22a.29.29,0,0,1,.12-.22c.05-.05.11-.11.16-.11a1.39,1.39,0,0,1,.28-.16l-.44-.39c-.12.05-.23.05-.28.11s-.11.11-.17.11v1.39h.06a.73.73,0,0,0,.44.27,2,2,0,0,0,.67.06A.17.17,0,0,0,60,54a.69.69,0,0,1,.5.11.36.36,0,0,1,0,.5.91.91,0,0,1-.23.17,2.24,2.24,0,0,1-.27,0l.5.5c.1,0,.16-.11.27-.11s.06,0,.06,0ZM58.67,56.9V55.13a1.77,1.77,0,0,1,.33,1,1,1,0,0,1-.33.78m0-4.6v1.39a1.1,1.1,0,0,1-.33-.67.69.69,0,0,1,.28-.61c0-.06.05-.06.05-.11m0,2.83V56.9l-.11.11a1,1,0,0,1-1,.11,1.69,1.69,0,0,1-.83-.61V55.18a2.49,2.49,0,0,0,.39.72,2.06,2.06,0,0,0,.61.61.42.42,0,0,0,.44-.06c.17-.05.22-.22.17-.44a2.49,2.49,0,0,0-.39-.72,2.06,2.06,0,0,0-.61-.61.66.66,0,0,0-.44,0c-.11.11-.17.17-.17.28v-.89a1,1,0,0,1,.78,0,2,2,0,0,1,1,.83.91.91,0,0,0,.16.23m-1.94-1.06v2.44c0-.06-.11-.17-.16-.22a2,2,0,0,1-.5-1.22,1.07,1.07,0,0,1,.44-.89.5.5,0,0,1,.22-.11m0,3.93-1.27-2.43.44-.22-.28-.56-1.32.72v.39l.11.22.44-.22,1.27,2.44ZM54.3,59.17v-.28l.16.22Zm0-1.28V56.07l1.05,2.65-.67.28Zm0-2.38v.39l-.23-.33Zm0,.56-.23-.5-.11,0v1.44l.34.83Zm0,2.82v.28l-.34,0v-.77ZM54,55.62v1.44l-.5-1.22Zm0,2.83-.55-.67a.69.69,0,0,0,.28-.38,1.25,1.25,0,0,0,0-.61,1.09,1.09,0,0,0-.45-.61.62.62,0,0,0-.44-.06v.5a.05.05,0,0,0,.05.06c.12,0,.17.16.23.33a.52.52,0,0,1,0,.39c-.06.05-.17.16-.28.16v2l.44-.16-.39-1.33.89,1.16.22-.06ZM52.8,56.12v.5a.43.43,0,0,0-.27.06h-.06l.22.94h.06l0-.06v2h-.22L51.86,57v-.67l.5-.16a1.12,1.12,0,0,1,.44-.06m-.94,3.6H52l-.16-.94Zm0-3.38V57l-.17-.67Zm0,2.44-.5-2.38-.61.11v.17l.61,3.15.5-.11Zm-1.11-.89v0Zm0-1.38v.17l-.06-.17Zm0,.83a1,1,0,0,0-.33-.55,1,1,0,0,0-.56-.17v.55c.06,0,.06,0,.11.06a.44.44,0,0,1,.11.33A.46.46,0,0,1,50,58c-.06,0-.11.11-.17.11v.55a1,1,0,0,0,.67-.33.93.93,0,0,0,.22-.39Zm-.89-.72v.55a.46.46,0,0,0-.22-.05,0,0,0,0,0,0,.05l0,.95h0a.21.21,0,0,1,.17-.06v.55h-.17L49.81,60l-.67.06-.27-3.38.72-.06Zm-2.55,3.32v-.72c.06.06.12.12.17.12s.17,0,.28.11.17-.06.27-.11a.31.31,0,0,0,.12-.23c0-.16-.12-.27-.28-.44l-.11-.11a1,1,0,0,1-.39-.5.2.2,0,0,1-.06-.17v-.66a1,1,0,0,1,.22-.39,1,1,0,0,1,.67-.28.4.4,0,0,0,.28.06,1,1,0,0,0,.28.17v.61a.64.64,0,0,1-.28-.17h-.22a.39.39,0,0,0-.23.05.46.46,0,0,0-.1.23,2.24,2.24,0,0,0,0,.27l.33.34a3.83,3.83,0,0,1,.45.49,1.54,1.54,0,0,1,.05.5,1,1,0,0,1-.28.72,1,1,0,0,1-.72.23.65.65,0,0,1-.33-.06s-.11-.06-.17-.06m0-2.82.06-.56h-.06Zm0-.56v.56l-.05.11-.72-.11-.11.66.66.11-.05.62-.72-.12-.11.77.77.12-.06.66-1.43-.22L46,56.4Zm0,.67a1.11,1.11,0,0,0,0,.66Zm0,2c-.05,0-.05-.06-.05-.06l0,.73s0,0,.1,0Zm-3.87-.11v-.66l.11-.11a1.58,1.58,0,0,0,.39-.72,2.77,2.77,0,0,0,.16-.83c-.05-.17-.11-.34-.28-.39a.44.44,0,0,0-.38.05v-.72a1.72,1.72,0,0,1,.55.06,1,1,0,0,1,.72.72,2.5,2.5,0,0,1-.16,1.38A1.93,1.93,0,0,1,43.82,59a.48.48,0,0,1-.38.16m0-3.38v.72l-.11.11a3.85,3.85,0,0,0-.39.72,1.56,1.56,0,0,0-.11.84.43.43,0,0,0,.28.39.66.66,0,0,0,.33-.06v.66a1.06,1.06,0,0,1-.56,0,1.25,1.25,0,0,1-.5-.39V56.9a2.11,2.11,0,0,1,.67-.95,1.54,1.54,0,0,1,.39-.22M42.38,56.9a1.67,1.67,0,0,0,.17-1.22.57.57,0,0,0-.17-.39Zm0-1.61V56.9a.18.18,0,0,0-.05.11,2.57,2.57,0,0,1-.56.72,1.57,1.57,0,0,1-.55.27v-.72a2,2,0,0,0,.5-.6,1.5,1.5,0,0,0,.22-.78.7.7,0,0,0-.39-.5l0,0-.28.55V54.51l.5.28a1.92,1.92,0,0,1,.66.5m0,1.61c0,.05-.05.11-.05.16a2.24,2.24,0,0,0-.11,1.33.45.45,0,0,0,.16.33Zm-1.16-2.39V55.9l-.72,1.38h.06a.54.54,0,0,0,.6,0h.06V58h-.55a2.42,2.42,0,0,1-.61-.27l-.23-.11v-.56Zm-1.39.34a1,1,0,0,0,.23-.61.88.88,0,0,0-.23-.83Zm0-1.44v1.44a1.56,1.56,0,0,1-.39.55,1.77,1.77,0,0,1-1,.72.65.65,0,0,1-.33.06v-.67a.56.56,0,0,0,.28,0A2,2,0,0,0,39,55a3,3,0,0,0,.43-.72.58.58,0,0,0-.16-.5.33.33,0,0,0-.44,0,2,2,0,0,0-.67.5.26.26,0,0,1-.11.16v-.94a1.3,1.3,0,0,1,.72-.38.85.85,0,0,1,.94.22.11.11,0,0,1,.11.11m0,3.65v.56l-.22-.11Zm-1.77-3.71a1.71,1.71,0,0,0,.33-.66,1.62,1.62,0,0,0-.33-1Zm0-1.71v1.71c-.11.17-.28.28-.38.45l-.5.32V53.3h0a1.91,1.91,0,0,0,.5-.67.64.64,0,0,0-.17-.61L37.51,52l-.33.27v-.88l.38-.28.39.44.11.12m0,1.82c-.11.11-.28.22-.38.34a3.81,3.81,0,0,0-.5.77v1a1.31,1.31,0,0,0,.27.33.89.89,0,0,0,.61.28v-.67a.26.26,0,0,1-.16-.11.37.37,0,0,1-.17-.44,2.17,2.17,0,0,1,.33-.56Zm-.88-2.71v-.28l.11.17Zm0-.28v.28l-.61.61V50.14L36.9,50Zm0,.89v.88l-.61.5v-.89Zm0,1.94v.82c-.12.06-.17.12-.28.12a.76.76,0,0,1-.33,0v-.66a1.83,1.83,0,0,0,.61-.33m0,1.27v1a1.89,1.89,0,0,1-.12-.61,3.11,3.11,0,0,0,.12-.39m-.61-4.82v-.17l0,.12Zm0-.17v.17l-.5.22-.22-.44-.06,0V48.25l.06,0Zm0,.56v1.22l-.78.77V51.3l.06-.11.66-.5-.72.33v-.61Zm0,1.71-.78.73v1.54a1.81,1.81,0,0,0,.39.17h.39v-.66h-.11a.6.6,0,0,1-.56-.22v-.06l.67-.61Zm-.78-3.65v0Zm-1.94-2.55,1.22-.28.33,1.39-.6.16-.17-.77-.67.17.17.71-.28.06Zm1.94,2.1s0,0,0-.11a.79.79,0,0,0-.45-.55,1.46,1.46,0,0,0-.72,0,.91.91,0,0,0-.44.28c-.11.11-.17.22-.28.33v1.22c.06,0,.11-.06.17-.11a1.34,1.34,0,0,0,.33-.5,2.4,2.4,0,0,1,.22-.44.29.29,0,0,1,.23-.12.26.26,0,0,1,.27,0,.3.3,0,0,1,.11.23c.06,0,.06.05.06.16a.56.56,0,0,1-.06.28l.61-.17v-.5Zm0,.5v1.33l-1.94.94v-.71l1.72-.89-.28-.39Zm0,2.16-1.94.67v.44l.11.22.55-.22.4.56-.45.44.34.56,1-.95V51.3a4.78,4.78,0,0,0-.5.44l-.22-.38c.22-.11.5-.22.72-.34Zm0,2.17v1.54l0,0a1.61,1.61,0,0,1-.45-.44L35,53.24Zm-4-6.43,2.05-.5v1.44l-.33.06-.17-.67-.77.17.17.77-.67.12Zm2.05,1.55v1.22a.46.46,0,0,1-.22.11,1,1,0,0,1-.78,0,1.14,1.14,0,0,1-.49-.55c0-.12-.06-.23-.06-.34a.55.55,0,0,1,.06-.27l.66-.23a1.19,1.19,0,0,0-.11.28.4.4,0,0,0,.06.28c0,.11.05.16.16.22a.24.24,0,0,0,.28,0c.11,0,.22-.17.27-.33s.06-.11.06-.17.06-.11.11-.22m0,2.11v.71l-.44.28-.33-.61Zm0,1.27v.44l-.22-.33Z"/><path class="cls-10" d="M48.59,55.13A12.14,12.14,0,1,1,60.72,43,12.18,12.18,0,0,1,48.59,55.13"/><polygon class="cls-11" points="36.4 42.6 36.4 43.33 36.51 43.99 36.51 44.27 36.51 44.71 36.62 45.15 36.68 45.7 36.68 46.04 36.79 46.26 37.29 47.09 37.34 47.87 37.51 48.2 37.68 48.59 38.51 49.75 39.22 50.8 40.22 51.8 41.16 52.63 41.89 53.18 42.66 53.57 43.11 53.85 43.38 53.96 44.49 54.46 45.99 54.9 47.26 55.07 48.37 55.18 49.09 55.18 49.92 55.13 50.53 55.01 51.36 54.85 52.08 54.63 53.24 54.24 54.13 53.74 55.02 53.35 55.96 52.69 56.79 51.97 57.56 51.19 58.17 50.47 58.89 49.31 59.62 48.2 59.95 47.48 60.34 46.09 60.61 44.88 60.72 44.21 60.72 43.6 60.72 43.1 60.72 42.55 36.4 42.6"/><path class="cls-8" d="M42.71,48.3h-.6v.21l-.47.16-.56.25v.18c.05.19.05.22,2.3.09l.78,0h1.56c0,.06.05.37.05.37l.21,0v.07l.12,0a19.42,19.42,0,0,0,5.68.46h1.36v0l5,.21h.06v-.35l-5-.21a1.47,1.47,0,0,1,.07-.17v-.59l-.37.6s0,0-.06.06l-.09,0v.09h-1a20.31,20.31,0,0,1-5.45-.42V49l-.21.08,0,0s0-.24,0-.24l-.17-.08H44.16l-.8,0-1.31.06.66-.25Z"/><path class="cls-8" d="M41.11,51h-.55v.18l-.48.16-.53.21v.15c0,.18,0,.19,2.2.09l.75,0h1.6l.26.54,0-.15a26.33,26.33,0,0,0,5.47.34h.76v0l.06,0H51l0-.05,4.91.16v-.32l-4.71-.16s0,0,0-.07v-.59l-.42.71h-1a27,27,0,0,1-5.33-.32v-.25l-.21.11h0l-.08-.21-.14-.06H42.5l-.76,0-1.21,0,.58-.21Z"/><path class="cls-8" d="M46.1,49.24h-.45v.18l-.38.15-.47.25V50c.05.18.05.19,1.8.09l.61,0h1.18s0,.1,0,.1h.17v.24l.13,0a16.19,16.19,0,0,0,4.41.35h1v0l3.88.16v-.35l-3.73-.16a.39.39,0,0,0,0-.06l-.35,0-.06.07h0a.33.33,0,0,1,0,.06h-.72a15.72,15.72,0,0,1-4.3-.33l0,.05h0l0,0,.07.1-.07-.1a.15.15,0,0,1-.13.11l-.08-.12h.19L48.7,50h0l-.15-.28H47.21l-.63,0-.82,0,.34-.15Zm2.74.89,0,0h0v0Z"/><path class="cls-3" d="M36.1,43.05A12.49,12.49,0,1,0,48.59,30.56,12.5,12.5,0,0,0,36.1,43.05m.71,0A11.78,11.78,0,1,1,48.59,54.82,11.79,11.79,0,0,1,36.81,43.05"/><rect class="cls-9" x="51.43" y="42.61" width="0.35" height="3.6" transform="translate(6.46 95.37) rotate(-89.17)"/><rect class="cls-9" x="57.66" y="42.99" width="0.42" height="4.71" transform="translate(11.89 102.72) rotate(-89.37)"/><polygon class="cls-8" points="56.62 46.38 60.22 46.49 60.23 46.14 56.63 46.03 56.62 46.38"/><path class="cls-3" d="M51.79,40l-.31.07-.07.17v.22a1.19,1.19,0,0,0-.23.16l0,0-.14.1v0l0,.28.13-.22.13-.11a1.32,1.32,0,0,1,.16-.12l.1-.1.06-.28c0-.05.32-.12.32-.12l.19-.1,0-.12Z"/><rect class="cls-5" x="48.99" y="37.9" width="0.53" height="0.5"/><rect class="cls-5" x="49.71" y="37.84" width="0.53" height="0.5"/><rect class="cls-5" x="50.43" y="37.5" width="0.53" height="0.56"/><rect class="cls-12" x="51.92" y="35.79" width="3.71" height="3.1"/><path class="cls-3" d="M51.78,35.66V39h4V35.66Zm3.71,3.1H52.05V35.92h3.44Z"/><polygon class="cls-1" points="48.65 38.95 48.65 37.12 52.53 36.73 52.63 40.55 48.65 40.06 48.65 38.95"/><path class="cls-3" d="M48.47,37v3.25l4.35.55-.12-4.22Zm3.88,0c0,.32.09,3.07.1,3.42l-3.63-.45V37.28l3.53-.35"/><polygon class="cls-2" points="60.5 42.16 60.39 41.27 58.23 39.95 57.95 39.56 57.51 38.78 55.57 37.78 54.41 37.45 53.74 37.62 53.13 38.12 52.08 39.11 52.02 39.94 51.19 39.94 50.58 39.56 49.75 38.89 49.14 38.89 48.76 38.95 47.53 39.45 47.04 40.06 46.21 40.94 45.71 41.22 45.16 41.77 44.21 42.44 43.66 42.82 42.99 43.33 42.83 43.94 60.61 43.94 60.5 42.16"/><path class="cls-3" d="M53.7,37.44,53,38,52,39s-.06.55-.09.78h-.67l-.51-.36-.81-.65-.73,0-.41.06-1.26.51-.57.66-.82.88-.46.24-.59.59-1.47,1-.67.5-.24.71-.06.23H60.81l-.13-2-.12-1-2.23-1.38-.23-.34-.43-.76-2-1.07-1.19-.34Zm-1.51,2.69.07-1,1-.88.6-.49.59-.13,1.07.33,1.91,1,.37.71.28.4,2.14,1.33c0,.14.1.78.1.79s.08,1.28.1,1.58H43.06l.11-.38.6-.4,1.49-1,.58-.57.46-.25.87-.92.51-.62,1.15-.45.34,0h.58l.72.63.63.4.92,0Z"/><polygon class="cls-13" points="52.86 36.07 48.7 36.68 48.15 37.5 52.3 37.17 52.86 36.07"/><path class="cls-3" d="M48.69,36.58l-.63.87-.11.17,4.36-.35L53,36.11l.08-.17Zm.09.15,3.9-.54c-.12.25-.47.94-.47.94l-3.87.26c.15-.21.44-.66.44-.66"/><rect class="cls-5" x="48.76" y="37.73" width="0.66" height="0.55"/><rect class="cls-5" x="49.36" y="37.78" width="0.66" height="0.55"/><rect class="cls-5" x="49.97" y="37.67" width="0.66" height="0.55"/><rect class="cls-5" x="50.42" y="37.62" width="0.66" height="0.55"/><rect class="cls-5" x="51.08" y="37.56" width="0.67" height="0.61"/><rect class="cls-5" x="52.69" y="36.51" width="0.66" height="0.55"/><rect class="cls-5" x="53.46" y="36.45" width="0.66" height="0.55"/><rect class="cls-5" x="54.41" y="36.45" width="0.66" height="0.55"/><polygon class="cls-13" points="53.52 34.57 51.25 36.07 56.01 36.07 53.52 34.57"/><path class="cls-3" d="M51,36.16h5.37l-2.81-1.69Zm2.56-1.48L55.69,36H51.55l2-1.3"/><polygon class="cls-3" points="53.45 34.52 53.59 34.52 53.59 33.96 53.45 34.52"/><polygon class="cls-3" points="53.3 34.2 53.63 34.2 53.3 34.06 53.3 34.2"/><path class="cls-7" d="M9.2,29.64l21.5,7.42a24,24,0,0,0-.84,10.58Z"/><path class="cls-3" d="M9.1,29.75,30.08,48,30,47.62a24.11,24.11,0,0,1,.83-10.51l.05-.14L9.25,29.49Zm.79.29,20.63,7.12a22,22,0,0,0-1.06,6.93,25.83,25.83,0,0,0,.19,3.17L9.89,30"/><path class="cls-6" d="M9.37,29.25l21.49,7.43a23.89,23.89,0,0,1,5.93-8.81Z"/><path class="cls-3" d="M9.36,29.1l0,.3L31,36.87l.05-.14A24.07,24.07,0,0,1,36.89,28l.32-.29Zm27-1.06a24.15,24.15,0,0,0-5.62,8.45c-.26-.09-19.22-6.65-20.61-7.12L36.39,28"/><polygon class="cls-3" points="36.38 44.43 36.55 45.89 37.16 47.53 37.83 48.92 38.62 50.16 38.84 50.02 38.06 48.79 37.41 47.42 36.8 45.83 36.64 44.42 36.7 42.55 36.43 42.54 36.38 44.43"/><path class="cls-14" d="M36.51,42.72h7.15c0-1-1.33-.95-1.33-.95l-1.72-.49-1.22-.72L38,41l-.44.51Z"/><path class="cls-3" d="M37.9,40.83l-.52.55-1.24,1.51h7.78l-.08-.17-.3-.73a1.79,1.79,0,0,0-1.22-.39l-1.66-.5-1.24-.74Zm-.25.78.44-.5,1.28-.36,1.15.68,1.76.51a1.72,1.72,0,0,1,1,.3l.11.3H36.89l.76-.93"/><rect class="cls-9" x="39.82" y="45.43" width="0.41" height="4.71" transform="translate(-8.24 87.22) rotate(-89.3)"/><rect class="cls-9" x="38.69" y="40.64" width="0.41" height="4.76" transform="translate(-4.59 81.39) rotate(-89.31)"/><polygon class="cls-3" points="51.64 56.68 50.69 57.17 50.81 57.4 51.75 56.95 51.64 56.68"/><path class="cls-3" d="M50.52,57.12l.22.45L51.91,57l-.21-.53Zm1-.26v0l-.55.25.54-.28"/><path class="cls-8" d="M36.56,43.72l3.25.13a6.67,6.67,0,0,1-.8.07,2.28,2.28,0,0,1-1,.17c-.57,0-1,0-1,.4v.17l5.45.1a.8.8,0,0,0-.24.56v.18h.95a10.63,10.63,0,0,1-3,.25h-.62l-.07.18-.08.17v.18c.14.29,2.15.23,2.4.17s.26-.12.26-.25l-.17.18.51-.09.5-.08.07-.07.12-.17,3.5.25,0-.36-3-.18.13,0a.69.69,0,0,1,.18-.1v0h.07l0-.09c0-.12,0-.27,0-.27H42.64a.61.61,0,0,1,.44-.37h.25v-.35l-4.47-.08a.67.67,0,0,0,.27-.12c0,.06,1.69,0,2-.4l.2-.27-4.72-.18Zm5.12,2.35a7.65,7.65,0,0,1-1.67,0h.17c.47,0,1,0,1.5,0"/><rect class="cls-9" x="46.22" y="51.88" width="0.41" height="4.77" transform="translate(-8.36 100.08) rotate(-89.36)"/><rect class="cls-9" x="48.52" y="51.24" width="0.42" height="4.71" transform="translate(-5.45 101.68) rotate(-89.31)"/><path class="cls-8" d="M48.06,44.43l-1.14-.09v.18h1.23l1.16-.05v-.18c-1.25,0-1.25,0-1.25.14"/><rect class="cls-9" x="42.8" y="46.4" width="0.61" height="7.98" transform="matrix(0.01, -1, 1, 0.01, -7.58, 93.14)"/><rect class="cls-9" x="41.63" y="41.69" width="0.61" height="7.97" transform="translate(-4.01 87.31) rotate(-89.62)"/><path class="cls-1" d="M33.58,42.33a.63.63,0,0,1-.61-.67.61.61,0,1,1,1.21,0,.63.63,0,0,1-.6.67"/><path class="cls-3" d="M32.83,41.66a.75.75,0,1,0,1.49,0,.75.75,0,0,0-1.49,0m.27,0a.48.48,0,0,1,.95,0,.48.48,0,1,1-.95,0"/><path class="cls-1" d="M64,42.5a.62.62,0,0,1-.61-.62.61.61,0,1,1,1.22,0,.62.62,0,0,1-.61.62"/><path class="cls-3" d="M63.25,41.88a.75.75,0,0,0,.74.75l.52-.22.22-.53a.74.74,0,1,0-1.48,0m.27,0a.48.48,0,1,1,.95,0l-.14.34-.34.14a.48.48,0,0,1-.47-.48"/></g></g></svg>