<svg xmlns="http://www.w3.org/2000/svg" viewBox="0 0 85.79 51.48"><defs><style>.cls-1{fill:#fff;}</style></defs><title>icone-teclado-ativo</title><g id="Layer_2" data-name="Layer 2"><g id="Layer_1-2" data-name="Layer 1"><path class="cls-1" d="M84.12,1.68A5.52,5.52,0,0,0,80.07,0H5.72a5.48,5.48,0,0,0-4,1.68A5.48,5.48,0,0,0,0,5.72v40a5.5,5.5,0,0,0,1.68,4,5.48,5.48,0,0,0,4,1.68H80.07a5.72,5.72,0,0,0,5.72-5.72v-40A5.51,5.51,0,0,0,84.12,1.68Zm-4.22,46h-74a2.34,2.34,0,0,1-2.34-2.34V6.1A2.34,2.34,0,0,1,5.89,3.76h74A2.33,2.33,0,0,1,82.24,6.1V45.38A2.34,2.34,0,0,1,79.9,47.72Z"/><path class="cls-1" d="M12.15,40h4.29a.64.64,0,0,0,.72-.72V35a.63.63,0,0,0-.72-.71H12.15a.63.63,0,0,0-.71.71v4.29A.63.63,0,0,0,12.15,40Z"/><path class="cls-1" d="M12.15,28.6h10a.64.64,0,0,0,.72-.72V23.59a.63.63,0,0,0-.72-.71h-10a.63.63,0,0,0-.71.71v4.29A.63.63,0,0,0,12.15,28.6Z"/><path class="cls-1" d="M12.15,17.16h4.29a.64.64,0,0,0,.72-.72V12.15a.63.63,0,0,0-.72-.71H12.15a.63.63,0,0,0-.71.71v4.29A.63.63,0,0,0,12.15,17.16Z"/><path class="cls-1" d="M62.92,34.32H23.32a.43.43,0,0,0-.44.44V39.6a.44.44,0,0,0,.44.44H62.48a.44.44,0,0,0,.44-.44Z"/><path class="cls-1" d="M28.6,27.88a.63.63,0,0,0,.71.72H33.6a.64.64,0,0,0,.72-.72V23.59a.63.63,0,0,0-.72-.71H29.31a.63.63,0,0,0-.71.71v4.29Z"/><path class="cls-1" d="M23.59,17.16h4.29a.64.64,0,0,0,.72-.72V12.15a.63.63,0,0,0-.72-.71H23.59a.63.63,0,0,0-.71.71v4.29A.63.63,0,0,0,23.59,17.16Z"/><path class="cls-1" d="M40,27.88a.63.63,0,0,0,.71.72H45a.64.64,0,0,0,.72-.72V23.59a.63.63,0,0,0-.72-.71H40.75a.63.63,0,0,0-.71.71v4.29Z"/><path class="cls-1" d="M35,17.16h4.29a.64.64,0,0,0,.72-.72V12.15a.63.63,0,0,0-.72-.71H35a.63.63,0,0,0-.71.71v4.29A.63.63,0,0,0,35,17.16Z"/><path class="cls-1" d="M51.48,27.88a.63.63,0,0,0,.71.72h4.29a.64.64,0,0,0,.72-.72V23.59a.63.63,0,0,0-.72-.71H52.19a.63.63,0,0,0-.71.71Z"/><path class="cls-1" d="M73.64,34.32H69.35a.63.63,0,0,0-.72.71v4.29a.64.64,0,0,0,.72.72h4.29a.63.63,0,0,0,.71-.72V35A.63.63,0,0,0,73.64,34.32Z"/><path class="cls-1" d="M46.47,17.16h4.29a.64.64,0,0,0,.72-.72V12.15a.63.63,0,0,0-.72-.71H46.47a.63.63,0,0,0-.71.71v4.29A.63.63,0,0,0,46.47,17.16Z"/><path class="cls-1" d="M57.91,17.16H62.2a.64.64,0,0,0,.72-.72V12.15a.63.63,0,0,0-.72-.71H57.91a.63.63,0,0,0-.71.71v4.29A.63.63,0,0,0,57.91,17.16Z"/><path class="cls-1" d="M62.92,27.88a.63.63,0,0,0,.71.72h10a.63.63,0,0,0,.71-.72V12.15a.63.63,0,0,0-.71-.71H69.35a.63.63,0,0,0-.72.71V22.88h-5a.63.63,0,0,0-.71.71v4.29Z"/></g></g></svg>