<svg xmlns="http://www.w3.org/2000/svg" viewBox="0 0 145.4 145.4"><defs><style>.cls-1{fill:#6584cc;}.cls-2{fill:none;stroke:#6584cc;stroke-linecap:round;stroke-linejoin:round;stroke-width:3.09px;stroke-dasharray:5.73 5.73;}.cls-3{fill:#fff;}</style></defs><title>icone-chatbot-microfone-ativo</title><g id="Layer_2" data-name="Layer 2"><g id="Layer_1-2" data-name="Layer 1"><circle class="cls-1" cx="72.7" cy="72.7" r="60.71"/><circle class="cls-2" cx="72.7" cy="72.7" r="71.16" transform="translate(-30.11 72.7) rotate(-45)"/><g id="XeAEK5"><path class="cls-3" d="M74.06,44.22c2.73.62,5.23,1.63,7.06,3.91a11,11,0,0,1,2.43,6.94c0,7.25,0,14.5,0,21.74a10.87,10.87,0,1,1-21.74,0c0-7.09,0-14.19,0-21.28,0-5.93,3.25-9.87,9.09-11.11a1.56,1.56,0,0,0,.41-.2Z"/><path class="cls-3" d="M69.16,113.18c0-3.52-.07-7,0-10.56,0-1.05-.23-1.51-1.34-1.71A25.27,25.27,0,0,1,47.47,79.56a19.08,19.08,0,0,1,0-2.52h5.94a18.08,18.08,0,0,0,8.32,15.09,19.95,19.95,0,0,0,25-2.51A17.87,17.87,0,0,0,91.93,77h6a18.78,18.78,0,0,1-1.63,8.58c-3.57,8.26-9.9,13.28-18.62,15.28-1.1.25-1.51.55-1.49,1.73.07,3.52,0,7,0,10.56Z"/></g></g></g></svg>