<svg xmlns="http://www.w3.org/2000/svg" viewBox="0 0 53.59 40.75"><defs><style>.cls-1{fill:#00aaef;}</style></defs><title>icone-avançar</title><g id="Layer_2" data-name="Layer 2"><g id="Layer_1-2" data-name="Layer 1"><g id="N0npW9"><path class="cls-1" d="M36.79,25.26H5.13a4.88,4.88,0,1,1-.25-9.75c6.22,0,12.44,0,18.66,0H36.91c-.21-.23-.34-.38-.48-.52-2.23-2.24-4.49-4.45-6.7-6.71a4.84,4.84,0,0,1,2.09-8,4.65,4.65,0,0,1,4.82,1.2c1.52,1.47,3,3,4.49,4.48q5.4,5.4,10.81,10.81A4.88,4.88,0,0,1,52,24q-7.62,7.63-15.26,15.25a4.85,4.85,0,0,1-8.19-2.22,4.65,4.65,0,0,1,1.3-4.64C32,30.21,34.18,28,36.38,25.84a6.26,6.26,0,0,1,.49-.41Z"/></g></g></g></svg>