<svg xmlns="http://www.w3.org/2000/svg" viewBox="0 0 93.53 87.17"><defs><style>.cls-1{fill:#ffca4f;}.cls-2{fill:#20d0c2;}.cls-3{fill:#1a91a1;}.cls-4{fill:#fff;}.cls-5{fill:#ecf0f1;}.cls-6{fill:#ff5b61;}.cls-7{fill:#ffba1b;}.cls-8{fill:#f5a209;}.cls-9{fill:#666;}.cls-10{fill:#807d7d;}</style></defs><title>icone-educacao</title><g id="Layer_2" data-name="Layer 2"><g id="Layer_1-2" data-name="Layer 1"><path class="cls-1" d="M49.94,87.17A43.59,43.59,0,1,0,6.35,43.59,43.67,43.67,0,0,0,49.94,87.17Z"/><path class="cls-2" d="M36.19,24.8H74.24l8.64,38.12H79.71l-.07,13.46,3.26,0,0,2.25H31.44c-4.87-.38-4.44-9-4.7-11.35l4.34-38.75c0-1.72,1.81-3.76,5.11-3.76Z"/><path class="cls-3" d="M36.19,24.8h3.64L36.52,78.66H31.44c-6-.68-6.2-10.17-4.26-15.27l3.9-34.83c0-1.72,1.81-3.76,5.11-3.76Z"/><path class="cls-4" d="M32.1,62.91H81.89a14.78,14.78,0,0,0,0,13.66H32.1C26.76,76.57,26.76,62.91,32.1,62.91Z"/><path class="cls-5" d="M28.48,66.67H80.56l-.09.41H28.38C28.41,66.94,28.44,66.8,28.48,66.67Zm51.83,1.44h0c0,.13,0,.27,0,.41H28.15c0-.14,0-.28.05-.41Zm-.09,1.43h0V70H28.1a2.8,2.8,0,0,1,0-.41Zm0,1.44h0c0,.14,0,.27,0,.41H28.2c0-.14,0-.27-.05-.41Zm.2,1.44h0l.09.41H28.48c0-.14-.07-.27-.1-.41Zm.35,1.43h0c0,.14.09.28.13.41H29a2.54,2.54,0,0,1-.18-.41Zm.5,1.44h0c.06.14.11.28.17.41H30a3.7,3.7,0,0,1-.37-.41Z"/><path class="cls-6" d="M47.25,69.91H55V87.17L51.1,81.54l-3.85,5.63V69.91Z"/><path class="cls-4" d="M23.2,49,76,30.09c5.91-.49,7.68,11.53,3.8,12.66L28.22,62.09c-2.93,1.1-5.79-3.6-6-8.22-.13-2.45.53-2.37,3.33-3.47L23.2,49Z"/><path class="cls-5" d="M81.41,41a2.69,2.69,0,0,1-1.66,1.8L28.22,62.09a2.69,2.69,0,0,1-2.6-.45,3.87,3.87,0,0,0,3.65-1.36Z"/><path class="cls-7" d="M57.82,36.58c3.92.56,6.71,9.86,4.76,12.62l-7.13,2.67c1.3-4.36-1.52-11.63-5.43-12.5Z"/><path class="cls-8" d="M70.44,55.4l-7.86-6.2-7.13,2.67,5.95,6.91,2.75-4.11Z"/><path class="cls-5" d="M25.15,50.55l.35-.15c2.15.44,5.93,8.16,1.79,9.87C24.34,61.49,23,55.1,23.08,53c1.26-.91,2.62,2.91,2.19,3l-.88.18s0,1.67.88,1.78l3.38-1.09s-.28-4.92-3.5-6.3Z"/><path class="cls-5" d="M37.31,65.78H80.78a17.19,17.19,0,0,1,1.11-2.86H32.1c-4.94,0-5.31,11.7-1.11,13.45-1.42-4-.28-10.58,3.41-10.58Z"/><path class="cls-9" d="M54.81,18.73l.54,9.33c-3,5.14-12.72,9-22.26,8.86C24,36.83,15,33.06,12.58,28.31l-.05-9.14,20.3,5.61,22-6.05Z"/><path class="cls-10" d="M0,15.48,32.83,4.39,65.66,15.48,32.83,26.57Z"/><path class="cls-6" d="M11.67,38.19l-1.5,9.62c0,.16.5.37.75.06a.53.53,0,0,0,.9,0,.48.48,0,0,0,.85,0c.25.32.81.1.77-.17L12,38.18a.15.15,0,0,0-.28,0Z"/><path class="cls-4" d="M33.05,12.67a.38.38,0,0,1,.47.26.38.38,0,0,1-.25.46L12.15,19.74V38.15a.38.38,0,1,1-.75,0V19.46h0a.38.38,0,0,1,.27-.36l21.38-6.43Z"/><path class="cls-4" d="M11.8,39.41a1.49,1.49,0,1,0-1.48-1.49A1.49,1.49,0,0,0,11.8,39.41Z"/><path class="cls-5" d="M20.38,38.27a1.16,1.16,0,0,1-.77,1.09,1.23,1.23,0,0,1-.39.06h0a1.14,1.14,0,0,1-.94-.51,1.19,1.19,0,0,0,.89.83,1.14,1.14,0,0,0,.52,0,1.19,1.19,0,0,0,.93-1.17,1.18,1.18,0,0,0-.37-.86,1.17,1.17,0,0,1,.15.56Z"/></g></g></svg>