<svg xmlns="http://www.w3.org/2000/svg" viewBox="0 0 46.54 45.5"><defs><style>.cls-1{fill:#004297;}</style></defs><title>icone-menu-sair-da-conta</title><g id="Layer_2" data-name="Layer 2"><g id="Layer_1-2" data-name="Layer 1"><path class="cls-1" d="M32.6,10.12V2.27A2.27,2.27,0,0,0,30.33,0H2.27A2.27,2.27,0,0,0,0,2.27V34.42a2.31,2.31,0,0,0,1.21,2l17.29,9a1.15,1.15,0,0,0,1.67-1V35.64H30.33a2.28,2.28,0,0,0,2.27-2.28V20.93H28.05v9a1.12,1.12,0,0,1-1.13,1.14H20.21V11.79a2.33,2.33,0,0,0-1.22-2L8.8,4.55H26.92a1.11,1.11,0,0,1,1.13,1.14v4.47H32.6Z"/><path class="cls-1" d="M38.44,6.41l7.39,7.39a2.27,2.27,0,0,1,0,3.3l-7.39,7.39a2.31,2.31,0,0,1-3.34,0,2.42,2.42,0,0,1,.08-3.34l3.34-3.3H25.59a2.26,2.26,0,0,1-1.71-.75,2.58,2.58,0,0,1,.57-3.91,2.42,2.42,0,0,1,1.14-.3H38.52s-3.3-3.3-3.34-3.3a2.37,2.37,0,0,1-.08-3.3A2.35,2.35,0,0,1,38.44,6.41Z"/></g></g></svg>