<svg xmlns="http://www.w3.org/2000/svg" viewBox="0 0 78.73 77.42"><defs><style>.cls-1{fill:#94a4a4;}.cls-2{fill:#2d3e4f;}.cls-3{fill:#1e8ec1;}.cls-4{fill:#116ea4;}.cls-5{fill:#352d2e;}.cls-6{fill:#fbb03b;}.cls-7{fill:#6ab8ca;}.cls-8{fill:#7f8b8c;}.cls-9{fill:#bcc2c6;}</style></defs><title>icone-onibus</title><g id="Layer_2" data-name="Layer 2"><g id="Layer_1-2" data-name="Layer 1"><path class="cls-1" d="M10.5,55.11A1.32,1.32,0,0,1,9.18,53.8V18.37a1.32,1.32,0,0,1,2.63,0V53.8A1.31,1.31,0,0,1,10.5,55.11Z"/><path class="cls-2" d="M32.8,64.29h7.88v9.19a2.62,2.62,0,0,1-2.63,2.62H35.43a2.62,2.62,0,0,1-2.63-2.62Z"/><path class="cls-2" d="M63,64.29h7.87v9.19a2.62,2.62,0,0,1-2.62,2.62H65.61A2.62,2.62,0,0,1,63,73.48V64.29Z"/><path class="cls-3" d="M72.76,0H30.9a5,5,0,0,0-4.66,5.25v53.8l3.11,7.13a1.16,1.16,0,0,0,1,.74H73.26a1.16,1.16,0,0,0,1-.74l3.11-7.13V5.25A5,5,0,0,0,72.76,0Z"/><path class="cls-4" d="M77.42,59.05l-3.11,7.13a1.16,1.16,0,0,1-1,.74H30.4a1.16,1.16,0,0,1-1-.74l-3.11-7.13Z"/><path class="cls-5" d="M34.12,5.25H69.54a2.62,2.62,0,0,1,2.63,2.62V9.18a2.63,2.63,0,0,1-2.63,2.63H34.12a2.63,2.63,0,0,1-2.63-2.63V7.87A2.62,2.62,0,0,1,34.12,5.25Z"/><circle class="cls-6" cx="35.43" cy="49.86" r="3.94"/><path class="cls-7" d="M34.12,17.06H69.54a2.62,2.62,0,0,1,2.63,2.62V38.05a2.63,2.63,0,0,1-2.63,2.63H34.12a2.63,2.63,0,0,1-2.63-2.63V19.68A2.62,2.62,0,0,1,34.12,17.06Z"/><path class="cls-5" d="M47.24,52.48h9.18a2.63,2.63,0,0,1,2.63,2.63v3.94H44.61V55.11A2.63,2.63,0,0,1,47.24,52.48Z"/><circle class="cls-4" cx="10.5" cy="14.43" r="9.18"/><path class="cls-8" d="M9.18,48.55h2.63a2.62,2.62,0,0,1,2.62,2.62V76.1H6.56V51.17A2.62,2.62,0,0,1,9.18,48.55Z"/><path class="cls-9" d="M77.42,77.42H1.31a1.32,1.32,0,0,1,0-2.63H77.42a1.32,1.32,0,0,1,0,2.63Z"/><circle class="cls-6" cx="68.23" cy="49.86" r="3.94"/></g></g></svg>