<svg xmlns="http://www.w3.org/2000/svg" viewBox="0 0 53.09 58.04"><defs><style>.cls-1{fill:#004297;}.cls-2{fill:#ff0083;}</style></defs><title>icone-notificacao-cheio</title><g id="Layer_2" data-name="Layer 2"><g id="Layer_1-2" data-name="Layer 1"><path class="cls-1" d="M23,43.54c6.62,0,13.25,0,19.88,0A2.26,2.26,0,0,1,45,44.63c1.32,2,1.07,4.24.89,6.43-.07.88-1,1-1.75,1-4.25,0-8.51,0-12.76,0-.82,0-1.27.13-1.56,1.05a7.17,7.17,0,0,1-13.63.08A1.41,1.41,0,0,0,14.49,52C10.31,52,6.14,52,2,52c-1.7,0-2-.29-2-2a26.81,26.81,0,0,1,.6-4.82C.89,44,1.78,43.48,3.19,43.5,9.78,43.59,16.36,43.54,23,43.54Z"/><path class="cls-1" d="M26.49,18.26A14.92,14.92,0,0,1,30,8.79L27.05,7.57c1.13-2.86.8-4.94-1-6.44A4.61,4.61,0,0,0,20.43.79,6.38,6.38,0,0,0,18.5,3.08c-.77,1.55-.34,3.15.45,4.67l-.59.17A17.68,17.68,0,0,0,4.91,24c-.22,3.09-.09,6.21-.12,9.32,0,2.56-.06,5.11-.1,7.68H41.24V33.2h-.13A14.76,14.76,0,0,1,26.49,18.26Z"/><path class="cls-2" d="M53.09,18.58A11.8,11.8,0,1,0,41.15,30.2h.1A11.75,11.75,0,0,0,53.09,18.58Z"/></g></g></svg>