<svg xmlns="http://www.w3.org/2000/svg" viewBox="0 0 83.36 83.36"><defs><style>.cls-1{fill:#854f89;}.cls-2{fill:#713775;}.cls-3{fill:#f74f4f;}.cls-4{fill:#3d4159;}.cls-5{fill:#dd3033;}.cls-6{fill:#ffe152;}</style></defs><title>icone-comunicados</title><g id="Layer_2" data-name="Layer 2"><g id="Layer_1-2" data-name="Layer 1"><path class="cls-1" d="M83.36,41.68A41.68,41.68,0,0,1,0,41.68c0-.82,0-1.64.07-2.45a41.68,41.68,0,0,1,83.29,2.45Z"/><path class="cls-2" d="M33.71,31.3V63.7H44.84l15.69,9-3.78-9H72.23a41.34,41.34,0,0,0,4.58-10.2V31.3Z"/><path class="cls-2" d="M42.25,6.83v32.4H31.13l-15.7,9,3.78-9H.07A41.69,41.69,0,0,1,18.8,6.83Z"/><path class="cls-3" d="M2.73,6.83h43.1v32.4H2.73Z"/><path class="cls-3" d="M23.65,37.21,19,48.2,39.27,36.63Z"/><path class="cls-4" d="M20.33,23a2.39,2.39,0,1,1-2.39-2.39A2.39,2.39,0,0,1,20.33,23Z"/><path class="cls-4" d="M26.67,23a2.39,2.39,0,1,1-2.39-2.39A2.39,2.39,0,0,1,26.67,23Z"/><path class="cls-4" d="M33,23a2.39,2.39,0,1,1-2.39-2.39A2.39,2.39,0,0,1,33,23Z"/><path class="cls-5" d="M36,31.3h9.8v7.93H36Z"/><path class="cls-6" d="M81.66,31.3V53.5a41.34,41.34,0,0,1-4.58,10.2H38.56V31.3Z"/><path class="cls-6" d="M60.75,61.67l4.63,11L45.13,61.1Z"/><path class="cls-4" d="M68.85,47.5a2.39,2.39,0,1,1-2.39-2.39A2.39,2.39,0,0,1,68.85,47.5Z"/><path class="cls-4" d="M62.5,47.5a2.39,2.39,0,1,1-2.39-2.39A2.39,2.39,0,0,1,62.5,47.5Z"/><path class="cls-4" d="M56.16,47.5a2.39,2.39,0,1,1-2.39-2.39A2.39,2.39,0,0,1,56.16,47.5Z"/></g></g></svg>