<svg xmlns="http://www.w3.org/2000/svg" viewBox="0 0 65.75 70.45"><defs><style>.cls-1{fill:#a7d5f7;}.cls-2{fill:#f74440;}.cls-3{fill:#b7e4fd;}.cls-4{fill:#52aaf1;}.cls-5{fill:#2b96ee;}</style></defs><title>icone-saude</title><g id="Layer_2" data-name="Layer 2"><g id="Layer_1-2" data-name="Layer 1"><rect class="cls-1" x="1.17" y="27" width="16.44" height="42.27"/><rect class="cls-2" x="17.61" y="1.17" width="30.53" height="68.1"/><rect class="cls-3" x="24.66" y="45.79" width="16.44" height="23.48"/><rect class="cls-4" x="32.29" y="45.79" width="1.17" height="23.48"/><rect class="cls-1" x="48.14" y="27" width="16.44" height="42.27"/><rect class="cls-4" x="52.83" y="31.7" width="7.04" height="4.7"/><rect class="cls-4" x="52.83" y="41.09" width="7.04" height="4.7"/><rect class="cls-4" x="52.83" y="50.49" width="7.04" height="4.7"/><rect class="cls-4" x="52.83" y="59.88" width="7.04" height="4.7"/><polygon class="cls-3" points="36.4 5.87 29.35 5.87 29.35 12.91 22.31 12.91 22.31 19.96 29.35 19.96 29.35 27 36.4 27 36.4 19.96 43.44 19.96 43.44 12.91 36.4 12.91 36.4 5.87"/><rect class="cls-4" x="5.87" y="31.7" width="7.04" height="4.7"/><rect class="cls-4" x="5.87" y="41.09" width="7.04" height="4.7"/><rect class="cls-4" x="5.87" y="50.49" width="7.04" height="4.7"/><rect class="cls-4" x="5.87" y="59.88" width="7.04" height="4.7"/><path class="cls-1" d="M28.18,69.27h4.11V65.88Q30.31,67.66,28.18,69.27Z"/><path class="cls-1" d="M33.46,64.78v4.49h7.63V55.89A59.3,59.3,0,0,1,33.46,64.78Z"/><path class="cls-5" d="M32.87,65.34l-.58.54v3.39h1.17V64.78Z"/><path d="M61.05,30.53H51.66v7h9.39ZM58.7,35.22H54V32.87H58.7Z"/><path d="M61.05,39.92H51.66v7h9.39Zm-2.35,4.7H54V42.27H58.7Z"/><path d="M61.05,49.31H51.66v7h9.39ZM58.7,54H54V51.66H58.7Z"/><path d="M61.05,58.7H51.66v7h9.39ZM58.7,63.4H54V61.05H58.7Z"/><path d="M37.57,4.7H28.18v7h-7v9.39h7.05v7.05h9.39v-7h7V11.74h-7Zm4.7,9.39v4.7H35.22v7H30.53v-7h-7v-4.7h7.05V7h4.69v7.05Z"/><path d="M49.31,25.83V0H16.44V25.83H0V70.45H65.75V25.83ZM16.44,68.1H2.35V28.18H16.44Zm9.39,0V47H31.7V68.1Zm8.22,0V47h5.87V68.1ZM47,68.1H42.27V44.62H23.48V68.1H18.79V2.35H47V68.1Zm16.44,0H49.31V28.18H63.4Z"/><path d="M14.09,30.53H4.7v7h9.39Zm-2.35,4.69H7V32.87h4.7Z"/><path d="M14.09,39.92H4.7v7h9.39Zm-2.35,4.7H7V42.27h4.7Z"/><path d="M14.09,49.31H4.7v7h9.39ZM11.74,54H7V51.66h4.7Z"/><path d="M14.09,58.7H4.7v7h9.39Zm-2.35,4.7H7V61.05h4.7Z"/></g></g></svg>