<svg xmlns="http://www.w3.org/2000/svg" viewBox="0 0 100.56 100.55"><defs><style>.cls-1{fill:#5dbffb;}.cls-2{fill:#fdccad;}.cls-3{fill:#fcba5d;}.cls-4{fill:#96e24d;}.cls-5{fill:#a6dcfc;}.cls-6{fill:#fff;}.cls-7{fill:#fa6767;}</style></defs><title>icone-oportunidades</title><g id="Layer_2" data-name="Layer 2"><g id="Layer_1-2" data-name="Layer 1"><path class="cls-1" d="M35.43,74l-23,23a5.39,5.39,0,0,1-7.63,0h0a5.39,5.39,0,0,1,0-7.63l23-23Z"/><path class="cls-2" d="M90,46.55v1.57a6.3,6.3,0,0,1-6.3,6.3h0a6.3,6.3,0,0,1-6.3-6.3V46.55a6.3,6.3,0,0,1,6.3-6.3h0A6.3,6.3,0,0,1,90,46.55Z"/><path class="cls-3" d="M87.92,54.42h-8.5A10.68,10.68,0,0,0,68.75,65.1v4H98.59v-4A10.68,10.68,0,0,0,87.92,54.42Z"/><path class="cls-2" d="M10.59,46.55v1.57a6.3,6.3,0,0,0,6.3,6.3h0a6.3,6.3,0,0,0,6.3-6.3V46.55a6.3,6.3,0,0,0-6.3-6.3h0A6.3,6.3,0,0,0,10.59,46.55Z"/><path class="cls-4" d="M12.64,54.42h8.5A10.68,10.68,0,0,1,31.81,65.1v4H2v-4A10.68,10.68,0,0,1,12.64,54.42Z"/><circle class="cls-5" cx="50.28" cy="49.94" r="27.1"/><circle class="cls-6" cx="50.28" cy="49.94" r="19.24"/><path class="cls-2" d="M56.38,47.47V49a6.1,6.1,0,0,1-6.1,6.1h0a6.1,6.1,0,0,1-6.1-6.1V47.47a6.1,6.1,0,0,1,6.1-6.1h0A6.1,6.1,0,0,1,56.38,47.47Z"/><path class="cls-7" d="M50.28,55.1h0A14.09,14.09,0,0,0,37.17,64a19.22,19.22,0,0,0,26.21,0A14.06,14.06,0,0,0,50.28,55.1Z"/><path d="M90.53,52.73a8.21,8.21,0,0,0,1.41-4.61V46.55a8.26,8.26,0,0,0-14.1-5.85,29.07,29.07,0,0,0-55.12,0,8.26,8.26,0,0,0-14.1,5.85v1.57A8.21,8.21,0,0,0,10,52.73,12.66,12.66,0,0,0,0,65.1v4a2,2,0,0,0,2,2H12.18a2,2,0,1,0,0-3.92H3.93v-2a8.72,8.72,0,0,1,8.71-8.71h9.29a29.12,29.12,0,0,0,3.86,9.19L3.38,88A7.36,7.36,0,0,0,13.79,98.4L26.14,86.05a2,2,0,1,0-2.77-2.78L11,95.62a3.43,3.43,0,0,1-4.85-4.85l22-22A29,29,0,0,0,78.62,56.39h9.3a8.72,8.72,0,0,1,8.71,8.71v2H78.17a2,2,0,1,0,0,3.92H98.59a2,2,0,0,0,2-2v-4A12.66,12.66,0,0,0,90.53,52.73Zm-11.2-6.18a4.34,4.34,0,0,1,8.68,0v1.57a4.34,4.34,0,0,1-8.68,0Zm-66.78,0a4.34,4.34,0,1,1,8.67,0v1.57a4.34,4.34,0,1,1-8.67,0ZM50.28,75.08A25.14,25.14,0,1,1,75.42,49.94,25.17,25.17,0,0,1,50.28,75.08Z"/><path d="M50.28,28.73A21.2,21.2,0,0,0,35.73,65.36a1.51,1.51,0,0,0,.23.21,21.16,21.16,0,0,0,28.64,0,1.45,1.45,0,0,0,.22-.21A21.19,21.19,0,0,0,50.28,28.73ZM39.58,63.5a12.12,12.12,0,0,1,21.4,0,17.25,17.25,0,0,1-21.4,0ZM46.14,49V47.47a4.14,4.14,0,0,1,8.28,0V49a4.14,4.14,0,0,1-8.28,0ZM63.86,60.62a16,16,0,0,0-7.52-6.31,8,8,0,0,0,2-5.31V47.47a8.07,8.07,0,0,0-16.14,0V49a8,8,0,0,0,2,5.31,16,16,0,0,0-7.52,6.31,17.28,17.28,0,1,1,27.16,0Z"/><path d="M30,77.44A2,2,0,1,0,31.4,78,2,2,0,0,0,30,77.44Z"/><path d="M50.32,10.61a2,2,0,0,0,2-2V2a2,2,0,0,0-3.93,0V8.65A2,2,0,0,0,50.32,10.61Z"/><path d="M50.32,17.09a2,2,0,0,0,2-2,1.95,1.95,0,0,0-2-2,2,2,0,0,0-2,2,2,2,0,0,0,2,2Z"/><path d="M62.13,14.51a2,2,0,0,0,1.39-.58L67,10.48A2,2,0,1,0,64.19,7.7l-3.45,3.46a2,2,0,0,0,1.39,3.35Z"/><path d="M37.07,14a2,2,0,0,0,1.39.57,2,2,0,0,0,1.39-3.35L36.37,7.69a2,2,0,0,0-2.78,2.78Z"/></g></g></svg>