<svg xmlns="http://www.w3.org/2000/svg" viewBox="0 0 70.02 70.02"><defs><style>.cls-1{fill:#fff;}.cls-2{fill:#004297;}</style></defs><title>icone-ajuda-ativo</title><g id="Layer_2" data-name="Layer 2"><g id="Layer_1-2" data-name="Layer 1"><path class="cls-1" d="M69.74,63.41l-4.8-14a34.22,34.22,0,1,0-30.7,19.06h0a34.38,34.38,0,0,0,15.13-3.54l14,4.81A5.16,5.16,0,0,0,65,70a5,5,0,0,0,4.7-6.61Z"/><path class="cls-2" d="M33.9,49.61A2.08,2.08,0,1,0,36,51.68,2.09,2.09,0,0,0,33.9,49.61Z"/><path class="cls-2" d="M33.9,17.46A10.33,10.33,0,0,0,23.58,27.79a2.08,2.08,0,0,0,4.15,0A6.18,6.18,0,1,1,33.9,34,2.08,2.08,0,0,0,31.83,36v8.47a2.08,2.08,0,0,0,4.15,0v-6.6A10.33,10.33,0,0,0,33.9,17.46Z"/></g></g></svg>