<svg xmlns="http://www.w3.org/2000/svg" viewBox="0 0 55.23 49.15"><defs><style>.cls-1{fill:#004297;}</style></defs><title>icone-menu-meus-serviços</title><g id="Layer_2" data-name="Layer 2"><g id="Layer_1-2" data-name="Layer 1"><path class="cls-1" d="M55.23,24.58a3,3,0,0,0-1.69-2.74l-4.11-2.06,4.11-2.06h0a3.07,3.07,0,0,0,0-5.48L30.32.64a6.06,6.06,0,0,0-5.41,0L1.69,12.24a3.07,3.07,0,0,0,0,5.48l4.12,2.06L1.69,21.84a3.07,3.07,0,0,0,0,5.48l4.12,2.05L1.69,31.43a3.07,3.07,0,0,0,0,5.48L24.91,48.52a6.12,6.12,0,0,0,2.71.63,6,6,0,0,0,2.7-.63L53.54,36.91a3.07,3.07,0,0,0,0-5.48l-4.11-2.06,4.11-2.05A3.05,3.05,0,0,0,55.23,24.58ZM52.41,33.7a.53.53,0,0,1,0,.94L29.19,46.25a3.54,3.54,0,0,1-3.14,0L2.83,34.64a.53.53,0,0,1,0-.94l5.81-2.91,16.27,8.13a6,6,0,0,0,2.71.64,5.93,5.93,0,0,0,2.7-.64l16.27-8.13Zm0-8.66L29.19,36.65a3.54,3.54,0,0,1-3.14,0L2.83,25a.52.52,0,0,1,0-.93L8.64,21.2l16.27,8.13a6,6,0,0,0,2.71.64,5.93,5.93,0,0,0,2.7-.64L46.59,21.2l5.82,2.91a.52.52,0,0,1,0,.93Z"/></g></g></svg>