<svg xmlns="http://www.w3.org/2000/svg" viewBox="0 0 43.44 43.44"><defs><style>.cls-1{fill:#004297;}</style></defs><title>icone-menu-ajuda</title><g id="Layer_2" data-name="Layer 2"><g id="Layer_1-2" data-name="Layer 1"><path class="cls-1" d="M43.27,39.34l-3-8.68a21.43,21.43,0,0,0,2.2-9.38A21.25,21.25,0,1,0,0,21.59a21.31,21.31,0,0,0,21.24,20.9h0a21.43,21.43,0,0,0,9.38-2.2l8.68,3a2.94,2.94,0,0,0,1,.17,3,3,0,0,0,2.18-.91A3.07,3.07,0,0,0,43.27,39.34Zm-22-3.61a1.6,1.6,0,1,1,1.6-1.6A1.63,1.63,0,0,1,21.25,35.73Zm1.6-12.24v5.1a1.61,1.61,0,0,1-3.21,0V22.05a1.61,1.61,0,0,1,1.61-1.6,4.77,4.77,0,1,0-4.77-4.77,1.61,1.61,0,0,1-3.21,0,8,8,0,1,1,9.58,7.81Z"/></g></g></svg>