<svg xmlns="http://www.w3.org/2000/svg" viewBox="0 0 89.44 80.23"><defs><style>.cls-1{fill:#f8bb66;}.cls-2{fill:#193750;}.cls-3{fill:#54bd9e;}.cls-4{fill:#dfe3e7;}.cls-5{fill:#00a8ea;}.cls-6{fill:#ed6256;}</style></defs><title>icone-processos</title><g id="Layer_2" data-name="Layer 2"><g id="Layer_1-2" data-name="Layer 1"><circle class="cls-1" cx="44.72" cy="40.12" r="40.12"/><rect class="cls-2" x="66.74" y="45.63" width="2.8" height="2.8"/><rect class="cls-2" x="75.27" y="45.63" width="2.8" height="2.8"/><rect class="cls-2" x="83.65" y="45.63" width="2.8" height="2.8"/><rect class="cls-2" x="9.22" y="47.38" width="2.8" height="2.8"/><rect class="cls-2" x="17.61" y="47.38" width="2.8" height="2.8"/><rect class="cls-2" x="26.13" y="47.38" width="2.8" height="2.8"/><polygon class="cls-2" points="25.99 25.69 24.04 23.73 26.55 21.08 24.04 18.42 25.99 16.46 30.61 21.08 25.99 25.69"/><rect class="cls-2" x="19.84" y="19.68" width="8.66" height="2.8"/><rect class="cls-3" x="35.5" y="53.22" width="18.45" height="11.32"/><path class="cls-2" d="M53.94,65.8H35.5a1.32,1.32,0,0,1-1.4-1.4V53.08a1.32,1.32,0,0,1,1.4-1.4H53.94a1.32,1.32,0,0,1,1.4,1.4V64.4A1.32,1.32,0,0,1,53.94,65.8Zm-17-2.8H52.55V54.48H36.89Z"/><rect class="cls-4" x="35.5" y="34.35" width="18.45" height="11.32"/><path class="cls-2" d="M53.94,47.07H35.5a1.32,1.32,0,0,1-1.4-1.4V34.35A1.31,1.31,0,0,1,35.5,33H53.94a1.31,1.31,0,0,1,1.4,1.39V45.67A1.4,1.4,0,0,1,53.94,47.07Zm-17-2.79H52.55V35.75H36.89Z"/><rect class="cls-3" x="35.5" y="15.49" width="18.45" height="11.32"/><path class="cls-2" d="M53.94,28.2H35.5a1.31,1.31,0,0,1-1.4-1.39V15.49a1.32,1.32,0,0,1,1.4-1.4H53.94a1.32,1.32,0,0,1,1.4,1.4V26.81A1.39,1.39,0,0,1,53.94,28.2Zm-17-2.79H52.55V16.88H36.89Z"/><polygon class="cls-2" points="27.11 62.3 25.02 60.35 27.67 57.83 25.02 55.18 27.11 53.22 31.58 57.83 27.11 62.3"/><path class="cls-2" d="M29.49,59.23H11.32A10.32,10.32,0,0,1,1,48.89,10.44,10.44,0,0,1,11.46,38.55h24v2.79h-24a7.55,7.55,0,1,0,0,15.09H29.63v2.8Z"/><polygon class="cls-2" points="62.33 44.28 57.86 39.66 62.33 35.05 64.42 37.01 61.77 39.66 64.42 42.32 62.33 44.28"/><path class="cls-2" d="M78,41.06H59.81V38.27H78a7.52,7.52,0,0,0,7.55-7.55V30A7.52,7.52,0,0,0,78,22.47h-24V19.68H78A10.32,10.32,0,0,1,88.32,30v.7A10.32,10.32,0,0,1,78,41.06Z"/><polygon class="cls-2" points="60.09 63.21 58.14 61.25 60.65 58.74 58.14 56.08 60.09 54.13 64.56 58.74 60.09 63.21"/><rect class="cls-2" x="53.94" y="57.34" width="8.66" height="2.8"/><rect class="cls-5" x="69.6" y="53.43" width="18.45" height="11.32"/><path class="cls-2" d="M88,66.14H69.6a1.32,1.32,0,0,1-1.4-1.39V53.43A1.32,1.32,0,0,1,69.6,52H88a1.32,1.32,0,0,1,1.4,1.4V64.75A1.32,1.32,0,0,1,88,66.14ZM71,63.35H86.65V54.82H71Z"/><rect class="cls-6" x="1.4" y="15.49" width="18.45" height="11.32"/><path class="cls-2" d="M19.84,28.2H1.4A1.31,1.31,0,0,1,0,26.81V15.49a1.32,1.32,0,0,1,1.4-1.4H19.84a1.32,1.32,0,0,1,1.4,1.4V26.81A1.39,1.39,0,0,1,19.84,28.2Zm-17-2.79H18.45V16.88H2.8Z"/></g></g></svg>