<svg xmlns="http://www.w3.org/2000/svg" viewBox="0 0 87.07 88.88"><defs><style>.cls-1{fill:#e18d6a;}.cls-2{fill:#74e2fc;}.cls-3{fill:#f59be5;}.cls-4{fill:#f6ea83;}.cls-5{fill:#62336c;}</style></defs><title>icone-noticias</title><g id="Layer_2" data-name="Layer 2"><g id="Layer_1-2" data-name="Layer 1"><path class="cls-1" d="M85.87,35.92V61a7.5,7.5,0,0,1-15,0v-25Z"/><path class="cls-2" d="M49.47,68.45H34.77a9.23,9.23,0,0,1-9.23-9.23V11.71a3.08,3.08,0,0,1,3.08-3.08H67.8a3.08,3.08,0,0,1,3.08,3.08V61a7.49,7.49,0,0,0,7.49,7.49H49.47ZM63.87,15c.49,0,.71-.63.71-.94C64.58,13.16,62.8,13,62,13c-1.56,0-3.3.7-3.3,2.72,0,3.22,4.36,2.59,4.36,4.63,0,.81-.71,1.18-1.52,1.18-1.39,0-1.76-1-2.31-1s-.78.57-.78.95c0,.78,1.36,1.68,3.14,1.68s3.23-1,3.23-2.95c0-3.51-4.36-2.93-4.36-4.61,0-.66.56-1,1.54-1C63.14,14.47,63.45,15,63.87,15ZM62.32,62.4V50.09H50V62.4Zm-5-48.5a.88.88,0,0,0,0-.16c0-.4-.62-.71-1.12-.71a.55.55,0,0,0-.59.35l-2.14,7.36L52.31,16c-.08-.34-.47-.49-.85-.49s-.79.15-.87.49l-1.15,4.72-2.15-7.36a.54.54,0,0,0-.58-.35c-.51,0-1.13.31-1.13.71a.45.45,0,0,0,0,.16l2.68,8.54a1.14,1.14,0,0,0,1.16.6c.5,0,1-.19,1.13-.6l.88-3.66.87,3.66c.09.41.62.6,1.13.6a1.14,1.14,0,0,0,1.15-.6Zm-12.74-.11c0-.36-.18-.76-.56-.76H39.17c-.39,0-.77.19-.77.56V22.4c0,.37.38.56.77.56H44c.38,0,.56-.4.56-.76s-.2-.79-.56-.79H40.16V18.68h2.06a.61.61,0,0,0,.56-.68c0-.36-.2-.7-.56-.7H40.16V14.58H44C44.36,14.58,44.56,14.21,44.56,13.79ZM36.09,22.4V13.58c0-.38-.45-.55-.89-.55s-.88.17-.88.55V19L31.7,14c-.42-.8-.68-.94-1.32-.94-.45,0-.88.18-.88.56V22.4c0,.37.43.56.88.56s.89-.19.89-.56V16.94l2.92,5.46a1.05,1.05,0,0,0,1,.56C35.64,23,36.09,22.77,36.09,22.4Z"/><rect class="cls-3" x="50.01" y="50.09" width="12.31" height="12.31"/><path class="cls-1" d="M49.47,73.2v6.43a8,8,0,0,1-8,8H9.25a8,8,0,0,1-8-8V73.2ZM28.35,80.44a3,3,0,1,0-3,3A3,3,0,0,0,28.35,80.44Z"/><path class="cls-4" d="M49.47,68.45V73.2H1.21V13.27H25.54v46a9.23,9.23,0,0,0,9.23,9.23Z"/><path class="cls-1" d="M49.44,8.63H28.62a3.08,3.08,0,0,0-3.08,3.08v1.56H1.21v-4a8,8,0,0,1,8-8H41.42A8,8,0,0,1,49.44,8.63Z"/><circle class="cls-4" cx="25.34" cy="80.44" r="3.02"/><path class="cls-5" d="M60.46,15.52c0-.66.56-1,1.54-1,1.14,0,1.45.52,1.87.52s.71-.63.71-.94C64.58,13.16,62.8,13,62,13c-1.56,0-3.3.7-3.3,2.72,0,3.22,4.36,2.59,4.36,4.63,0,.81-.71,1.18-1.52,1.18-1.39,0-1.76-1-2.31-1s-.78.57-.78.95c0,.78,1.36,1.68,3.14,1.68s3.23-1,3.23-2.95C64.82,16.62,60.46,17.2,60.46,15.52Z"/><path class="cls-5" d="M48.29,22.44a1.14,1.14,0,0,0,1.16.6c.5,0,1-.19,1.13-.6l.88-3.66.87,3.66c.09.41.62.6,1.13.6a1.14,1.14,0,0,0,1.15-.6L57.3,13.9a.88.88,0,0,0,0-.16c0-.4-.62-.71-1.12-.71a.55.55,0,0,0-.59.35l-2.14,7.36L52.31,16c-.08-.34-.47-.49-.85-.49s-.79.15-.87.49l-1.15,4.72-2.15-7.36a.54.54,0,0,0-.58-.35c-.51,0-1.13.31-1.13.71a.45.45,0,0,0,0,.16Z"/><path class="cls-5" d="M39.17,23H44c.38,0,.56-.4.56-.76s-.2-.79-.56-.79H40.16V18.68h2.06a.61.61,0,0,0,.56-.68c0-.36-.2-.7-.56-.7H40.16V14.58H44c.36,0,.56-.37.56-.79S44.38,13,44,13H39.17c-.39,0-.77.19-.77.56V22.4C38.4,22.77,38.78,23,39.17,23Z"/><path class="cls-5" d="M31.27,22.4V16.94l2.92,5.46a1.05,1.05,0,0,0,1,.56c.44,0,.89-.19.89-.56V13.58c0-.38-.45-.55-.89-.55s-.88.17-.88.55V19L31.7,14c-.42-.8-.68-.94-1.32-.94-.45,0-.88.18-.88.56V22.4c0,.37.43.56.88.56S31.27,22.77,31.27,22.4Z"/><path class="cls-5" d="M85.87,34.72H72.09v-23A4.29,4.29,0,0,0,67.8,7.43H50.49A9.3,9.3,0,0,0,41.42,0H9.25A9.26,9.26,0,0,0,0,9.25V79.63a9.25,9.25,0,0,0,9.25,9.25H41.42a9.25,9.25,0,0,0,9.25-9.25v-10H79.16a1.18,1.18,0,0,0,.46-.09A8.71,8.71,0,0,0,87.07,61v-25A1.2,1.2,0,0,0,85.87,34.72ZM41.42,86.47H9.25a6.86,6.86,0,0,1-6.84-6.84V74.4H48.26v5.23A6.84,6.84,0,0,1,41.42,86.47ZM48.26,72H2.41V14.48h8.65a1.21,1.21,0,1,0,0-2.41H2.41V9.25A6.86,6.86,0,0,1,9.25,2.41H41.42a6.87,6.87,0,0,1,6.59,5H28.62a4.29,4.29,0,0,0-4.29,4.28v.36h-3a1.21,1.21,0,1,0,0,2.41h3V59.22A10.46,10.46,0,0,0,34.77,69.66H48.26ZM34.77,67.25a8,8,0,0,1-8-8V11.71a1.88,1.88,0,0,1,1.88-1.87H67.8a1.88,1.88,0,0,1,1.88,1.87V61a8.64,8.64,0,0,0,2.69,6.29ZM84.66,61a6.29,6.29,0,1,1-12.57,0V37.13H84.66Z"/><path class="cls-5" d="M62.32,48.88H50a1.21,1.21,0,0,0-1.21,1.21V62.4A1.21,1.21,0,0,0,50,63.6H62.32a1.21,1.21,0,0,0,1.21-1.2V50.09A1.21,1.21,0,0,0,62.32,48.88ZM61.11,61.19h-9.9v-9.9h9.9Z"/><path class="cls-5" d="M62.32,26.41H32a1.21,1.21,0,1,0,0,2.41H62.32a1.21,1.21,0,1,0,0-2.41Z"/><path class="cls-5" d="M62.32,41.19H32a1.21,1.21,0,1,0,0,2.41H62.32a1.21,1.21,0,1,0,0-2.41Z"/><path class="cls-5" d="M44.31,61.19H32a1.21,1.21,0,1,0,0,2.41H44.31a1.21,1.21,0,1,0,0-2.41Z"/><path class="cls-5" d="M44.31,48.88H32a1.21,1.21,0,1,0,0,2.41H44.31a1.21,1.21,0,1,0,0-2.41Z"/><path class="cls-5" d="M44.31,55H32a1.21,1.21,0,1,0,0,2.41H44.31a1.21,1.21,0,1,0,0-2.41Z"/><path class="cls-5" d="M62.32,33.49H32a1.21,1.21,0,1,0,0,2.41H62.32a1.21,1.21,0,1,0,0-2.41Z"/><path class="cls-5" d="M17.26,12.07H15a1.21,1.21,0,1,0,0,2.41h2.24a1.21,1.21,0,0,0,0-2.41Z"/><path class="cls-5" d="M25.34,76.21a4.23,4.23,0,1,0,4.22,4.23h0A4.23,4.23,0,0,0,25.34,76.21Zm0,6a1.81,1.81,0,1,1,1.81-1.81h0A1.82,1.82,0,0,1,25.34,82.25Z"/></g></g></svg>