<svg xmlns="http://www.w3.org/2000/svg" viewBox="0 0 52.02 59.2"><defs><style>.cls-1{fill:#6584cc;}</style></defs><title>icone-notificacoes-off</title><g id="Layer_2" data-name="Layer 2"><g id="Layer_1-2" data-name="Layer 1"><path class="cls-1" d="M43.43,13.86a5.26,5.26,0,0,0-7.29.21,5.2,5.2,0,0,0,.35,7.56,15.6,15.6,0,1,1-21,0,5.2,5.2,0,0,0,.35-7.56,5.26,5.26,0,0,0-7.32-.17A26,26,0,0,0,26,59.2h.07A26,26,0,0,0,43.43,13.86Z"/><path class="cls-1" d="M26,0a5.2,5.2,0,0,0-5.21,5.2V26.25a5.21,5.21,0,0,0,10.41,0V5.2A5.19,5.19,0,0,0,26,0Z"/></g></g></svg>