<svg xmlns="http://www.w3.org/2000/svg" viewBox="0 0 92.33 83.25"><defs><style>.cls-1{fill:#2d3039;}.cls-2{fill:#e74c3d;}.cls-3{fill:#e6e6e6;}.cls-4{fill:#d1d4d2;}.cls-5{fill:#c03b2b;}.cls-6{fill:#556180;}.cls-7{fill:#fff;}</style></defs><title>icone-denuncias</title><g id="Layer_2" data-name="Layer 2"><g id="Layer_1-2" data-name="Layer 1"><g id="_Group_" data-name="&lt;Group&gt;"><path id="_Path_" data-name="&lt;Path&gt;" class="cls-1" d="M6.26,43.89H3.46A3.46,3.46,0,0,1,0,40.43V31.71a3.45,3.45,0,0,1,3.46-3.46h2.8Z"/><path id="_Path_2" data-name="&lt;Path&gt;" class="cls-2" d="M31.38,50.39l-21-1.28a4.36,4.36,0,0,1-4.06-4.36V27.33a3.79,3.79,0,0,1,3.53-3.79l21.5-1.32V50.39Z"/><path id="_Path_3" data-name="&lt;Path&gt;" class="cls-3" d="M65.71,70.69,35,55.33a6.57,6.57,0,0,1-3.62-5.86V23a6.55,6.55,0,0,1,3.46-5.77L65.55.78a6.55,6.55,0,0,1,9.64,5.77V64.83a6.55,6.55,0,0,1-9.48,5.86"/><path id="_Path_4" data-name="&lt;Path&gt;" class="cls-2" d="M76.67,28.25H75.11V43.89h1.56a6.28,6.28,0,0,0,6.26-6.26V34.5a6.27,6.27,0,0,0-6.26-6.25"/><path id="_Path_5" data-name="&lt;Path&gt;" class="cls-4" d="M87.62,47a1.56,1.56,0,0,1-1.27-2.47,14.64,14.64,0,0,0,2.84-8.44,15.26,15.26,0,0,0-2.84-8.53,1.56,1.56,0,1,1,2.56-1.8A18.29,18.29,0,0,1,92.32,36,17.78,17.78,0,0,1,88.9,46.37a1.56,1.56,0,0,1-1.28.65"/><path id="_Path_6" data-name="&lt;Path&gt;" class="cls-5" d="M12.6,49.25v5.6h4.69a1.57,1.57,0,1,1,0,3.13H12.6v3.13h4.69a1.57,1.57,0,1,1,0,3.13H12.6v3.13h4.69a1.56,1.56,0,1,1,0,3.12H12.6v3.13h4.69a1.57,1.57,0,1,1,0,3.13H12.6v1a5.48,5.48,0,1,0,11,0V49.93Z"/><path id="_Path_7" data-name="&lt;Path&gt;" class="cls-2" d="M18.86,75.19a1.57,1.57,0,0,0-1.57-1.57H12.6v3.13h4.69a1.56,1.56,0,0,0,1.57-1.56"/><path id="_Path_8" data-name="&lt;Path&gt;" class="cls-2" d="M18.86,68.93a1.57,1.57,0,0,0-1.57-1.57H12.6v3.13h4.69a1.56,1.56,0,0,0,1.57-1.56"/><path id="_Path_9" data-name="&lt;Path&gt;" class="cls-2" d="M18.86,62.67a1.57,1.57,0,0,0-1.57-1.57H12.6v3.13h4.69a1.56,1.56,0,0,0,1.57-1.56"/><path id="_Path_10" data-name="&lt;Path&gt;" class="cls-2" d="M18.86,56.41a1.56,1.56,0,0,0-1.57-1.56H12.6V58h4.69a1.57,1.57,0,0,0,1.57-1.57"/><path id="_Path_11" data-name="&lt;Path&gt;" class="cls-6" d="M65.47.78,62.59,2.33V69.16l3,1.53a6.55,6.55,0,0,0,9.48-5.86V6.55A6.55,6.55,0,0,0,65.47.78"/><path id="_Path_12" data-name="&lt;Path&gt;" class="cls-7" d="M48.34,18.16a1.55,1.55,0,0,0-2.09-.7l-7,3.44A6.22,6.22,0,0,0,36,26.4v3.41a1.57,1.57,0,1,0,3.13,0V26.4a3.09,3.09,0,0,1,1.6-2.72l6.92-3.42a1.56,1.56,0,0,0,.7-2.1"/><path id="_Path_13" data-name="&lt;Path&gt;" class="cls-7" d="M37.55,32.94A1.56,1.56,0,0,0,36,34.5v3.13a1.57,1.57,0,1,0,3.13,0V34.5a1.56,1.56,0,0,0-1.57-1.56"/></g></g></g></svg>